<mxfile host="65bd71144e">
    <diagram name="페이지-1" id="NqwV8njc-faR_dBrcJp0">
        <mxGraphModel dx="1050" dy="681" grid="1" gridSize="10" guides="1" tooltips="1" connect="1" arrows="1" fold="1" page="1" pageScale="1" pageWidth="827" pageHeight="1169" math="0" shadow="0">
            <root>
                <mxCell id="0"/>
                <mxCell id="1" parent="0"/>
                <mxCell id="-4WbBz2A1vkrkdE__zxl-19" value="" style="group;fontSize=1;" parent="1" vertex="1" connectable="0">
                    <mxGeometry x="240" y="190" width="200" height="400" as="geometry"/>
                </mxCell>
                <mxCell id="-4WbBz2A1vkrkdE__zxl-1" value="" style="html=1;verticalLabelPosition=bottom;labelBackgroundColor=#ffffff;verticalAlign=top;shadow=0;dashed=0;strokeWidth=1;shape=mxgraph.ios7.misc.iphone;strokeColor=#c0c0c0;" parent="-4WbBz2A1vkrkdE__zxl-19" vertex="1">
                    <mxGeometry width="200" height="400" as="geometry"/>
                </mxCell>
                <mxCell id="-4WbBz2A1vkrkdE__zxl-3" value="" style="html=1;strokeWidth=1;shadow=0;dashed=0;shape=mxgraph.ios7ui.appBar;fillColor=#ffffff;gradientColor=none;sketch=0;hachureGap=4;pointerEvents=0;" parent="-4WbBz2A1vkrkdE__zxl-19" vertex="1">
                    <mxGeometry x="12.5" y="60" width="175" height="15" as="geometry"/>
                </mxCell>
                <mxCell id="-4WbBz2A1vkrkdE__zxl-4" value="CARRIER" style="shape=rect;sketch=0;align=left;fontSize=8;spacingLeft=24;fontSize=4;fontColor=#aaaaaa;strokeColor=none;fillColor=none;spacingTop=4;hachureGap=4;pointerEvents=0;html=1;" parent="-4WbBz2A1vkrkdE__zxl-3" vertex="1">
                    <mxGeometry y="0.5" width="50" height="13" relative="1" as="geometry">
                        <mxPoint y="-6.5" as="offset"/>
                    </mxGeometry>
                </mxCell>
                <mxCell id="-4WbBz2A1vkrkdE__zxl-5" value="11:55PM" style="shape=rect;sketch=0;fontSize=8;fontColor=#aaaaaa;strokeColor=none;fillColor=none;spacingTop=4;hachureGap=4;pointerEvents=0;html=1;" parent="-4WbBz2A1vkrkdE__zxl-3" vertex="1">
                    <mxGeometry x="0.5" y="0.5" width="50" height="13" relative="1" as="geometry">
                        <mxPoint x="-30" y="-6.5" as="offset"/>
                    </mxGeometry>
                </mxCell>
                <mxCell id="-4WbBz2A1vkrkdE__zxl-6" value="98%" style="shape=rect;align=right;fontSize=8;spacingRight=19;fontSize=6;fontColor=#aaaaaa;strokeColor=none;fillColor=none;spacingTop=4;sketch=0;hachureGap=4;pointerEvents=0;html=1;" parent="-4WbBz2A1vkrkdE__zxl-3" vertex="1">
                    <mxGeometry x="1" y="0.5" width="45" height="13" relative="1" as="geometry">
                        <mxPoint x="-45" y="-6.5" as="offset"/>
                    </mxGeometry>
                </mxCell>
                <mxCell id="-4WbBz2A1vkrkdE__zxl-2" value="" style="shape=image;verticalLabelPosition=bottom;labelBackgroundColor=default;verticalAlign=top;aspect=fixed;imageAspect=0;image=data:image/png,iVBORw0KGgoAAAANSUhEUgAAARgAAAEMCAYAAAAfyakBAAAAAXNSR0IArs4c6QAAAARnQU1BAACxjwv8YQUAAAAJcEhZcwAAFiUAABYlAUlSJPAAAIOZSURBVHhe7V0FmFRlFz7bHSzdJd2tImKgKL+igGITigm2GKAiSgkoKVIKIt0g3d3dud3dHf/3nnvv7MzszO5swczsffeZZ++903e+773nO/EemzwBUqFChYpygK38X4UKFSrKHCrBqFChotygEowKFSrKDSrBqFChotygEowKFSrKDSrBqFChotygEowKFSrKDSrBqFChotygEowKFSrKDSrBqFChotygEowKFSrKDSrBqFChotygEowKFSrKDWo1tQoVZoDMqECK3DCNMiP8ybFqPfJ6sC85+NQkGzt7vj8lM4f/AylZOeTk4UPVataSj5gvVIJRoeI+IzcznXzH9ae8rAz5SOE4FRhPb6+9QmFhYeTj4yMfNU+oSyQVOsjLyaHcnGyDt5zsbPlRKsoSgbPeM5lcgJNBcdSiRQuzJxdAtWBU6ODuT8+LK2qavKcFMUxOBiXQxZqP05QpU+SDKkqL+GMbKGrLH3x+TcGso34067AfJSUlkbu7u3zUfKFaMCp0wOSCwa5/A8T/gIAAaVtFqQF/S9R/s/PPrwkAuRw8eNAiyAVQCUaFQby5/DwNWnWJPt4ZJOxcG/kokZubm7ylojRI879MATPflfdMA6wXJycnevTRR+Uj5g+VYFQYxOmgeFq25yTtOHeLar4xRkMyGOAqSoec1CQKWyrOaW6ufMQ0wHq5fPmyvGcZUAlGhUH06tWLGjVqxNvurXrwfyArK0veUlFShC35nnJSEuQ90wDrpUaNGprfxFKgEowKg2jcuLG8pQs4F1WUHDE7/6K0gCvynmkAuSy5FEtnz54lOzs7+ahlQCUYFQZha2t4aGSroeoSI/nyIYo9uELeMx1YGk2aNIlq1TL/xDp9qASjwiDs7aUMUn2oPpiSIfXWaQpb+UuxIkYArJd27drRBx98IB+xLKgEY8FIiouhjAzTE7SKAxutyJE2HB0d5a2yQVp8DOXk5KfBWyPSg29SyKJvi+3UBWC9fPzxx/Ke5UElGAtF3KFVFD55IE14/QnKzMyUj5YB5CtsrpHJYGzpVBKk3DxJwZNfobXvPUbJycnyUetCXnYmBc0ZLu8VD7BemjdvTu+88458xPKgEowFIvnaUYrePp+332zqTKOf71TmVkB5WUYKsGQIXTyKCa1jNUfa8umzVunfSTi1pdjLIgDk8sfRANq6dat8xDKhEoyFAeHN8GVj5T0J73WqTmMGdBfjuPgD2RgiIyPlLV2UBZGl+V6g0H9Gy3sSOgmS2TVmsLxnHUi9e46itsyR94oHLI2OHj1qcWFpfagEY0HIjo8kv4kDKS83hzNtZx3xk+4QxDK4hRtNeOtpab8MkJ6eLm/pwtjSyVQknt1JIX9/w98Bnx/fQ0GTvAja9bPlLge0kZuWRGH/jimx9eLs7Exdu3aVj1guVIKxEKQHXiO/ya9TXk42T8oL4SlUt++HtC2pqvwIooF1c2nGiFflvdLBOSlc3tKFg4ODvFV8oM4pavMs/g4gl3+vxNG0FVvIZtBMsnPz5snYMD2ANn3Zz6KXS/C7+E1+k3IzUuUjxQOsl+Dg4DL1d90vqARjAcgVyxJc9ZWrYbd63lzRPHLkSPpk1gqKe/QjTSp/H48omvXJ67xdGkx+tDLF7F4klmTxFPD7EPkolTzRS3x2vwkDmWRALut8M+jcuXP08MMP0wMtWpFLo3aax+07fYnvs0Swtssv/Sk3vWROa1gvDRo0oMqVK8tHLBsqwVgAbMWkvlTlQXmP6ONHGlJzb2miI5zc9dkBFN55sIZknnGLoEU/juDtEkNM9Nj9y8h3/EuUGRWkIbeSRHuyE6Pp9vdP8xUd5HLZvj6dOnWKGjZsKD9C8ssAuP+fSzHUvn173rck5GVnsbaLQbkLEwByWXA6jHbu3CkfsXyoBGMheHH4KLrZ8FkNiTS8sYGObc7PCu3R/y1KeOxjzf2PZF2ntdN/KrbPBJovJwPjpVtAnHST908FxpGLi4v8SNOQGR1MAb8J8hOfA+RxnmrTli1bqHbt2vIjiPwmvkI5qYl8/3/BeXT69Okyz7e5F4jaMpuyokPkveLjZEA8TZgwgZo2bSofsXyoglMWhl1L/mByYYtCkMmO5Gr08czl8r1EO/+ZTY1ubtTcf6NBb3r+vZHyvUVjxIgRtGLFCmrSpAlnkCKjFyQFy8XV1ZVGjx5N9erVkx9dODLCfSl47qdsucw+6k9HUrxpx44dVLWq5DfKTU+RpCJln8zWUBsmF0tQatNH3MFVFL1DSh0oCWC9bAkm8vX1lY9YB1SCsUBsmT+Vmvltl3YEiVyp9Tg9/8E3mvT+4/+toirHF2iWNdfrC5J5f6R4qOHs3PJARshtCln0DYfVQS7wuVy7do08PT35/pykWAqY/g7lpCXRrMO+tOZOGi8N2rZty/dbEhLP7aKINb/KeyVD00n7aO7cufT+++/LR6wDKsFYKNhSgSUDCOLYk1mX3pkwT7O00LF0BA7aNKG3x80p98gEhlP8kbUUvX0evzcsk8UXoykxMVF+BHwyMeT/62uaUPWSy7F0+PBhatOmjfwIy0Ga3yUKnv+5vFcywHrZEW5Pt27dko9YD1QfjIWi9+AR5Neiv7QjJnIvh0A6tW2NtC/w4HMD5S0Jlw7vos8/L3oiJEeFst8EbTSyYkI0t6SIYIqPCqesDMP5MQoy09M05KKgc+fO8pYktoQkO4VcFpwJYxElSyQXLO1Cl3wv75UM6BCAsPSCBcLitEKoFoyFY8o7fenFainSjrBk/Jr3o6fe+kgsUW5R0B8f8WFM5DnHA3l9r+8/ycvLpbzMdGHm76ao/2bpEINRCCsoqtvbHL2yd9B1xiLTd+zLPeit5q6a19qRWoNGTF9KOcmx5DfpVT6OZdH806GUkpJicRonCnwnvMxLvdJg9jF/Op9Xmw4dOiQfsS6oBGPhwM/3w4sP0uCWsgi0IBkbe0dO9uKJLMgFPhCknT/00EPSY2Sk3DxFYct+0jxWH4gcIefGIPA+tnaU9OSn1OHxPvJBCSCZeSPfpqecgqUDRj5TWlqaxco/oJYqZPF3Bs+bqcDSaM6xQBbxKm50zlKgEowVAD/h+Defolfq6f6UiuUSFxdHHh4e8lEJgTPfp4zwu5oJAjLB46HFCz8NHMKwLBBBwg3vMaJ7A36s8l+BnXslqvXZYnJ201W6XzNtDLWPPCLvSVDIJTw8nKpVqyYftSykB1yloHmflopcgGa/7qeIiAhNVM0aoRKMFQFlAsjkBTCR554MZucq6loUZCdEkt/kNzgvBVAmPJzDCCF36NCBvLy8+D5DgCbviRMnaN0Pb9Pwh+trJpmNgxOddmtLr30zifcVrJ/1C7UJPcDbynshS9cSE+kAFDCGLvqO/S+lAayXgwkedPHiRfnIfYb4HZMigynP3ok8K5cd8asEY0WApfHrkGcpzO82h31Rz6Lt30A9U/DCr3ipAh/IH8cCaP78+dwGA3kvxQGGze7du+nQHz/oLM9u29agnt/N07Q3AcGN7f8gO4dBMIsWLaIhQ/JLDywJCLkHTBtabMFuQ0BY+vr166z3cr+RcHIL+990SFP8lvxPLIPXhTrQq2P+oPr1xQWlmFAJxsoAR+6+ffvoiSee0Cn1x5U35K+v+UqFiX7Bpg6tWbOGqlevLj9CAjJqUSIAxy/7TATgP4FjN6dtH6rZsCAR7V0+n+pdWa2xZhAyHzZpgaYwMiYmhv755x8eoAMGDOBjloiA6cMoM8JP3is5YL0cSfY2i3qrpIv7KHzleHnPMECGJ0+eLFF1t0owFQBpfhcpfMU4yk6KZXL561wEBQUF6WTMxh1cSfFH11F2cpyGKApAXNWc67agm16tqceLb5KTa34Ttv2r/qI6F/Izig/ZNaW3f5nDvhxrQOSmmZRwYpO8V3KAXBadj6L9+/frhO/vB5KvHKKwFb9olsuGgM8790QwJSQklMgRrRKMlSM3LZn8przJ+iTwf2wOymUrR5n4WXHhLIqUcu0o7wNw+AKoPeparxJvF4gmief7NnuRnnj9fY2lsvinT6h7xlXeBjY5dKavfi5dhqs5oCwiRgpgDWzatIn69u0rH7k/SL56RFx0finSl9Ry6iEuEylptE8lGCsGflr/yW9QdnwEWy47InSzRSFGHTzvU7EUytJEkc4EJ7CEAlpkgITwGvDtIBLV2SmW3mknrB6tIYMM4QEjJ1KlShIRrZ0+ltpFHubH4DWbfTaXunTpwvdZIkDAKNYsrVMXgDVgDvVGKdePc2dJJDsWBnzew0ledP58vihYcaESjBUD6nERayfzdtvpxzgkqtQC8cT5fajk8BXEAocvnL1w3BprWQJAZmHfnJ9oQM18zV7tMgTkwAT8+qomAW1mkBfNWrqety0NyDr2HdevTCwXANbL9u3b6ZlnnpGP3HtAaJ21kE0Awujx8fGaMVMSqKUCVorsjDQNuYBAIAOgTS6BM97VkAvS9dHYC36BwsgFgKPv28XbaHWQGDryMqtn3m0aPfxt3kbUquanizlsDXTLC+BoVkmRJ6ynzPRULkGA8Na9RPTWOWVGLrAGkO/Su3dv+ci9Bxrum0ou+LxIWSgNuQCqBWOlyAi7S4Ez3+PtFlMOaiQo87Iy6M5Pz7FjD+SCdP1Lly6VSIPkt/f6Ud8qSZrl0LLYanyFBk4sHEeVfQ/wfT9fyKZ/tx/k40UBxGibm02pvhe5Qtmg7KQgNoRP7dy8yKFKHXKsVp8cq9Qlx6p1KdPZm2ztHcT9ggAdXcleW1dGPM/ByVmQaNGyn/HHN7K8Z1kAk/XP40EUGBhINWvWlI/eW+CiguWyqcBndnnoZfr119L50FSCsVJwhGDZWCaRBz8cR6+/Lslowu/CfXrEzw6THUV2w4YN4/tKgr2ThlO9hBu8PXx7AO26cIe3gdujevH7DNtwgw7eKFyICcSHOqUcSE1iSJbVsJStLAU2NpLlZeviQS71WpJH+17k0qitpAksI/nyQSm6UkafAUuN+10WcWf000X6XBSAXGYf8WffW2mhEoyZIFOs9x1dddP5SwNlQEEgfMq/G9m/guXGnR+EiS5+ciTaeTz6Go0fX3gORFHA8PH9+QUWj4Ia3hv/nhbzV5rUd37sw8SB428uPcPHtJEeE0qplw9Q4qmtlJUQWWi4tNwhf2ZYRjwRy2haoFp6e4wbLd1x/4oZ747ty7+PqQDBOHUbwLrPpYVKMGaAu2Oek3Rc9a62pgLLk5m3bNkBC0BewX/qIN5uPvkAp/fDAZty/RiF/vsjTx5YLyEhIWXSUB1N4NBpEp//8SU3ND6XyI3TOEsUeHl7DF24IOnu5mRlku8vL4oPWr7N3cwFNmJJ5tasm1jKoZJdWE9ObuRcrzk51m5Odo7lZ9WwVQg50jSxjDURIBfIR/j5SeLjpYVKMGYAZSlRUoBg3lp+jq0JIPmyWB4tH8vHh66+xAQDJJzeRpHrf+Nl0+ns6nT8+HE+XlpkJMVT4AQpQxfLoR3n73BS1rVt/5LD4cV8vNVvhzUtbm/vW0+05w/xnXm3YkPromInlm0OlWuzFYXsaRtIYYhtp+r1ybVpV7L38OF9G1cvsncqPOkNvqugOSMoMzJAPmIaQDBePd+gX34RS8QygEowZgCFYLCcCclxpW+//ZZL+HHFx9oda2EkO8FRC7Hsli1bUvStC/RJ/XwHqzaRJF3YS+GrJhQ4jqZtUJMDwQyZsZY6duzIx8sCt797kv8PWnmR1hy+QHXq1KG0+GgKnizpvwxedZmO3AlnS+ruwc2Ut2Om4Bd16JUagqBgEdmJ5TVbwWKsIIKXkxxX7NwdxXpBOkNZVbqrYWozAibfzZs3WXj7u+++o1WrVtHmzZtZhf/AgQN05MgRPjZmzBiatWwDVX0+vzVJjRo15C1daF8/UCqgoMxFnhC1Eeha10sTsdIOK4NMkG4OOHkY0ZhRUXyI3xc9mLJiwwSpxHMtWXZCVIkTA+GTK0sZDZVgzAiIcChVyKbA1slV3sJzi/bfcASlnACzXh+psRHyloCYCMoSCWHkXNV6MSvAGY3I0ZtvvikfKRuoBGNG+OfVthSycCQlXdzPVa66NxyTbgij4ha9I1/HFan8hgCrSIFz/Vb8H/VFUVGSbkxZQbliYlmmwE5LThMlCN7ekuWCKA3TYcl82irKASeD4ribpKktaUyFSjDmBHGVh6xC+MpxXEKve8Mx6YYcDdy09WB1mtXL1gwKFLWXSB7tJT8JsG7dOnmrDID3kN/nXGiSRj3Pw138lz8LLCwlDyQ7Xe58iKdJWyruM5AIGBoaKu+VHVSCMQOc0u6maMrNQMdF7U6I8dn5P2vnOvnqdAk20pIKxHNh51reLguk3s7PccEST+mrnBmd33JWG7nulbU+u/Q/OLHwbgUqyg9w7nbr1k1TFV+WUKNIZoDp06dzUhM6J+LqD4EmWCRwxGLCYmmBOhZso/gMKnF4HCJNAQEBbBkg4qRUNMf636SYeVJHgbdWXKANx69winrkjXOU8I/U5RGTuuFHM6l79+68XxpEbf2TeyFBDuJQkqem+jZm118Uu385R63mnQqhjIz8vJc+ffrQmTNndHxHuH9wu8o04uHS51+oMB3IiYJ/TCUYFSYBP+kdhL4FQCTer42l5557jve1c26WpTWhn6bP5e3SQHlNpMRrp5eHLf+Fki8f4PD7b8s20yOPPCLfYxwIx+Nq6p4cRt3qSz6bbnUl4uxqrMOBihIDFuTba6/okH9ZQiUYKwUKBdHSFLjT5T16tv8rvB1y5zql/v2xRDLCeojs9TV1f+Jpvq8kQKZodmI0Wynbw+3o9u3b8j2CeEY/xXkZHWefYmurOEDuDqw1yD/cuHGDJk6cSHv37uV9BYoYFqCQkQKFlACVmApH71V+5aZRoxKMlSL07g1KWTict0+HJNPrS07yNnJU1r3/OHWsJvlsbB2d6U6jZ7lTZHGASFDgjGGUGRnIVtKgFefpzp07Gh1gOKOTLh3gmic0vS8v/VmY9lhS4gbyQa4NOkWuXLlSk6iIIa7cgMKI6ePuDeWtioN3N96kA9dLLqlRGFSCsVKw8NP4AVIdirBUlqY0prEz5sn3Em3+qh+1cJD7RYv7T7p3oDdHmVbchlqn0KVjKDPcj/exNPr+++/p559/5n3Ic6LrIZTycN/du3epYUPzmLgK0eD8wM+FuqnIyEi2mEBW6dtmUhsPKfO5ogDLpGdm7tI458sSKsFYMZBJ6zeun1RJK0jkcss3qP+bQ+V7iXb9PIwapkkkgfvdmnYlj2c/Io/qdaRjegCxRG6exRq1gGK5fPjhh/THH3/wMeTD+I5/iUkGy6aLtnXp4EHTtGDMAUkJ8RQ5fVCxqo+NARP3zeWS5Wbuy7mhhzM4U7ysoRKMlePS+gXkcnolb19JdaF+M6TqZgWrf/uBOsQcl3wyMpAh7NasK9l7Sy1NMNmSLh9k0lAA8kDU6M8//6T3339fPkoUsW4qJZ7dwUsj3A9y6dGjh3yvZeD8ihnkfmmzvFc6wMHt07Ib/fbbbxwJxBLV39+frl27xtFAxaeUmprK3S5xCwsL43ogLPda+jgK60rKgO5aT7chXlkS06e7Q2jbGUnXpyyhEkwFwPYfBtED2ZLg0/UsL3p+yjphsOSHh8+ePUsnls2gp51DdYjGEGC1gFzC8txZYrNx48byPUTR2+ZR3OHVvI2lEWqoEI62NMDyC5jyBtf0lBawYk5X7cGpCKUFsrXR8wrC7XCaY0kHHxMibyAqHEv1v0Jz+hQ/zI9crBfnHSxWqYopUAnGCpGTlUV2ejkN2k3DUG1befhCqlRdVwsGrWMvrprFDmL9YQFiuRabRc8++yyHmz/55BP5HgkaTRgBXLXrdH5cJ1sYn8nW3l6H2MwZp3dtJO/9ZSOZ+druBM75uVfYs3we1b8sEb2pABH+LgwYXGzKEirBWBkSTm2hyI3TaVOUO321YKN8lOjujWtks/YHykmRa4XERA/t+Cb1fKlgG1dcDbG0gfMTWr0w7SEToV3XpCAj9A4n1KXcPMUkhGWRa6N2fKVVkHhmOy+d5pwIom9WHDJa+W1u2DvhQ6qXlN/mpaR4e901OnwrTN67N7hwYDu57Zwq75mGQasu0f5rQTq9zEsLlWCsCFnxEZKws/yTbohwpa///o+3ARQ4Hp3wDrVySdU8xrNTb7Lv/hpVrlmX900Fcl/Cl/9CaQFXeB/k8s7aKzRy5EgaN24cHwMyI/wpYMYwzfstvBBDY9Yd46xlc0dEaAglzh5c5LKxKMA6iOz8Jn3++efykXuDA799TrVjLpv8+bFMavftYmrdurV8pPRQCcZKwB0cJ71CuZm6RY92r/1Kjdp0kg9I1snYl3vQW83FBNf+6cVjnWo2psqv/8zLqzxbB1bkx5ImJyONo0MOttLyJmr7PBa1Up4Pnwza0cI3AEtHgbG+Qsdd29Ibo6aWvSZNOeDmzpVke3BhqUkGVszOC3fvKbFmZ2dR4MSBrBFjCkCEM27baaRXywIqwVgBoL169+cXNX2OQAojuuc7+uIfG0FdeouJroXRo0dT8pFVNOLh+vKR4kOJJFWpUoWXU9qAZCPEpjExDX2m3Rl16KPf/5H3zBdwnEZMlnJ6SgNM3pZfLeReQ/cSnHD51wiTCRL+s+N+0QaXwyWBWk1t4YDm6t2fnteQy8Kz4TRy+UE64tBCfgSR98E/OBytDSiXjd96geakt+Xn4WYKsBTCIESU6GRmVV526ZNL8rWj5PuLZLkoJLTyZjL9cSxQfgTRU84h3FfJ3IGi0qqflp4IEUZGZ4d7jVqNm9PebNM1Xj55pCFt27ZN3is9KrYFk5vL/gFomeb1G0ONmjaX77AMoLla0J8fswWDiYwmasijQPV1RloqBf4iWRAAJrlNx+cNhkuRZo+M1t9//50lOTvUdBdPy2P5SxCKgtNB8fTUU0/R1KlTWXNXqd7WRlZmBgX88oLmio/PhQprpO3DGlgyZjg97ST3SBJWzdoQe/runx3Svhlj55jB1CizdOn0kEX4bPEeTTnFvcTBaV9SrUipq0NhgKV1p2lflmUtC1RcghHk4vfrqyyCDdjY2ZPz4GlUp0lL3jd3IHoT8vc3HBXCJEZvaSRnYbkCZEYHU8DvQzRWBG6oByqOiY4cC9xwFTe1lB8p99/37ULD2uenna8Pd6ZvFm2V94iWTfiauiblh0O3JvjQZ3PWyHvmiQyUFfw6sFQZvpi8ds+PpFdffVU+cu+QlJhAEVNeMWmpV5ZRrwq5RMLk8x3XX0MuAJyYaYs+oR2Lyyb3oTyRHnRdh1ywLELWp0IucPSG/DVSh1wOHTpU7PU/Wo/4+PgUSycEjx0+bzNtipZU7YD+NTNo21/T5D2i176dRFdqPS7vEf3PK5b+/Cq/hMEc4eTsTGm9PpX3SgYsk+b+PFKjTXwv4eHpRbFPfyvvFY4s8fmQvFcWsPtJQN6uEEAD8OA/hlNuVjqb/0/OPU5d6/tQHS8p9u8Tc4N2+CVT205ded/ckOZ7gUKX/EC5qYlMHJsCc9hyUXIX8P3Cl42lLEGiuH/O8UBOS+/UKT+SVBTQGE2wk7S8Ere8vFxKi4+ieLGUcvMsOiXdy8uLHu77Kh2+GULVEiXfTuW423QqII6adHiQHb4tuj1Kp8SSyydWyjNpZJdA6/YcoU69xLLOTFGtXiPKjgvnpWlJUcPVjvYEpJSJ0FdxUbt+AzHm46iyfM6NAXPhYGgmPfzww/KRkqNCLZH0lw3QL0FvZky+G+vnkvfNndKkEhMg9pnR1O3R/KusOSDh9FaK2jSTrS18/p2RDnT69Gny9PTk+7OiQyhw1ntswSjkAp+MYtmYAjiMub+OAUCmc2lMVc74NRUHVv9Ntc8vk3bEeT3l0ZHe+G6ytC/w37zJ1Dxgl3TeBXam1aQR05fytjkiOjKC4qbn5xqVBB9t8+ce3vcjqxlpCps/e45auxduRf1214XmrtatWysJKtQSKXzlBB4YSsbp0qVL6bHHHmMfQ5fBIymm0WM8CfAY/yVjuEeRuSB2/zKKXP+7hlxW3UqhnTt3asgFYeHQf7/XkMuyawksR1AccgGYXDB5DN0ElPavpuKxgW/T1bqSuh5eo2vSOfpvfr4sxPPvf00BrV6SzrtAb5cwGvvKY5oiQHNDlWrVKfPB0rX2GNLam+bMmSPv3Vsg9+jZyeu5nW1huHDquEb6tDSoMAQTd2QNZYTcZHJBm9V58+axNKM2Hhz2PV1JkZYaHas60K2Fo3n7fiM9MY5idv0t70kZl5MmTdL0Dob4k//Ut1j8CeSy5k4a9522t7fn+0sChKK/PBBJc8KqsANcQUnM5hc/+o7COg+WeicJkmnuv5OW/JKf1drrjQ/ItXG+f6ixQ7JG/sEcUf/x/mLmlHzqwBezdWu+0/tew9nFhTbZtteQuiF83L0BqwiWFhWCYODMRaUvAMula9eu9O677/K+Pp6bup7sPaWrfnP7OJo+fKCYE9LV+34BnRCvZeQ7Tf99vQO1biqFOmGx3P3hWe7qB3JBvgmWTaWtJ/FPd6DNxy/TtMWrqOGoNZrBWFyLSMGjAwbRCbd2GgvxobTLFHjjsnyv+I2SpL5OuAAMEhcAWJXmCncPT3IZMr3QCVoU4m6cvq/j6suxk+horT58EYEwPLeN1bqhT1JZLOEqhA8mdPEoSrl5ksnlREYVOnlSko/ElT9292JubOYy+HeqXl3SP8lMT+VcDoSyMYjSBky4705fLBk2ibUzq62JnwzWgGP1BpSBCmnxOUEuSy7H0tWrV3XS9YsLRcB7XlYHzndRAH3dk/6xdMClAy1cuFA+WnysnDyKOsWf4vfAuXWsWo+y4yN5aQZyQS/toUOH0vz58+VnmC82fNKHWruVTCwbIeukHu/SBx98IB+5f8DYQnId4j3IiQJwIVm/fn2pG7FZvQUDXViFXBBxUcgFiNwwjWIPLKesuHDa/21/SkmRchwcnV0psvaDvI2JcOn3D8tNU9ZUYO3cf9Z2CnB/gCcmyJGjGTK5/HkiqEAtUHlAu2tASfDq1xPoVqM+0tVfnFtkIivkMnjlBV46WAK5AP1mbpO+RwmAZdK+1YvkvfsLjK3nn3+epRoghoUb5CXKosuj1RMM1PUBEMyVK1LlLxC7919WXlPQqaYLjX+1p7wnGLzny/IWcaOyXz55R967v+g1ai4FejaV96RM2bkngykwMLBMm5YXMGzl/bKoUfnfsC8oqI3U5QBQ/GJwWj/9dMk7HNwP+DuXvIfTC7UkkXJrhlUTjP9vgzQ1Oi+//DK5u7vL94g18KGVPGkwuBlie2gbbxo38mPebdaqLaX0/oq3gQH1bXWsn/uJx7+eTXccavP3AnGirQcaq5UljK2cyyq0+ujLQ2ljlJuGXFavXk29esnRJgtCt09ME0o3BJRiNGnSRN6zTlgtwaBvc1aM1GsXE7Ffv/zCuuB5n2nCuRCtxiRliEnVIOy4Romt/WPPsp8DgBVzbGfZ6LSWFrAiHv5yFrUdPIp27dp1T2tbSrtEUoAI18ezV1NgqwF04MABvgBYIjy9K3FHhpKisXtemWXNmiOslmDSgq7zf5DIW2+9Ra+8IpnkIJ20wKu8DWKBb2XKnuuU8dCbvJ7uJq4qGxfO5PuBKkOnatbZVW/tNJvBgGzZYcOGldtV/174/hHpGjVqFPXsmb80tUS8/NV48nUsnmCXAshlwAK1VlglwaC6OGzpGLZIQCIYxEBOdjYFTH9H4xj94YcfqH379tw4vnGvV8jWwYkf17tyCv3111+87eLhRXZucnq8eL2vvspfNlkz0FXREMpKJ8SagN7gzQaVLGcKy6SvBvUrM8vQ3GCVoyXlxkkmA6zv4Xdp3lySYcjwPU95OVI1KYinf//+vA24uLqSrauUFQsrZtfyBbzNE+rRIZJ1I5ZJsTfvbzTpXiE0VFpe6uN+pLdbAho0bkKZD70l7xUP73aoVqzyC0uCVRJM4oU9/P9UYBy3zlCQGR3ExAPrBSG4du3ayfdIqPGeWBrJEyjQ9w7/Bxr1eE5j3dTMibHaq402jCXqqQRjHLW6/08zfooDhKwXTvxe3rMuWKkFc5z/w4KBIr6CmJ3SsgeAsJI+XCpVJXsPScdkePcGtH37dt4GnOu34v/wTXz99de8bc3wysoPn+akWHcotaxQqXJVcho0rUQkM6CeDS1bJheFWhGsjmBYakDLwtAOA2qrrGmHrLXhXF9WVBdEMmVKfgjSxlaqx0EL0KNHj/K2NeOHdnYUf2w9pQdekyrQZZhrEaK5oF7zNuTnWPwENVgx6JJpbbA6gkkI8ZW3pCWSUvAHJTLomgAw8xW/jD6qvfwNX4Hgb9GJpGhdle5FhMUcEPXfHyzJyar08neuKN+9NHj6p7/J1rH4tWBZQdesbvltdQTj6iPVEwGwNpQJkeZ3UTNJQDDGWmbYOTjKW8ZhzX4ILCs1t6CE/JvYB2FD5U5F0Qiv1l7eMh0Q3IYusjXB6gjGyU2KBCmApiwQn55/ZSiMIKAIB2BCaQO1PwAmGQSvrRX/RlXm5MOP/rtN+53aUe7Tn9C8ABeuE/ovOI+buKsoGt2Hj89PbzARWCYFXpT8h9YCy6mmFh8TzciTLu2n1NtnKCclkUPOmPggDPc2PcnnsdfpzPIZ5H1jJz8FvpYP52+lFi1aUGZqEgXITcDQIvO4r+HG5tCyTb1zjp97272ZxtEbOPM9jVSirYsH1Xn3N7aKEk7+pyEfDCh8Bud6rchGLM3yBH/bOUrRJxUVD6d3biDvA7PlPdNwOiiRBvx1hHNrrAFmTzBw2gb+NohblSpLHFMBK6TJJ3M0wlKKFAFM/nbfLKI2bdrwcW3AoZkZFcSCSzNXb89/7uindJzHpmLemQj6cd0xjfKcioqF43PHUJWAI/KeaXhlZ9x9r94vK5j9Ein5/C62XJgYFN+A3g3WBv7rA45alKErcGnQlv8jkW7Kt5/wtjZSrh9j3V681pngBA25xB9ZW4DctN9f/6aN9tWc6KWXXpL3VFQ0PNDvQ3nLdHimRVqNs9fsCUa7tQh8A1Ov5tCNhs/Sr5cy6f2NN2j0kWhKafo4F81tr/kCban2HM0M8uJMXUz2xm65mtBqYpt8xfqnKyXR4cOH5T1hnGSmU/jK8Uwk8LMopJAnfui9K+bTrMO+bNVA/avj7FMsfn2+xmN0pe5TtM+pHe2waUFRnd+klEffo6ttBpFD5XxdFv3OhyoqDqpWr0FZ3QfJe6bh3U41zEoPujQw+yUSdFti9ixmsvhsZwC3KjUligNlLui6os7o22+lfjAgmpDZH1BGuBTKPuLYkoaOlfogRe9YyBIOUM4HkcFERZ0SMHv2bFbnR4HhiBEjTIqkcHuUeZ/x5551x95spB5U3HvExsZSzNSBBazgwjB41WU6ejfC4iOWZk8wcQdWUPTOhTxRSyvXCMTFRFPMtDdYnV/8ehRWvSO1fKAhxR1dxwMAy62oOt1oxYoV8jOKRm5uDuUK8rLXC3Hf/u5J/tzTbhCrhamouAgPuENJ8z4wmWQgqdl+1BJq1UrKILdUmL8Fs28pxexexBN1/LlUun5dkmGAFRKy8CvKTUsmG0dnqfVr3Rbk2flZyqvVgjwq5bcu1ceyiWhdeq7Ajw1yQbuPixcvGg1FQ2cGUhB43+itf1JORn4r0RkJzdjaAZBej+6RQL//InTU9FRUTBS3v/U6m3b07QTLzosxe4KJ2fOPWCYtYYL5dIe/RpQYXQLiDq/m7QIQlglEsZ3rNGedl4ZtOhWQGfj7h+HUI0esc+WvD3JBf+fLly9Ty5a6/akzwv0o6cJeij+yRgpJGzllzScf0Ph70EIkYPrbvOSaeCGdxbhVVGxALsRv7POssmgKoO7/1dIDZaKNe79gUYl2OutR9NgRAPHA8TpbkAPCzwxBANxrOuAK5a78lta825PC/W9L98l4+5c/aG+9l+i59cH0zZE47pIYFxenQy55giyQ6xI4812KO7hCWlaJ18Z7gpD0o1faJGbn5iVvqVAhwc5eWNl1mtH6y+GagMHs4wFi7PrrtAzB8gi3bnUrsZSoJcPsCcZGnrT6tUHaZHMhPIWm7rlOb/x7msaH1aUF56Poj+OB8r1EHas5UtL8D+mLoa/KRySgZQS89esPn+P/2rkquMrcHdOHgud/oSEVDIgWUw7SiK13KabeQ/T1ikP0aLfO8jOI6tbNVzXjvB0VKrQAIbTMqEDq36YGj+d6XZ+kGQfu0IyDd+n3fbdoxMId9MiISbQoohKN2OZL72+6SdHRlj2OzJ5gEhzzfSnZwsTUQLZgutWvxE3UHBwcmHQWL15Mk3dcokk7LtPqIK16I0ESH9aMNq0dpnjs3bF92WIBseBqM2TVRXryjQ+4tQnU3lBaDz9N3eF/8JIMj9Ou0I6H01gAIW9LjwSoKD2SLx/kMaVIX3z8SEPqXi1/XKAot2nTpjRw4EDas2cPW9OJiYncwdOSYfYEU6fzY/IWUbsabpSRITW6irP35okNMrh+oGCTbggmjV66i1xHLKFz0TIx4bHTP9TUJxnD3Z9fYGkHLIFQgzNq5iLW4h0/fnyBFO70AMm3AiIBySmAExjvBxjKGFZRcQD51rDlP2suWAr6eMbQpCF95L2CsAZ5UrP/Bg7OrhKRCHSo7kIRERG83fCRfPWw1pXtjZIGGpG9MHMHeXSQxLG71HKjgY934W1DCPn7G5Z2wEBAvyFElF544QWjCm9KeBv4/PP8fsuKsDhex5z7LKsoXyRfPSxuUqkALlho0aLdxWJArUya+fFr0r4VwiIo0r3VI/y/S71KbDoCdsJacG/ZnbeHP1y/0CgNmn17PvOhhpBeaexktNZD2yJ57bXXqHVrWYDKCFJvneb/iEC9+eabvA0opvDpoHjy8fHhbRUVC+gqGrZsLG+DXEAsx48fp7Gbz9Ipj058HCTzrHtkAf+gtcAiCMa1qWRxoIboxw/z064zGj0kbYgfacU3b4l/hsPHgKunN1V59j15j+jIEQMFaOL5aGMKYDDAn1MYkASIim4MnkcffVQ+itYoIfxaOP7YY/lLPBUVBynXj1PE2smacTDvVAgFBATQgw8+SN7e3vTE0M/pVFCi/GiiD2tEafpxWRMsgmDisiVVOiAyTExeGdXb9cBClbc/6FqL9vy3gbeNIbeWlBUJDz78KfrIig3j/1jWoBF+Yc5ZrKdjD0rdITGAsIxSEL5qgrxF9NBDMgmqqFCIWD+Vo0YYG4suRPEFTTvKiE6cD/28is5F5ufEZG35na5duybvWQcsgmBqd35cs7zBckj5EdBqJNA9X3M3YvUEunTpkrxXED6NWmhep5FbwWrVxHOSjgyg33FAGznJceQ7bgDlpifzAMJV6bPPPpPuFITD1d8CsILGjRvH2yoqDkIXjxJjRMqV2hpqw+TSpUu+3y9d9heiI+fLCw6SnYsH73eq4UybJ1tX3y2LIBgHB0fK7TmMt2F93NiTb0o2e2uUxorBEspt448UeENSpdOHjY0t2Tq5SjuCCPSRcu2YvEVGSwUggu07cSCTCztwjwVoygOApMsHKTsplgfXiy++WKgVpML6kJ0UQym3Jb8cLjBIlFMuVhBKu/NjHwr6+Tka+8VHfAyRouu18pfXA2pm0NQfv5H3LB8WQTBAHa2eM23CD9LKlWJ5IgAiqD9mC9nIfYty05IoY8nnwhrZRVHBsrdeCy4NpJCxIX9NTnp+XZF+xTSsFqypIYIN4SmQCyICCxYsoE6dJIcdpCXCVwqLRV42Pffcc3xcRcUA/Hd+k17l8YHfH4mcytiAiFnoP6N52QQ8EHmafH2lqv7/DfuCfJ3q8zZQ03efJphh6bAYgnFz9yCnfsJaAcmICZy7bRqlp6fzfY6OTuQxfBH9fTlec3/Eml8p/o93KHD2R5SRLEV08OOm3DrF24Zgq1UN/Ua7avwfGb3pQdfJd8LLlHhWWkLhyvTxNl9eqr399tt8DD6ZgN8G8XtjcGGNrdynomIg8dRWDbmsvCmWz7MkKZDcjFQKmDaUx4iCrnU96dKszygrS2ql0/unv8neS+rhhfv6dGpqFaJTFkMwQJ1Oj2kao3Wp7U4rJ+U3QINTduKWs3S+8kNSmYBs7WSE3KTA8f3pzg/PsHmKAQAgDK0PxxqN+T+WYZV9D9Kd0U+L5z1LQXNGMHHAakGpwCW7enyFgdavgsSzO1i0Co8BAa1fv16+R0VFABIro7ZKfY3w+2/atEnTuSJm50LN+EFWuIJWzin0eIt8x29cl/w0h+EP1eMcLEuHRREM1qv1Ri7jSmmge+Y1Cp73KW8rGPjlLzR511X660IM/9AKlKZrhcG9hVbERwwIVE5jUCgDY+jqS0ws+/fvlx8kAQMrcuN03oZYFQYGHL8qKg6SLu7j/7BeHnnkEU30EFZL/InNvI2LGqRYl9xI5X3ggwfr0K1bt3i745PPaawYXOTGfFQ8JTxzhNnLNRjCmV2byGv/TGkHloq4XanRk/p9nN/fF+ZlWFgY7d69mw5tXEZ3rl/lTGB8XRDG5ah0Sk3N/6GB5PhY2jjiaToVEMuPAZAohxqjtWvXcq6LdkYv/DL+UwdJuTPidUFCeF2UFVhDmrcK03H3p+d5KYSL2rerjvASGYAvEMt1EA8CAqhlwxiKO7iKonfM57H79tqrdPiWlCIRdOYApa/7hbdRXHvkToSmeaAlwiIJBtj4xwRqFbxX3hMQP5SDT01K6zGMWnTrKR/UBbRaoI8LAqhfvz7Laerju+++43Xx66+/TjVq1KBatWrJ92hBkFeQsJwygm9qrBwMoDinKpqrkYqKg5QbJ9iBC3T58yyPMYwtWC93x/yP/zf7dT/duXOHQ9NAclIihU3sLy2dghLIc+CP1LdvX1ZG9P3xWc24cuk/igYMGMDPsURYLMEAkKHcOH4EDWomh54BQTSujTpQrbd/1Ug9lBVQah/132xKvSvW0Tht4gZiwVVr2rRp9Omnuss1FRUDkZtmUsKJTTwOLtjUoYMHD/Lx6G1zKe7IWhaMX3wxmqujtaGoNQLPbwihGzdu8HbEtTOUuPRbHl/zomrQ1IWW2xTfou14hAB/WnOEoh9+T5ifsv6L+FFS756jOz/0Zi2XiHVTxY+8RmqKXwLAeRez628KXfIDBUx7m1Jvn2ULBkp1WBIlNn6Ur0wquVRcoN0NcEpYIgq5AAmIKsnX761bxbYe7Jo9LG8ReafnNwJ0qST5YYAje3bIW5YJi7ZgtIGQ8ZIlSyjj1Ab6qJtekhz8NPJ/JNvhR0cj/H9sH9Rk2iKBLlyslbPjwiVZTH3Ip0lZDp0NSaQffviBxowZw8dVVFwoDf2eXulLfn5+8lFJ9B1A5FFHy0gLd77vzUsoLJMqv/ELPfvss5SekkxBE/rxhQxjbdLOK+TqqmWlWxCsxhMJqUuI80xBBCmvC3dUxI/DzlqQA27iB8OPqejqTpkyRX62JNOQFR3M92seL26wVBRrBZq7G9IbUN/3vuQBo5KLCowpBfDrKcgIyffFFVaRX/8LuaBWjLUzZ87wprObu3QhlLFzZ34Ji6XBaghGATzuIJqpu6/Q/77/k3bbt6axQTVpaeoDtCihnibEDWhfVbiEQFg4ICR47386n0ljAqrT1tym3FTt5Y9H8eNR8Tp6tOTQU6FCKVPRBy+PBDCejGkJAQ7e1fk/wtJKZi9DsboFtK0iS4PVEYw2evfuTf/88w8tXbqUxs6YRxPmLKJ6ny7Q+fEUuD7QUd4iqtL6IVq24zAtX76c+yPh+V999ZV4WsHnqVBhCEhhUFBoVb74A2Bt69S/aVkwTzzxhLxlebBqgjEEpWZJH47VGshbRP/73//kLRUqdIFWwmi0pwD7CppWyfeTKOMMlklhbs6EY/kSIzpyrPJ7wAJq3KghbwN4rcz0NJ33NWdUOIIxBVbi91ZRQqBgNs3vEqXcPMlRyNujn2JHLm53vn+a7n7fm48Fznpfaq4nj5eYqPwe5HmtJYlWoKGH8WkWtX0e/4eVo5QW8OvJr7n09Q6UtGEyS4CELBxJd8T7Box9jj+H8plwg6A4QuWKFIS5QCUYGTZagt3BwaZ331NhXeDkuF/6UfD8z1nXJfHMdsmRq0x65SaOZYTeYTJS0L9u/lKoZutu8pawiKsbTpFAXpVCJFgieXhIujCZMSHicL6FgkQ+VGkj/UJ5vOZzyDfoSCMf56m2UiKfuUAlGBmOVaUIAEzawMD8nkoqKhbSg29oJjEmvXJDFFG5KcewfOEopQz4U4YOHSrvEXk92Jf/Y0z17pAvjKYgN1WQk3gvvBbw0ksv8f/E09v4P6C8h/IZlPfWvynoUMOFkz7NBVaTB2MqsuLCyX/yG7yt3eo1KyaU/GW5hbf2p9CJEyf4uIqKheTLhyhs+Vie1ChuhUg3okDwj1SpUoUfEx4ezu1z5s+fT3///TdlZmZS13qVqGtdLzqS4q0RlA+6dYXSF0kJmNDf7Tlpg8aRy5bSj304ZaLppH00atQojYzroD6P0c2rl7g4smrVqpxv9fDDD2va4mDKIpqJan40x3cSKyv7NaO5Fgqf+7j3g2bTyUIlGJlgoETmN/EVJpgnl91WrZgKivDVkyjp/G62CoKrtjdJdgMtc5DoGRsbS927d9dJivOf+hZfvBC53JNZlz6cKpUGBC/4gtJ8L/L7/HkiiBISEjTPQ2O/CxcuUMeOHXW6jRYGJIoGzf2Ec7aOeHShuXPnyvfcX1TMJZKBsKGN+FOAYkgVFRPZsvA7nK49e+YXzUbeOEc3ti+n0ItHKSkiiDJSddUPUbby1FNPFci4vd74eWlDXLh6OQZx+Qqcw3Aiw9qYczyQfX7az0PXAXSj0GllLC6E6QkxlBDiS6f/mUxH5/xAW7bkNxx0qilpGQGKEJs5oFgEA3Mu8NQeig++Kx+xTpjTD6Ti3iIvT7JoYdhrG/eJy78nu0N/UcrKHyl8+hAK/KUvR28g/o4C2OunDsmP1MUzL75Me3PkDF/xeml+F9k5jG1oB82bN4/F0gwBNXQomPQdP4Br64ImDaTI2e+S942dVC3oGEtyKsgIy5+TmmiUGaBYBBN/aDVlbJhIUXPe55MLGcCA34dyiAxebggvxR1eQ/FH1wumP0aZKbrVo+aMzJz8waQsm1RUQMikAp/K6dOSeDdg62ggG1c8NiclnuKPbSD7DWN5Dpzcvla+UwIsoSE/z6Fjzq253kgBHLaQBnnnnXfkIzLEa2IOIQwevXUub6NDgfK5tBEaKpZeMrK1EvsMyZDcLxSLYHJlwWL+suKWGRnIoTaEyBCnjz+ylhk3assfgul/oIBx/bjgy3f8SxR/fKNY2+5h5a+Um6co+s4VSokO00laUqHifkM7gU1bkMyhsqQLBJ8JtF0Gr7rM8gzaqomYAz6H/qTo7fMpKTZaPir1SR88Zgadq/YofXnVjYYezqBnhnxcoDcXtJ9xscYcQhhciSChdAXv9/DCS5rlPY5XrizJxwJ2bl78H45hcxI7K5aTN+nifkk1XwBf+pEmNXg7K0NaUqC1K4D2IcUFMh/dmnQmr25izYo0aXGSspy9yaNmPbFZdiYfO3mnvMkEqe3kTYuPoeDJkpO33YzjBdTuVFQMoGsEHKaYwGuS67C2LgDfCZY3OP5PpA8rJQIxMTHck7ydcxL1rSKFnRUcr9eXBn1omoxHxPrfNOFpvAeI7EJ4CvuBIAWiZJcH/TlCfL7r/JhlsdVo+/btfDx85XhKurSftWdy2/XRaaVzP1EsqrP3ksJ0ALRFRy7dR1N3X6UxG0/T09/MpNRH36N1KXXp9T2J9MrOOPp8X7iG5XGDiYgTYwhQ/E++dpRCFn1LIX9/TSELvxLrzWF0F8LbP/Zh6wjrzMwIP7Z8OF3adG4sFtrVcJO3VFQ0ONeW8lWQuwJ5SwU29vmJmJBQVQArAjIhX87fQJW/Wk3rQsXyRLYyHgrcTAum/crbhSFBEItCLiCWd9dfo+rtHuFQ+K5du3RKV7wf6sf/YaloO4Y1ImgCFmvBaEsDtp95QucHKAyoQkal6G+//UZ79uxhSUpo5raq6kJJCQnUpY6Uwdilrjf/x49rKlAd7dGhF/n0GkzZZE95Yt/Fw4vXvoagbcHA1FVaQ6TFRwsL5lU+jvXxyYBYPq6iYiEhxI8vbMAnu4Jp+9mbvH122TTyvCoJSH183oF27DAuBHVh1WxyuyQsHyxzxEX1icmbDUuvCnCX0Akv8+viIrzwbHih8wpOZfh9QET2XV6k33//ncXU/McP4DwYjN1F24+wfIk5oFgEE398E0VtlsS2T4ck0+v/nNCwdWmBJQnK0k+dOkXLli3jRLcONT0oOyebutaRwnVYgpm6/LLz8KHq/b4gxxoNyc6zChMRSMdYHkxaXBQFT3lNJRgVHMDAOBi06hId95WU5jCJfcf04ePzzoSz5V4YQhd/x75GYNzlPPpni9R1QBuYeqgtwmuCMOaeDOakPWOAlY8yBvzHxRHqeT169KCcpFjuNorX0b5omgOKRTCQjozdL+uDiskKDRUbOwduTsaH7B3ZlKze/0tybdK5TMgHHy8pKYlPPE4cUrEhwNOptqfG0oHHv1CrR3wOEIytsxs7pFlUSsCYD0YlmIoNLMkxiWF99Jy4QdO03k9YGmgLjOOPTdpotL0wgOAFiiIxnpDF+8bS/IiUgoxwPwqcIVlLIAbkwxizdAD4gIIXfMl+lrueLTQynOkBV1mEHkl2X+8P04ku3W8Ui2AurZtHLmdWy3uFwACx2Dm78wS3cXQmO1cv8nnsNXKq9QCRoyvZORqWUCgMUG6Piori1iSHDx/mpCOIJret5iKWXJLFUxTxGCMYXE2mH7hNtmaUT6Di3iF81QRKuiB1rHh5ewxn1QIn/xpPPnckS+Tfm2n08/r8XuaGELn+d0o4vZX9jhdrPaGjoAjApxg48z2+/69QzwL9tvShyGtifD744TjufAH4CqsmJy2JiafW/96jb7/9lo+bA4pFMMhw/eKLL+jo0aP05ptvcm3ErqVzKSEuVseaAIr0o+iREAjI3qcW2bm4kb13darSe5gUeiuBFYRU68uXL7OvB1521GWAeFArAijEo21OpsZFUsgU8YPJpwMNsByr1uXoll2XflS9hdRjWIX1IzHUnyJmSfkp3xyJo/WHpdqixPg4ipgs+UswLn27fUC9X5AKFA1BsfhBIJ9s9+NSAm0knt9NEasnMWE8+ulkTbGjIaT5XpCsF/FY9FeCXxNLfjQUvPPjs/yZUNO0aNEiGjJkiPys+49iEYwxgHhgRaCeAi8HfwqsC9RnxN06R1HhYZrJDZiypNGB2EfLWMgLwgrCLdKxKjV64iVy9/aRH1Q48HmOHTvG/xFWhCPt3Xff5UxKIC4miqJ/FwRjbP0qPoNz3eaCdOqRR7snpCWgCqsFCl+zokPobHg6vfjnXo3s5ZklU8jruuzgFWMip99P1LzLI9K+HpKjQijsd6k7Y9e55wo0tEeGLpLoQBqPfT6V+vfvL9+ji7SAKxS66Dt24oJENm/eTM8/L5UgIHqEiCteAzVNiDxZbBSpNIClcP78eb6BkMDAcOiGXThMmeKkaBNOkQQEKCQk/jvVbEIuDduQW9Ou5NKoPdmYsLTB1cTHR5ecUB0Lvd3XW3gyURb6OcT72jq5kUf7J8V7tyX3Nj3FoeJbWyrME3f2b6C8XbP5d16d3ZJGT5aCGxi3B6d+QvUSpOgS7g/vMoR69MvvK60NxWFsiGCU+0AOH8zbUiDyAz9Q1H9/UMKZbfw4RJm2hIjPdueOZqz5/vyitDwSr/HkV9PohRde4OPmgntGMIUBPxpas2JZo3wcHEOjKteMeLp74xo1cEzlLMuiJr3y387Vk1wbdyAHseyydXShiAwbqtb2EfKpadwxpyAkJIRWr17NP+TKlSupqZctR7Lw2T5+JF++UAfiPfE+Xl36cAQru9GDVLVOvsq8CssDMtBZW1f8tskv/Ewdukl9jMKCA2n/969Ql1puPPFxv1vzh8il94dUqbquk/bO6Ke5hq8wggFxTNxxWSevBSUCaMoGkgFAIH+di+ALoyKtCTEsKO7hPrwGkv4qVZJcFOYCsyAYUwHS+ffff3mpg2VYvFh+NXaWfgCTrR5xs3f3Ie+H+5GdeyXKqdqQKtVrKj/AOOCZh9ceVheiWjXCzzLhIXfH6PsKU9W1YXth5TxBSXbuVKPNQ2RnwX2GKxqibl2k+EVf8DYiQd3HraEGDSTtZoyB+V8O0s3eFWPLzsWDKvd+hzIr1SOnxDBBAFP4fkMEo0SrAO/uA6hSj5coMyKAki4fpMSzYhkmngf/DXRp3nrrLbauGzeWqqbTg25Q8NxPmLxAMA5d+3GembnBogjGEOBT+fjjj3nZhYgQ9nt6p2rKF0zy92BguHmTZ/te7GdJzHMkpyq1qVKN2oWWKfz333/sVAsKChLvmSbeM61wwhHA+1Tp8z6lOHqJ96hDlarVpLJucaui7KDotgC3qCo9/sPfOpYGxp7L7YP0bof8boyGgJ7VCD5oQ/HzGAKIBcSR4FKNVq1aRe3atZPvEeQSeI0lPZWIEiwbRFXd3MwvA93iCcYY8LXQiP6nn36iu3fvkmd6NLWU/czFsXZs7Z2o5htjKLtyffKsXE2+0zBAcj/++CNH2WrYpVMDhxTqUseryPey96xC7gNGkWedB8jJVS1TMCfERkdR7LQ32FIAoLviOmA0Vamtu/z9/vvvydnvBEUF+dGI7vkdKgCQxQebbvL40EbEml8p8dwueU96HIDlzumgeHryySe5VEABdHrTbp+lkMXfsXUDckHPa39//wL+RHOB1RKMIUDq8MUXX+T/AL56u1qe1LqKE6UmJlDnuoIMjGUKC7JBsp5zvVZU+anBlOFenVzcPAolBFyxXnvtNc6jaOZtR+2rufAg0R+AGuA97B2p+oCRlFOrBXlUqqIuqcwAvpfOUO7q0ZoETfxO5ys/RC9/PraA9Yl8rI8++oj9hy0q2fMYw82mZtMCMqwBvnfo7b69KE0s9++m2HCkCo0D+/TpQ7NmzZIfJSEnJYH8J78uKRqI11PIJSAgwOz8LtqoUARTFHAqoH1qF+VHnWq7s4/FqFMXUKwcRJMG/khVmrYrsvIbA++bb76hK3s3UufaHpQrlnUj8B5Gfgan2k2p5rDfOBmxLKvKVRQfo57vTENba12AxG/v9cF8qlqngdFl7tmzZ+n69eucN1YiiHERJ8ugKECm+ZXoDJNrAe8nVIIxApizsEAGDBjAPYNhdeBUGV1ewfqwcyBbZ1fOkbFt25u86jcnJxddCUVtwGmtLKvOb19DHWu6Gvbh8Gvbc5TKrWV3qtbvC9Vvcx8AH9+epX9Soxv5zdL4AuPgTM4NWlOtIRPFrhzJLC3EWIN0RGaEv7Ba0nkfS6i3lp+jXr160bZt2zQi4OYMlWBMBBKYUJaAqwYyg89tW8XJg0WFzbHkgcwF/CzVB00gByfjfYoRmYDYONrUNk29bdyCEq9r7+HDIfiqb4wlJ3cjyzoV5QIuyP3qtYJLXfwu7pXI1tWTLzburXtQdq1WlBobQZ4NW5NPjdryA0lYrtJyy1ZcOABUSEOoCtEhFORyfZ88NRWHL/wy8O917drVrGQxC4NKMKUAitNu3rzJ5RMuCcFMNDidheXKwElo5+LJIezrzo3oydfeM3rVQ8sMNPKPunycJS2MRahg3SD65VClLnn3+ahQq0lF2QDWzJEjR+i/ccOpfTUn4xcZGSiQ/NPPiZ+TFBtFkTOGaELUxqAQC7SX0LrkvffeK7QY0hyhEkwZAhYI1tsIW1+8eJGSj6ym7KzMQgkHcGnQlmIrN6O2A97nfUNAEhXK86Gk5nxjr+S7MeIsRg0XkgztegxSk/3uAfbu3UuXLl2igI1zuIoaVi2gTTrK8gYZ7XD03/3hGZ2yFCWCBELBBedcaBL9+uuv1KxZM3rmmWfE9cgyl8QqwZQzYE4fOHCApk6dSq81zxfWMnjFEwPLrWkXtkRuZntRl979jFojaO6F5lsHV/1FnWq5GX1NWxcP8mjbUyzTqpPnIy+RvYP5CEJbG0AekNhEJjic+aFXTtOn9SXhexDIkFUX2e8G3P3pea4tAqEgLD1w4EBq2rQp1axZk5577jmNRISlQyWYe4zbt2/zIESo3ObyTspMSy00bO3W/EFKqtmWHni8v9GQNdqs4DVBZvZX91B6arLh1xSvB83j9FptqF6XJ+SDKsoTsfuXU8yuv5hg3ll7hX15gP/UQZQVE8Lk8vas9TqJdNYElWDuM7D0QTJgwt3LVCk5yLhqnyAH74deZB9OuI0XNW7bheyMRBGQ1fnzzz9TjdjrFBXsb5RsfHq+RimV6lPtjo+p+TblhMSzOyli7eQCFkzg7A8pI+QWE8znS/ZqShCsDSrBmBkQJcByqkd1Wwq8fomGP1xPvkcPgiDcW/Wg3JZPkGutxgWK7BRAE+evv/6im8f3kW3wZfqgW+2COTf8Wo9QSqtnqXG7rmK3jEKtKljQO3L9b0wwg1de0AicQWgKglMgmOELt/PyyBqhEoyZY+LEiXRx72aqnhUl+VmMWDcIWVd/+WuKSsvjcKgxnZzFixdT8K5/KSokQLJsDJBN5afepsxGXalG/QfkgypKipg9/1Ds3iUFCAZNC9FXDATz0YJt7Mw1B+RmZ1FKTDi5VqlVJqFwlWAsCKitQuJf30YulBwXY9x3IwDnbqV3Z5N39ZpGM4CR1n7mn18pPjKchnevX4BsWF/5pW+4bMG7qtQDS0XxkHBiE0VummmAYASJRwawkxcE07x5cz5+L5GRnEC22ekczcoI96WYXYvEZ/LncbDO66kykd5UCcaCgUrei7vWUYfqLoX6bmq+OZacGnciO0EYxnSGIS269/evuArdGHFVevQV8npyMDmUQEO5ogKyCxFrpzDBQHYBS1ZA2wfz4fyt5UcwYnrnCKvElqRpnhZwlcKWjaXcdN3CS31MjX1Ao/ZYGqgEY+HAz4fsYpQcQDOkZYYvH9PJvZF9KkjIc6rVhOp+qFtIpwBhVujsjBo1imwubjOcSSxeCyULnp16U5Xnhotd1V9TGLQJ5u01lzVtSQJnvc9N8MuDYLITY1iHBrIOlJsjlj35WcGa/1rAZ1OgpDr8Ht+U/vzzT94uDYpFMFDQitwwjU1nW1cvHrCQp0SFMSISDlXyU6FV3B/g54Q41oYNG+jWqt/5mCGygb6xR4enqPJThgWiYcojUxkSpwemj+TEPkNkA61k57othJX0k3xQhTa0CUYnTD3lTcqKDSvVEglh7oST/3H/JZQWgFjyciQLqTAiwXsqQPkBkviQfzO1d0PqWFWKTC5z6sHRzdKiWASDeD7i+kYhD16oeoFs7D2rUrUXP9M05lZxbwGSQDXv6dOnyW/jHG63a4hsUD/jWL0BVXntJ4PyE7COEN3CgOvqGGVQ4wY1V8gerjHoF7XqWwvGlkh+v75O2fERJjl5IRORfOkAvxa6CGQnRlOWeG5hJILWstrbsDThtEVW8HfffceiWWh7W6VKFXJxceHHAf5T3xLEFUrLnR+lMWPGyEdLjmIRTNyBFRS9cyFvc0qzYD5ENvBFDWamKpAHMkNsO1SqQY5V6ohB6UQ2Yj3v2ekZcm3UXvdxKsocaN8LXwssG/zsBi0bn5pcDV75f8MN5sZA9vHQoUO0ceNG8vQ9XJBsxOs41WjEPa98+n5a4f012gSj7eRVCAY1So+MXUENGks9sTGX0oNvUNzhtZSbnsRqeix2VQiZKBbJ2ZBE1oZBL+vevXszcTzwwAOcYwO1uyKXs+I9lB5Lf+V14Tq40qJYBJN89TCFLZXMJjQtg1A3GoGj/gYC2WhbEnvzLDVyTOPH4KVNUo8DxJeHoJM9yKdafa4WRudIj7aPkUP1hmSr1XxcRekAXwsatkNeNPX0FooJCzJs2Yjlj1uzbhRZoz21frhg5i/8NShXiA24Sf57V9NHD+qlt4sLkGfH3uTc8y3yqlJdPlixYNSCkbtEAnbu3uTeuidXUmeE3jKJTC6Ep1CbNm2ob9++vLyB+l2jRo34PpMg3iP1zllKuXVamLrZPFclC0ny13x2yVnTObI0KBbBaDe/7zDrZAEJQAUYwOgzDdMcqfHYR3ap/6l9FBsTrVHoLw75KP+hveFUsxG3J8GV0rXlI2oHxlICpQZw6KWd20Hh/rcN+lpsbARZdP0fJdZ/kB5o302+Ix/wLaARe/yhVdSmsj3pRLTE82EZebR7knKaPUrV6hVjIlg44COJ3DidCeLjbb4a4e+7Y/5HuZmSbrQ+8FhliQP/SFieOxMJljNQvXvnnXd4eWMSxDzLCL0tyOQcq+EhcpVy86R8p4CR6f/FFVfWnC4tikUwStozMPdUKP229zpvFxdoyLZmzRomHdTkwALqWK8KOTo7Ua28REqKjzFt6QXIg9+5fivObEXLEOemXcnBWZUsKAkg67h06VKqnxZIQbeuGCYbYWkGejShqt1foDaPPCXfIQHDady4cZQdHUzpN0/QsI5VdQexeD4a16W3fpYatOogH7ROYDIHQfk/O4vJ4vNdgWw1AkobWG3LBEuY82HJ1KVLF65N6t69O0uumhKpg+ZMtt95fq+suAi2RnJSE/LPvZFprry/vs9m2bJlmta0pUGxCCZm92KK3fevtCO+NFp/uNRvI75IIiu5oc2qrb0jZXtUI4/qdUusuoaPhO516E2EKyP2nVMiqUpaGJ8o7BcY+NrQ+kFw5azU4xXK8KpFVZt1MOnHUiEBS97333+fGiTdotREcQU2QDaVHn2V7Dr0MVqqMG3aNMq6vI9qZYaRfp4OiKryU0MpqUZrqte8jXzUQiHGJISiMsLuUMLxzZTqd0Ga1LgJYPJ+dyiSpTyAL4a+StP/WU0eHh68vOnQoQN99tlnvF8U8nJyxPIqmjLD/XiZFbVphlE/jQJtIgMwD3xT7ahz587s8G3SpAmNHTuWHB3Lttq+eAQj99otEpjE4gZVL6caDaXlDISW3CtRSo4t2Qorw6d67RIREFo4LFy4kMvhkVPQppY3NfW2o5jQQOpU25MMJpspwGcSBIjPUvnJQZTu6EletRsZLRpUkY99+/bRL7/8Qo9VzaXXG+s5f+Xz6tGmJ6W1fJrqtYA2se5vC3N7y5K5VCk1jN5p51NgMqA7Zk6PIVSnSSuLKLzMzkij7Ag/8TVyKWb7AkoLvFrgO+lbJxP+XkNPPGF6FXtWWgolhgWQm50gr/hIrmmCjwTvyTAwdfGesEBOBSWQo5MTJblW1zh48Zvg/SFeda/0ZYpFMMiLeL//0xQfE0OdIYqt9VST/SmA+LLKfyxv0HTKq+tzlG3rQM7eVfhklARQWEeyWTXbVKprk8i5G0a1V7Qh3g9RLaj5Zzl7ce9rV0/vEn8OawfEtDZN/FSQelDBrF/8poJsKn04jyrXNKxpguJL/60LqZlrFhm6ILg+0JGcnhlBlWvVM5vfAJM6JzGGrfWwf39ka8UQMMEVQvFLsydvb2nsQeYSTQONgV8/IZq7B0Ssn8qp+0wgRqanQl7K0gbv55/uwO/39ddf09tvv833328Ui2D0cfXqVY6pQxQ7LS2NCQe3DrU8OBzXqZakzG/SJAcwmDBABemQMJ+d6zRjiQIkcuXYY/nlQLni04J97Rwci2RhaOj269ePZS3b1XSnjjXcxOfKNl40qA3xOZCxiiZprm0e56WfaukUxFNPPUXtKIzaV3fWPafy74hwddaj71DD1h3Fvi5ZQDRr5KD+1KaKAw1/uGAtFF4jt/9Yatyuy70XyhKfBU5R+DTClo6hNP9LBie7QigYi1djMlmI+9NPP+U+SYWNT1hAlJHCxZBJ5/eIeZJtlFD0yQQSmrBKkNdSrZrUmK19+/b8GHNDqQjGGBA1wg0kg/8IZ8JZBWnBznWkQagQjiF5QYPQGpwYuMgmdq7bkmoPmyIfLRz4mtDiwGdC1AS9a+Dj+eghSQ6hUAsMkwXJY+LmWKUu1Rg2lRxdi14rVxTgN4Zc6IhX+7KmjSFfDci61meLycW7YPQDfrYJEyZQkztbDP4GyBiHaHqV92YZrRIvK0BlDo5ZJJtpC28rUAgFULJgp0+fTsOGDeOe0UVZXPHHN1HMjvma/kb6UMhEeQ+QCl4ToeiRI0eyLi/eE9EkS0C5EExRQO0MhJbQyBsVm9CaVWo0MNG71PHkbaDIpZc4+Uh7Fwt39umAANx6vUOeNU3TosXgjoiIoJ07d9KIESM4T0F5T5wao85k8b4Y9LbO7uTZ/xuqVE9OlKrgwO+KSVAn6oLu+ZMnHs6ZnbsPVRk8kVw98i0eOC59x/Wj3PSCvX6USffHsQBatvdU8fI9igAiObF7hRVxYR9lJUSCLeV7JCiEgkkOQqlXrx4tWLCAWrRowQLchREKljnoFACywtKKCwy1ppvyvbQtE1glHTt25JbEcPiCWCylg4Ah3BeCKQrR0dFcTwNrAxMe/YnQrMwpLlAz8YuyOHBzrFyHbF3cxaZg/HotyPvJwWTvlJ8WrQ+8rtI/GKYuiAdtRLCe7VtP/MjifqMSCeL94MR2qFSdfAb+QG6VK2ZimQJYNciFwu+4ddKn9E5bve6DuArXasKWKJAZHcKtO5QJqH0lx8SuX78+54JMnjyZLYXSADV1Cae2sOATlkDawPtqT3g0m//nn3/4P5YjxgAfSvyRdZyMmh0fyen8yndRoP2dQExYUkFcDCFpLHlatmxp0WRiCGZJMIUBV0i084CjEU4zZBDz+l2gSF+P+FFhbiOqhYQ99CvKadSNfBq3Jkdn48SjAIV/sLbQKG1oe6nZuTHCQRYy/A/ISHZ7YgiH7SsqMMSgPXN8/lhKSYgzes6UCYj6HEzuTz75hNPeH3vssVJPvDS/ixwBTbsrLCuEdGVovyeIDOFaXMxQG/TQQw8xERgCfCgJB5ZTZlQQ1wUhma0oQsHr9+jRg2U24DMBaVk7LI5gjAHEg2UOfAHoehd5+ZgmY7jQnBlAHkQgBTiUI93qUNv+HxTp1MXyCu+Fm9utA3wVK8zCwVIO4VjcPDs/K99RsXDy5EkunAzc/CcNf6ieziTEBHz++efplVdeMTnBzBiUpU92QjQlXzlMuZlS+QqA98T7wZdxPS6bBg0aRN26dePEMmPvCd9M3MEVlJ0URynXj0vWlh60vwtwKTKNfTOwUJDWj/eoaLAagjEG1NwgfI0G9DHXTlK7qpJ5bYq1g+pgZAiHJmdT7W7PkE/NOvKdhgHFOTiO0flxYBMpk9go4QjYe1cjzw5Pcf2VW/teFaqlCMh5ypQptGPHDl4Sv/zyyzRkyJBSXdWR5JZ666ywKgIo8dwuHYtCIZXLUelsobRt25ZeeOEFo5GerPRUyrhzRrymr3itnYKoooq0UBAmxnLay8uLicXkdH4rhtUTjCEgXRuFmihRCLt8nGrlxLKlU2QkycaWXJt1JdcmXSjWvQ41atNJvrMg4IPA8m358uV09+5dqhZ2lrIzMwolHDs3b6rU8xVKqdGa6jRpKR9VYQzQQ0FdTcLJLYJUAg0SgGIZgVD69+/Py1tjSL19htIDr1PsgWUFfDOAQihYTsF/gob28NXBQhk6dKhRsqrIqJAEYwjI6YHDDfVR2aG3qLmHFE0ojBBQGlHthU94aRVj50W1GjcvVJ4A0TO0mb18+TI95BLHXR+NvT58RUijT6/ckKq37CwGr3U5/0oDkErsvqWSYpsWtAngZkIuPf300+xHgS/H0OTPEec/w/8y1+xE/TebIz36Vg8AkoIUAmqE0BANmirmkshm7lAJphDAAvn888+5JqebIIRCm6TJYNLp9znFOlahes3bFlrpjeRELBP2799PPatkU1xkmPT6+j+JsJ5cGrajyr0GU7KDF1WpbT4ZrvcCmPiZEX6UdHEfJZzaWoAEQCjA3RRbDh9/9dVXHHEyBJBKZvANitw4jVX99aFYPfjdYh18NFIISK9XUXyoBFMMwG+A4j9UHP+vto1kgcCBbOwUiqsm9FAqPTqQ4tOyuSDQwanwBClUMvtvW0TRoYHsBDUGn8dep9xWvahyzTrWKVchzinyR6K2zmGZEG0opOLi6kYJzlVYHhRhbGPISY5nEaX4o+s4PK3/eymvh37Q8AGNHz+el1MqSg+VYEoJlEqg+HJIh+osSVmU8xjLKZ8n3yLnDs+wPGVhSx84qFfOnEAtK9lR++ouZLC8QVgyiHxVem0suXp6WfRSKi8rQxBBMoUtHystf7SGpkIC8Keg3gZyAliqGAKS9qAGF7JwJGUIy8cQoQB4vWuxWeyURWQLSXQqyhYqwZQRcBpRigDnLnIcnqoiiTsbdBzLyxuUH7i1eJhqvP4DO5CNAa8J/02dOnVoSLsqhkkMTmjxei4N2lLNIRMsTgEQQmYpt05JZCAPSWW5Av8HtFGQhoB8GDhWjSFi3VRKOr+7gHyB8loASOrBBx+k3bt3s1RBRVpu3muoBFNOACEgKxh1TxBPrhx4nEmoAOEoZGNnT3auXoIgWlP1V783OujhD0Kuz5EjR+js3+MoIy3VYO0PpDIgxVjztR/IuZ75RaSQpwKlN8g25iTF8j6gWCpItOvZsyf9/fffVLt2bbI3IuEApTa06MhFKj7qewBxnhUrBaSCzFxYPQiJN2zYsNCMXBVlC5Vg7iGuXLnCMqPQVWmcKKkBGiIHwKFybVboq9z7nUKvsChlwG3DT+9x0zRDSYWwbOx9anJWsc+rY1iK4n4BoeWwFYIYtTJfQQYgAWiYIDkN5Akr0FjYF0lvYct/poygG5SjVd+jvA7+w0pBsh6c9HD8IhVfxb2HSjD3Cagwx0RCktnGBdOpZo4kE2rIukGBoHPtpkTt+1DNNg/yMUM4cOAAK6ad2rmBbIMuGWwvgtfE6zmJ1/N47lPyqFT+yWBJF/ZyBAii1toyjiACWBiwVqCmBjGkhx9+mO/TBjKkI9f/zm1NM4Jv8b58h+Y1gOwqDdknVr16dU7JV3H/oRKMmQA/AxyNIImoXYt435h1497qEda1dW/9KO8bA1To/P39KWDb3xSvhMD1AHU/pzrNKNC9MXV68vmyi0jl5lL42smCXPZoCAVQCAF+lS+//JIL/JDFC1+IIcCnAn1ZQ6+BqM/EiRPZ2kEoWfWlmB9UgjFD4CdB6BVLqqzz2ykhOsIo2aCCG+UGaY0eprrNWvMxQzh/8hhdnfUJGRPaQn+e2WLSTl26iR555BH5aPHA9TqHVvN/qOmznoqAQghYtiD7FQ7WDz74wOASKCs6hAklUyylUJnMxCJu2pZKmlcdThf48MMPjS6jVJgHVIKxAISEhNCsWbPo5pGdVNcmwWhkCj6WSj0GkmOrR8m1kq4jMz3oOgspwbJQoD3x0RIDyWnIAcESw1SARFKun+AIkLalgdcG4LC9k2zDdUZwdhsUtRbPQe0QllFw+uq/Bj7jjfgcJiWk+qv+lPJDJrpB+F+maJ9mZaK7UyyCwdo34toZ7swIvVQV9x7wscBfAWdxK4qgqJAAg9YN8m2qPPse/4c2CYSPtCcuJr5jvVYseTl69OhiWQIYB6goRnUx/CrK6wLKa4MQsGyBZCmsFn2k+V6grIQoSji+kdJD5GZjWp8PpHIxIpU/HyQU0HNJRdkhG8WcAZdZ4AuJiHGHVkkaNjK+veXNTfVKi2IRTPzR9RS15Q9pRwxiRCdsHJzZAenZ5Vk214HkbBtyr9VQR7FMRfkAPx+u6s5+Jygy0LfQUgZl4qJQD/4eFOkVFygqDPn7W257qkB5XVQqY3k1Y8YMjtzoA83ekfIfvnKCjnwCoLwGokhw0KLdSatWreR7VZQUXBoReostTQhhodQC1iyjkKn/5VU3bh1UWhSLYExuW6IAV1JBQJ6dnyGvrv8T+9JVMj2HyLlSVXJUm6OVKeC3wTKkrlMWPeCSyVEpABMXy6CmTZuyJgkU2ooD5KggbT96xwJhuRyTj+ZbK1DPR0gY2rT6yEpNppzYEEFK3xiUjMRnQxQJAk9YRkERX0XJABGsvJR4zohGThDanGQo3QkMAOcfwNi4EptDH/dqS61cU/nxSx0fYUu5tCgWwcCMYlNbAANLQZd6wnIRL1PAL1AYZCclwJXDT79Nnu17UTYJEkLvIheVfEoDyI3CZ4F+RM8++yxrvBYXOalIt/9KDNK7mkGqkMqtxDwWnkYzfUOWUG5aMlu7ied3GyQV9FZGwhsKPdGgXUXxkJudRXnCCszLTOcsaC6JAIxMZ20ywTYsRfjDoCu8fv16TkAEAn4fylbqcudH+WJVWhSLYJA1GfLXSN5u9ut+VidDZzjIHCD/ACntAJyQgEI4eItCtVa0oRAPlmDiD61gFfIhNWJwzwCLQ9/hCmJAeBlV5g0aGF6K4erpO/6l/CWQeL7yXADPh9Tpq6++Kn5iNaxcXGQnxVDQH8Pz/SUGpq9CJso5B6nAx4aaq1GjRrFkCGDo/AfMGMYdI+8LwXAkYs4I3m79+xGWG9B2DkKgGxXHAGpGQDjoFqC0C5k9ezbLE3Ss5SGRjlbI1CQCAunY2nFjNKTCe3bpQ5V6vMyOTBWlhPg9orfN5UhONuQg5YuFQg5YxsyfP58dtoZEt5MvH6TIzbMKCHfjufDNoDdVpUqVyN3dne9TUTRAIujJhF7TKIXgBEOt6aoQiZK9rGyDOEAm0I+Gfg3KJEwhczh8fcf15yXxvw7d6eeff5bvKTmKRTDIyAxfNYG3TwUnUt+ZO0qcCYq3hbIclPuxDUlLpNBDiR69kxTyKQ7xQILS1tGVxbyrvvwdObiqg7lICCIJXvglpQVcKUAqSvgaNTxYBukLb8NaCRZLqEyxzs8Vpjqg/dyqVavSpk2buKuhmq9SNBLP7uRASnZCJMtLaJMJoJAIzi8IA4mGcKqjpxRC97AqTeltrQBEkuZ7kWL2LOYlbWZ0kOY9R5yz5+LS0qJYBIMPErs3v/k9ivOgnI8Tkp0YQ/Yelcm+UnXugpjX9hmq1fYhflxxoVg86D8NWctTp06x5dPINYeJBx9ZfxlmEPiMbt7kVL0h2bq4kWfnPuTapLMgI3Wwxx9bTynXjnPHQu1CQwze4GwXWrx4MctMGsqJid33L6XcOEnpwfkhauW5GPSQUkChYnHyaSoUxDlL9b3AIXo4YyFNgeREQ4SiXVsFEoFAOTotIMJWmAaODsSFI/7ERkq9dVp6v6AbUhKkgamvkNif/s4caSwtikcwu/6i2P3L5T0TgAnu4kGuTbvwkgb73KXPqxqledflxvNuVQtvXqUPLMvQIRKVymgNi3T45DsXqGNNaZlUpJi3AD6Dc53mZO9Tg6Ncdm2fpsqNrT8kiuVL1H9/UNLlAzrWCgYxHLeoWEZTscGDB/N92sCVLv7EJim7Vu+5KFIEsWAJhUiQCj2IKYZERCwjcR4N9bVWJrZincAJDoJG8iPIGgLlhclUAPh9E05to6zYUPEb5XBLlfSQm5rfSx/674mlrIuLC1ubEK9Hu5jSolgEA/Fq5FzExcVRs6rudObYYZ7YykuYZFXoQ3wxTHK3lg9zER4QmmZDDzw1sFh5NCCe8PBwLiBEsy8sucIuHpG6CIjPV5TUJQDiQY0Pllo5zR+janULViZbItIDrlK8uFomXdqvuWphcGFgwbeCpSlIBbII2sCaHGkJiATlJMcVeC4GJKQkkfr/+OOP830qxGkS1neCIGN0IoCQeGGiVziPsE5QTwUVPfwGiph4YYDERfzJzRxFglB5WuBV6Q699wGU91KsIZBJWJ4714DVqFGDfTTQGC6PZWyxCMYQQDYIgcKXAqcuMkwvXbrErUIaOGdTp1pu4jtLb1FcAsKER5M06NHaiBNuY2NH0Zm2ZF+9AdVt0srkZvT4jGglAtKJVlqXiM9UpLUjfgjHavXJs8PTFCXet2q7R6hStZryneYPhJmjNs+gpIuCWGRggMFaCchwpDfeeIN++umnAo7XjHA/Sjy9lS0W7aufQiy3k4iFtBFlKI71ac1AF4Kki3spze8ytzkxRCiKtYcsZ/ilkIwIETEUfRY2uZEsl373HGVFB7PjF10UcrPSCyUTxSrBe0GsHGn/cPwiMxq3e4VSE4wpQA9qWBXojHjo0CGOLEE4KdX/CrXwzNMhIJOtH1g+Tq5cUexSvxUlkDPVat+D7IwIE+kDFg+kLuHfyYn0o6rpwmwVn6NIUW97R9bDdahSh+wbdyYXd/Nrgo88BkSDNP4yAZAKbmhqhromQz170oNvUszuRbxWV6CQCq6ySNLDxECmbkUHfI4od0B2LKw8Q5nJAM45lo/ocABrYdy4cfy/MOThQn3lkLBSYihmzxLKzUgpkkyAeOeqbAkhPwkXDfzO99u5fk8Ipihgsh87dowFr+FXQbjbMyOW6tsli/Oaa5JfhSFIx6PtY+TZ6RmxbUuJGdnkJIjAW1gdplxp4VSGqYh6n0e9U7mLgCnvDckDnycHUViGHTVo3bHQ1iXlCWRtxooByX4SGRh8iy5E0cCBA+mvv/6Sj+YDVk5GyC32r2lqggQweDE5kFAHU3ru3LkV2lpBYlumOD+ZsaEUtXFGAUIBlHNmb+9Aia7V2DpB3klh1elYTmWE3hIkksZROTjfU++eN0ooihUUZefNCYogE3RRMFf9G7MgmMIA8kG2qNKhsUklR6qVG8ssr6TCF0k+YmLYuXlRpUcGEjXsQLn2ziYVayKnB0srNE+r7ZhFDRykK0nRVo4DVX/5W8qq1oR8auj6NcoDaL8RtuwnTfMxZaAjqQ3+EeRD6F/JUDUbtWmGzmBWnheY6cS+AIQ/76U5bW5AESBCt6H/fC+VOehBe8KfD0vmyA56cCM7tjDg3GeE3qGI1RM1ETx94LUB/B7unl4UZePBaQLwlWF5ailkb/YEYwzw98Chi/D12bNnqYWPI7X2sRNzxcSsYfEDuTV/kBunZeWJ5yGy5OYuJmLhgktY3g0fPpxzQ15t4SV1EsD7GdFZUd6nUt/PKNfGjlw8oPxfNmYrHH3IYVH6+ygE4Ztqx2HmPn368HFtYNIETH+ngLIcngdZhTVr1lRsh60YV9nJ4rzO/5zrr7ShPemRao/EwU6dOrFuMPKFDEKc45yUBPEvh5eshtqmANqvDbLCEha5R/g9LDk50WIJxhig4IZm9N9//z0187LVJOwVZ5kFQqjcfyQ5unmadKVAwiCu9me2rOSoWqGEI4DQvf2bv1G9RiXrw4y8I/+pg/MFnWSxKESEVq1aRQMGDODjOhA/s9/kNwpUQWNA43nItC1NX2iLhjg3KIsIXTxK6kagBeUcAfBDIeKCIIZ+xE0H8pSKO7iSosXS0xihKNYPXhfAcgd1Qb179+Z9a4DVEYw2kKyHfBl8RQhjQwENTl1t/RRDItkMQSzIDoYERZ13f2MRblMArd2xn31AbVKuGiQ0+ERwg9OvuJmSKNUIWfSdpioZgxSvhZyJixcvcqTA0VGvgb64IsNigdi2MnmU52FgwwL87LPPCmTpVgQg/I7i3VxYGFrEon1+sMTcuHEjW53IkjVUJqEAEZ7AWR/kp/UD8vRSXhMAseB8o1oZynwgLWNdEywdVk0wxoCIFkLXWO6gBQi0R+pGX+T7CiyvtCwY9C6y86xMtk5ugnBqUfVXRpOdAYdu4pntFLH+N50rFwbXH8cCaM6cOfTcc88VfgXUA14LkR3kVQDKYIUgEwpODVUzQ3clbNlYXu8zxGfBc3BDMhUSFKGH6+npKd1fAQBCiTu4is+jdmQG5xPAucHk9/HxYSu4devWRtXz4DtR6oRQ1Qxy0e7FpP+a8Mts3bqVXxu/fUUh9ApJMIaA03Du3DkOn6Mh14GVC6hLHWnyGbRyZOJBkqBz/Vbk8/gbbO2giXqa30XOiwAUMkA+AuqsMMBMgvg8of+MotTbZwtYHghH/vnnnxyd0LdYkq8dFWv9JZQRJkksKM/B1RhXTCRxKaX5FQFwYuN8IB1f26GqTQBYIiISg6UJSNdYGFnJhM6MDJB0VgCt6aOcawCk8s4773BmM8L7RSXOWStUgikEqIPC0gPRJFSCP+wSy0RUmJXD0JrYUI+DPAGkI00BBnHkplmUcvWwDrEoTljU+RRYo4v3g/YKcl/QKF77/THQYTWhhqWiaNkmXTrAwljIYM6Cz0ke4so5gV8NjlQ469Em5fnnnze49AEhQWQrOzaMU/01BKX3egAIHKJZSD4EoVQkEi8MKsEUE3CG7tmzh0ln97J51MRVslQUKwcDDjes2SdPnsxZmiYhN5ciNvxeQDgbxBKa68YJWiAJbaBADpEJZNwqxWvKoMfy6ddff6V3333XaEsQawIa5KfcOC6WpzsKWCoKqbg1bs9Ej7yewgox4w6vptSbp7ggUfktALwWgNcDoSC1H72cXn31VdMt0woGlWBKCSTnYbkCnw7ydDDQatasyQlWpoaj449votg9iyXrQ0AhFs+mnTjxDwNYG7g6Q1s15ebJAldTlADAafvtt9/ycWtGRtgdSrqwjwlBnwi0SaBNmzbsTDW29Enzu8RyFagbSvO/LL2W3nkFQeVWa8wFgEigQy6KiqKhEsx9BMrmgxd8wRmcgEIs12KzmLRQK6QNTAToIrN2i94EwFIMerYoRrV2oCoZGa9p/uI8yFDOA5ILX3zxRU6ZR6qCMSDFH6HpqG3zjGoFI9cFWsO4VeSEw9JAJZj7AKTnozEZ0vMBDGhEmFI9a3OSm754NpyK6MWM//rEgqQ6aO5CyNtSsjuLCywF4U/h7OOtc3g5CeAcwMeEXBIIj8PpjQRDQ6JLmSmJlB1yk61EROX09VCU8wmHL6wU5BJ99NFH8r0qSgqVYO4hkBkKsSY0GQOUQR3rWJnmzZvH63ltQC4hauufOn4ZPB5WDtLS4d+xVv0VfHecr5i9S9i3ok8GOAchOa4c9UFymiEHNnr/5MSEUPjqCayNov8agGKpYBkFC/Cll17i4yrKBirB3AMg7yJ44ZfcFhVQJsjdFFsuWDt+XEwgLeDqGn9kHUXv/lvnaj1oxXnWWEVVujU6FVH4l50UzcLyyrlSoJwzJBXCl4KMZURr9JEWH0PZfucpcuM0Vm8zRCrKMhTp+DNnzuQokorygUow5QlBDn5T3tRJz8fg/vNEEGvT4OqrA/FTQMIyeMGXmomhTCxcZaG1U1Z1TOYERH0iN07XsdQAfHdl2YJsV9ScGe1mIF7Db8LLGke5AuU10NT/UkQqy1Wgqtxal5PmBpVgygnwr8QdXqNJuMMgxw0OyBUrVnDdiTYgqA5Vfv0yAEwu9IseOXKk1WV/wrntN/l1LgbUJlT4VfAf3/23337jULuxHB5k5sYdWqkjkq2cO5AIIknIHYL0ZEUI15sbVIIpY0AYHYpjSvsODHZYIGledbjXr6EmY9yLJsJfh1gwMdCUDAJPSO23GojvGL5yHEfQDCXBQZwJZArfEmqrDNXoQH0ffbHho9FORgTwGogkoc4LxZvGLB4V9wbFIhikrYctHyuuDLbkULUO2dg7sc6Kg09NVpWzr9uKnNxN19G1JiB0HLluquRMFFAmTJJbDb6CdujQgY8rwOSKXDuFUv0u8lJKeTwmB6QgEE2yKotFDLPQf3/gmiolEU6bTBEKhpPVUF0VK7xd3EcJZ7Zzwad2BEh5DVg7WHKiST7El/QtRBWmAb8N0gBsHuhWJjIRxSIY1HTE7Cm6rzG0dB2rNeD+RGiOb2OLDo2Vya15N8rzrk1OHl5k72gdAwCaLOFrJnHXS20LBESB8gK0b9UGpBBj9y3V9AxWHo9WIZA4hHq8NRELCgyTzu/hJDYF+M6w6pAUiO9sLFUfRaPxxzZozpUC7XP8+eefc3gaBaQVpYCwrABtoLgjayg7Lpz7WqUFXNUs0T+96MQFn6VFsQgm4fQ2bqgN4AfuWl+KZBSmfVIYuEujkys51W1OjlXqcMfGvIadqXKjVmbfuwhMj06IijC2MmmgtI88FmTgag94+Bmi/pvFdTLaxIIrLyaZteVcQKc2/shanexk5fs++eSTnFlrSLcGfhkkE6Jok9t7yMNTeT78Ksh5gVg5fDPWKnNQ1sB4TRdWdsr145SdHMdWimJJGsJz64O5LKa0KBbB4EMh4QtAb2rU2iB/4MSJE6y3cubMGfJIiaDs7CwuBlReurjdBBTYe1cnz/ZPko2jC9kKiwfVylleNcm7bhOOCtwP5KYlUQzqf46u431l4Mc5VeGrKTRntAFpRDxWuwk8Hj/3ZDAXxiGl3xquvLgCJp3bxbIFSN3XryaHtTF69Ghuc2KIFGDhID8IBZvapALg+ZDxhDX48ccfq3U/RQCJiSASSElkxYXx72KMTHCOFac66umUOToxoj4r9ZUWxSIY1jlZN5W320w7SunpUrtQQ8B98CVADxbbkLiMiYmRehRnxlBmRobmy0ABDoOqWAQkrmR2rp7c0sS1aWcc4KtbVEomObp7UbUWXcjJtWyrh1GnErrkByYZAAN/3qkQjvKg3F8bqJNBISKuxNrEAisHCXUbNmwoVptPcwU6EcQdWKEjNK4MWmTYZvrU59DwN998I9+bD0hKsOD47sXc1F2bWBRSQi2RYvGoMABxzuDsTgu4zIEC9L9SyF0fCmFjDNrZ2VOMQyVO2ETtHKxBnpf/TWUrcplTD7YSS4tiEQz65kIWAJgjrsC/77le4qUM1OZCQkJY4vL27dusxYKOAhCByou4Sw+4SHKQgMlyl4UAfiH31j0op1lPqtb6wWLpc8AKid4xn53cACQq5xwLpLpdHueeUPrhTxQjhv77o86EeWv5OZ4oqHCGjqslAwlxqXfOsCQk6qMU4Hti8Ca712SH66RJkzgSpANxTlCkGb56koaoAeW5kKTo3r07K/5BTkGFLrJSkykz6Br7StBiRl83WIFCJiBqXHhhAWK1gYsaLGdsF4D4bRRZ1ftCMHDwwtHLEB/atVF7qvz022Jbl2RSMnP4/ixbB3J28yBnV3dydHEtUZJYdHQ0691C6hJWUCNPewoJ9Ke2VfIJgjVwQUBFfBWc7MUXo1lT1ZTwJbeROLGZfS2AMgmcG7ShAwcO8DEFmHTpwdcpZP4XBXRckNKObF1U4Vo0xPmFMzt08Xea7wgo3zPavhK3n6lWrZp8Tz4g2YnJELp0jKa4E8Bz8bvEOPiwJQhrR4Uu4ItCO9jwFeOl9AcDUM4jXAch2S4sR4GLKITfsTQtKrEQkTr4aJBxDp/i+LC6XNdVWhSLYBD9AGuWCOILQmrSq9vzHE3KcfOhbLIjr8rVysShi3oUrO+fqpJJwx/WbUmCkz945QVOckMuiimA1RI4+wMNaWECLTgTxn4WTARtYAAE/D5Ex++Ax6OnEPwGIEhLBpYvsN4i1k3hwQco3xGRICjqo6c19Gu1gUGLiRE0Z4RBawVp/5CSROW4NQldlwZwisOHguhk2IpxOlngCnD+AJxDEAesPlgmP//8MysWmoKs9FSxvk2izHA/LiBlS0iLCvqsDeSVRWlRLIJJSU6i3u2biOVNNnXVshjYhyJQ0mgSyMfBuzpV6/c5uQjrAMgVL50njmOtWBwCgsA1J60J4IcAqyPN/ujRo9SxY0c+XhjgDAue+wn7FgBFsd++Tgtuk6INXMXR20aJDAFvrbjAamnoGvnWW2/xMUsF8k38fxtisBMBBK2g+GfIEgTRokCRAwJaw0t5Ls7Pd999VyYmuKUDJEw5WSztid5WhvwnTChiLmAcoq3O5ag0at68OW3evJn9J4UB4uOwrm3Ef9RmYbym3Dwl31sQCnktjanKPtTSolgEA6DrIvwkAJ6KG5rOozna2rVr6caNGyyk3a661BRf23dSaL8icQILQByztXcU/wXBiJtHu8epWt9PSJxl+QG6CJzxrqbROIgFN/SVgeViSjgTWrohf33NJKNMBsghsGO6kkSiCpAoF/DbYH6s8n54PISmsMa1dA1W+JBSb56Uvp8Azge+I4gFy1U4B/WjX9BYAcFr+iaLG56nRCnwH9nJ8LFUVI1aBQiYoFIe59eQdASA841zhvP8xRdfsIWO82ZKEmHC6a1iaT9PXKlzmLQ0XQ4A+b203wdAwiMsIsxb1H3pJ4eWBMUmmOIAPhOQD1p5AFB8w4mCDwTQJ5xCCQjQIyH0F7J1cae8zHSO7QMnA+L4hEFkG45jU3r9IDsUCvHZwizFycfzoc/i6+tL9evXlx8lAUsnVpPHVV08Vpl4ro3a0erVq6lq1aryIy0TIYu+5Z7L2ss9fD/kr+Ai0qtXrwK+NJjzQdyoLERn8OJ5iAShawOS6XAui/IFWC3EeQlZ/B1lht2VxqrWtDNEKMhGRn4Ulp9F9rIWJMV6QeG+XLmv8Y8ZeA9tsgdZQf0QETpYQuVRq1WuBFMUsrOz6dq1a1wlnJKSwg5d5NSgR3UTD5yffAvIlFwa/EC4QX1s06ZNJtXwBP05guti8GPgxMMKgVTl/PnzC5j/4VgOXdireSzeC6yP3kIma++aISCABfM8PfCqhliUc4lBCP8KwsXaYXUM4nAxqLGURO6LdFA3gRBFnUims4Y8n+ICpBu962/KigpiH512GB5QzhOAcwXfCXKoUKtmtEukDJSlxO75h301GeF+kgUE6L2+NplgLrRt25Z1nWGZoCTjXhR/3leCKQoQ1oaqP8LZIKPTp0/TypUreb9zHS8dslFOJNLzTQlvsqLc3iU8EAD4Th5/7T167733CijCI4kscOa7lBUbxj8iBgaICH2rEfWw1MQvZNuidEG/xQkGPMzxZ555poDjFv2vo7bMkVL/5aGjPA9ki/A0nI14bkWrXmat5NPbWDCclyRGJjzOEyQ9Ed1BxA1LxsIirFh6YqyioyeXpAB6rw0ohIX3gdYNUiKgH4S8q/uV8WzWBFMY4AuCEyo4OJgtIFxdIR2pv6TRB0xItKJQMkbxoyw8G85XaX0NXPyYSHdHywpAWX6Fkwc3xMfAsDSgPxAmQdL53Tr+FRAmiAXZ2ejn4+Wl67CH5YYbnws9YoEeMAYzChYrVJatOA/IBYKUZ/LlA3whUqA96bFMRI0Zlpc4PxinxhreIdqGaG1uRhrnC7Hlo0DrvAN4bVSfQ4oCrw1rE21YWrRoYTZLUYslmOICCmnROxeIK7aUcapMDrvazZkstJdDuZlpFLFqopSFK6A8FnVGmIAjRozg45YEFAzCrE6+mh8Jw/cCsYAw8Z3gH9O/kqI8BBaLtomvnI/rcdlsMeq3U7FmZEYGstUHYTClwFWBcl4wuW8nCav4rbd4yQOLurAJz10NfC/yRS8zWlfaE8Drai93QCYgEkh5/O9//5MfZZ6oEAQD0xVOMG3/Apy4WPdCLFsbmIDhqyZoksHwWNzwWISeC+tNbI7AhIAVlnBmmw5BgFhsajZlB58hXV+EMuPEEiot8KrmeTgPeB4mDXwyEydONJsrZXkBIV5YJyDY2H3LpGpjLSjnEoSCfktIpoSejbFxkiusxoyAK/y7wBrUtJ7RmobahIKQPjLAEazAUgfn3ZJg1QQD52Xwgs85mQjADzZs3VU2KaHRoh0qzUmOo4i1UzRLAGXg2NZqxj2F9cPU5g7o0iDrOunSfs3gVb6TS8O27Jju3Bk1XFoQj8OAh3wlO27l8wBiQXga5w1JcVjfWzNgwabdvcDnTrv4EsD5AHAekV+FkobBgwcX2rkTSye0SAHRc98lwMBr4jxjyaP0XkIUqSw0We4nrJNgMFFunebezsokwYBAh8S7d+/qEAsmEvIFlImoTChkR2LgQMDIkgBHNIoPkQehQPn+WArNmDGD/QEKkOiVEXKTUq4do9hDK6WBr3Ue/NOldHNU1lqztYIMWkR8Yg+uNNjFABYFijdxDmHBFVZTlhobQbZJ0ZQRGcBlJiAs5bwqUM4vUvtT3Guy5jACDKZm4loKrI5g4CQL/utrrtIF8CNCGgENyfQbcSF7Egr2yg+Px2LpBG0WXD0sCQhVhsNvdOWQfCR/EKPQDcsZ/aUQIkKBsz4wWBuEMgf4DtCy1lqRk5lBOQmRfN5AstrAeQApI5M8ys6LlyjIczJWAQ+Cygi+SSHyRU2bTAANodja8u+BTFy8nrVbg1ZFMKin8P9tEP+4ygDBREHFtrbXHtGT4HmfSuUAWo9FNASaNmhibjEQnx+D22/Sq5p8COX7YP0OgoBPQAPxePgR/KcO4ucpUCYAzgGqoC3RkW0qQKgQtYqDpo/W8FfOAaJpIBKcN4SSjQGvk5OaQEFzPjaY5wLg9bDswVIHuVXw01QkWA3BBM56X5PPgR8VVktsbGyBNSzC1P5T39I4fN9cfp7zEnbt2sXONEtaBiDCE77mV4lYxPdWJgjCoiAWJP9pLwcRog5e+JXm8YDyHJyDq1evMrmWpOrdEpARcpu/f25mqjB184s2le+P742IInxNhaXjJ5zYRNHbF1Buttx3Se9cAng9SFVgXNWuXdviggNlBYsnGFghIQu+YEea8gPDiQk9Ue1Er9y0ZCYh7RR/aLRgzYtQq37ehzkDXQuidy7UVCgr3xtXXviMIB6k/d2RvxK9fb7OVRaPxw0Df8uWLaxra41C2fi9w5b8yOFfZSmI8wXg+4MI4LhGwiT8IIaAsYPIYkaEPye7KecQUM49Xgcp/ehmoKT3W3uEzRRYLMHAcRb85yeSILQAfmT4T9DxT7/9Z+z+5eK2VDPAYLVgMu7Zs4fV+y0F6AEUf2IjZ3YCGNxYCiGagaRDZN06OjryfcgkDV82lnM1kFKuQCEWyE4MGzasYPM3KwCWymErfqGM0NtGyeChhx7iSBrS5/WtXER6orfP49fhZaTeFFFeB45fXKCwnETxp6VHfMoDFkkw0LeFdx6q6AAIA1GfK1euFChfD/1ntCbXAAMD7VeHDh3KV3pLsVpQ5R25aWYBGQqs7UGo+rkR0G6J2jKbcy0U4PEgo1dffZV++eUXk4pALQ2oUIa1lup7QUMKyrnCBQXnCZFBXFQMNXKD7EbCyc2SSp8eMQEKOYFM4KdCiFp7CaqiICyKYFBgF7lhmqbFKH74Iasusoo/rsbaJj4KzOBrUdbaICE0mcfAMKRmb47AFRQl/UrYFN8XJIElIJZBmDDa3xlJguhymB54XT6SP8E8mnTkGiFkgFoLMB4Sjm0Qy+QblHT5oI5fRQkrowc1CBUJhYaWgKhFixLLx+RL+6UqZD1iwjIHOUDIVu7SpQuH7CGSpcI0WAzBpNw4QaFLvtcMABAG1WjCSwPtJDgMkqj//uArkTIp4WuB4w4V1pYA5OZAnhRXZOU7YLAjwoO+yvqykqwZLEx6hN31JwgcvghR60SSLBzos5R8/ZgUktcavvjOIGDk7sDBjTC7oYLLzMgALgOBkFbCqa0FzhmcvSBkkAkUCa3RN3WvYPYEg35CcFCy1SKAQTB09SVO/NJXjMNSKGrzLE42UwZLWJ47O3FBMOYOfP7E09s09ULKhMmp2ogGDhxYgCSgz4ps3fjj+cSpPAcdJdGMDPKe1tA7CKULqIA3lASH74slEELA+J1RdKmP5KhQyrp+mMPTSpGnAuU1ouy8mVBATtYaSbvXMGuCSb17jkL/+V7jnIWkAqQrkeavXTUNR1zwgi80JQEglvmnQ9nfUBbCxeUNRMKiNs2Q8nIEFHJM967LEQ5DyxpYdFxfpRUZwXMibb2YiKyhkRuIAN+Tiy0R/ZOhEAK6YcKfgiWQMRF3hOZj9/3Lmd36xITzBT8WXgMFhGhdq6JsYZYEAxEdVo2DQpoABgNEuyEMrd/OEiQEmUsMHmXgQcUfanZmrS4nPm96yC2KP7KGki7ulw9KNS64QQpi3759utaHeA7EhkIXj9JEhpTvDGlPRDQsrbRBH/A7IVcJHTO1l0D4noDy+yIChAuIISDCmBF8i0XKDXWHRAJit27d2MIz1K9JRdnBvAhGfBQUlyHnQAEGxKILUZywhNCiAkwwLJtwdcPz8DgMPmRe4opmzoCPBSUK+lEe3EAo+A46gtji+yHkGjhnuI4jE98XIWr4CqCHbMkAEQTP/0LHUgEUUkD0BucG8gRoWqeP3PQUlqKMO7CcO0QaIiZkdWOpOXeu1IZGRfnDbAiGa2lWTjDYIbDlgz3pvV8XinWxHZe75yTFkP/kN3gQKRMN2iS44ptzUzOQYtAfH3GlszaU74mIha2YRA/2eZmeexdZuPaUcfuMINzxOhMG3xfaNPA5WMIS0CDE90EFe+TmmZLujkycCpRzogCdJVw9vOjLeevJs3JVca5sxdo4m/KSYylgxjsGn4/zBMc4nLSQYVVbo9x7mAXBwI9w96fnpTChIYiJh0b53F1APEaRI1SsFqXfkblnTvqOf4knVaEw9B1kIsX3xaTbvXs3a4NYsiOS+5yvEJamqcNP/7xgX3mu/F/7HEE5DmqHIBc1o/b+4f6OUDEwghd8SXfH9jVOLoB4HBx+sHLwOEhXIkwNckEhI5quWcIgMqm/EyaL1k35rkgQ7PXmh9wyxpCyv6UBMpP8HU2F3nlhi0X8V84PbkhH6D5gCEVFRXEfdAhdq+Ryf3HfLBg0vx/QsxNFhYeJcVK8j4ArFKQXECkpqvGUOWHBtF9p4fRf5T3TgDwWyHS+/vrrRbavsCScOnyAPn6z9OpsSIJDNjOya5GdrBKKeeG+EQy6BCDikZCQwM5bOPBQbIbKU6Rx42PhPlyJsI0aG/RZgn5GvXr1LHYgoUtCfHw8fwcUxaGlR3p6OkVGRvL3xfdCchjOB74rHmOtk+bOnTsUERHBxKB8z5ycHBZ0j4uLo7CwMBZ0x++O84TCTIwNbGP8YBkE1XwV5gvziiKpUKHCqmDZC3kVKlSYNVSCUaFCRblBJRgVKlSUG1SCUaFCRblBJRgVKlSUG1SCUaFCRblBJRgVKlSUG1SCUaFCRblBJRgVKlSUG1SCUaFCRblBJRgVKlSUG1SCUaFCRTmB6P/iGIG99f+s/AAAAABJRU5ErkJggg==;" parent="1" vertex="1">
                    <mxGeometry x="260" y="280" width="41.79" height="40" as="geometry"/>
                </mxCell>
                <mxCell id="-4WbBz2A1vkrkdE__zxl-7" value="&lt;p&gt;&lt;font style=&quot;font-size: 18px; color: rgb(255, 128, 0);&quot; data-font-src=&quot;https://fonts.googleapis.com/css?family=futura&quot; face=&quot;futura&quot;&gt;VoilaVoyage&lt;/font&gt;&lt;/p&gt;" style="text;strokeColor=none;fillColor=none;html=1;fontSize=24;fontStyle=1;verticalAlign=middle;align=center;" parent="1" vertex="1">
                    <mxGeometry x="301.79" y="280" width="116" height="40" as="geometry"/>
                </mxCell>
                <mxCell id="-4WbBz2A1vkrkdE__zxl-8" value="" style="shape=rect;fillColor=#F6F6F6;strokeColor=none;" parent="1" vertex="1">
                    <mxGeometry x="258" y="320" width="164" height="20" as="geometry"/>
                </mxCell>
                <mxCell id="-4WbBz2A1vkrkdE__zxl-9" value="" style="html=1;strokeWidth=1;shadow=0;dashed=0;shape=mxgraph.ios7ui.marginRect;rx=3;ry=3;rectMargin=5;fillColor=#E4E4E4;strokeColor=none;" parent="-4WbBz2A1vkrkdE__zxl-8" vertex="1">
                    <mxGeometry width="164" height="20" as="geometry"/>
                </mxCell>
                <mxCell id="-4WbBz2A1vkrkdE__zxl-10" value="Search" style="shape=mxgraph.ios7.icons.looking_glass;strokeColor=#878789;fillColor=none;fontColor=#878789;labelPosition=right;verticalLabelPosition=middle;align=left;verticalAlign=middle;fontSize=6;fontStyle=0;spacingTop=2;sketch=0;html=1;" parent="-4WbBz2A1vkrkdE__zxl-8" vertex="1">
                    <mxGeometry x="0.5" y="0.5" width="6" height="6" relative="1" as="geometry">
                        <mxPoint x="-17" y="-3" as="offset"/>
                    </mxGeometry>
                </mxCell>
                <mxCell id="-4WbBz2A1vkrkdE__zxl-14" value="Flights" style="html=1;strokeWidth=1;shadow=0;dashed=0;shape=mxgraph.ios7ui.icon;fontSize=8;fontColor=#ffffff;buttonText=;whiteSpace=wrap;align=center;" parent="1" vertex="1">
                    <mxGeometry x="270" y="350" width="40" height="36" as="geometry"/>
                </mxCell>
                <mxCell id="-4WbBz2A1vkrkdE__zxl-15" value="Flights &amp;amp;&lt;div&gt;Hotels&lt;/div&gt;" style="html=1;strokeWidth=1;shadow=0;dashed=0;shape=mxgraph.ios7ui.icon;fontSize=8;fontColor=#ffffff;buttonText=;whiteSpace=wrap;align=center;" parent="1" vertex="1">
                    <mxGeometry x="370" y="350" width="40" height="36" as="geometry"/>
                </mxCell>
                <mxCell id="-4WbBz2A1vkrkdE__zxl-16" value="Hotels" style="html=1;strokeWidth=1;shadow=0;dashed=0;shape=mxgraph.ios7ui.icon;fontSize=8;fontColor=#ffffff;buttonText=;whiteSpace=wrap;align=center;" parent="1" vertex="1">
                    <mxGeometry x="320" y="350" width="40" height="36" as="geometry"/>
                </mxCell>
                <mxCell id="-4WbBz2A1vkrkdE__zxl-17" value="" style="html=1;verticalLabelPosition=bottom;align=center;labelBackgroundColor=#ffffff;verticalAlign=top;strokeWidth=1;strokeColor=#FFFFFF;shadow=0;dashed=0;shape=mxgraph.ios7.icons.chat;fillColor=#FF8000;" parent="1" vertex="1">
                    <mxGeometry x="386.79" y="503" width="30" height="18" as="geometry"/>
                </mxCell>
                <mxCell id="-4WbBz2A1vkrkdE__zxl-20" value="" style="group;fontSize=1;" parent="1" vertex="1" connectable="0">
                    <mxGeometry x="480" y="190" width="200" height="400" as="geometry"/>
                </mxCell>
                <mxCell id="-4WbBz2A1vkrkdE__zxl-21" value="" style="html=1;verticalLabelPosition=bottom;labelBackgroundColor=#ffffff;verticalAlign=top;shadow=0;dashed=0;strokeWidth=1;shape=mxgraph.ios7.misc.iphone;strokeColor=#c0c0c0;" parent="-4WbBz2A1vkrkdE__zxl-20" vertex="1">
                    <mxGeometry width="200" height="400" as="geometry"/>
                </mxCell>
                <mxCell id="-4WbBz2A1vkrkdE__zxl-22" value="" style="html=1;strokeWidth=1;shadow=0;dashed=0;shape=mxgraph.ios7ui.appBar;fillColor=#ffffff;gradientColor=none;sketch=0;hachureGap=4;pointerEvents=0;" parent="-4WbBz2A1vkrkdE__zxl-20" vertex="1">
                    <mxGeometry x="12.5" y="60" width="175" height="15" as="geometry"/>
                </mxCell>
                <mxCell id="-4WbBz2A1vkrkdE__zxl-23" value="CARRIER" style="shape=rect;sketch=0;align=left;fontSize=8;spacingLeft=24;fontSize=4;fontColor=#aaaaaa;strokeColor=none;fillColor=none;spacingTop=4;hachureGap=4;pointerEvents=0;html=1;" parent="-4WbBz2A1vkrkdE__zxl-22" vertex="1">
                    <mxGeometry y="0.5" width="50" height="13" relative="1" as="geometry">
                        <mxPoint y="-6.5" as="offset"/>
                    </mxGeometry>
                </mxCell>
                <mxCell id="-4WbBz2A1vkrkdE__zxl-24" value="11:55PM" style="shape=rect;sketch=0;fontSize=8;fontColor=#aaaaaa;strokeColor=none;fillColor=none;spacingTop=4;hachureGap=4;pointerEvents=0;html=1;" parent="-4WbBz2A1vkrkdE__zxl-22" vertex="1">
                    <mxGeometry x="0.5" y="0.5" width="50" height="13" relative="1" as="geometry">
                        <mxPoint x="-30" y="-6.5" as="offset"/>
                    </mxGeometry>
                </mxCell>
                <mxCell id="-4WbBz2A1vkrkdE__zxl-25" value="98%" style="shape=rect;align=right;fontSize=8;spacingRight=19;fontSize=6;fontColor=#aaaaaa;strokeColor=none;fillColor=none;spacingTop=4;sketch=0;hachureGap=4;pointerEvents=0;html=1;" parent="-4WbBz2A1vkrkdE__zxl-22" vertex="1">
                    <mxGeometry x="1" y="0.5" width="45" height="13" relative="1" as="geometry">
                        <mxPoint x="-45" y="-6.5" as="offset"/>
                    </mxGeometry>
                </mxCell>
                <mxCell id="-4WbBz2A1vkrkdE__zxl-31" value="" style="shape=rect;strokeColor=none;fillColor=#ffffff;gradientColor=none;shadow=0;sketch=1;hachureGap=4;pointerEvents=0;fontFamily=Architects Daughter;fontSource=https%3A%2F%2Ffonts.googleapis.com%2Fcss%3Ffamily%3DArchitects%2BDaughter;fontSize=20;" parent="-4WbBz2A1vkrkdE__zxl-20" vertex="1">
                    <mxGeometry x="18" y="150" width="169.5" height="190" as="geometry"/>
                </mxCell>
                <mxCell id="-4WbBz2A1vkrkdE__zxl-32" value="Saturday 10:12 AM" style="shape=text;align=center;verticalAlign=middle;fontSize=5;fontColor=#999999;strokeColor=none;fillColor=none;spacingTop=0;resizeWidth=1;sketch=0;hachureGap=4;pointerEvents=0;fontFamily=Verdana;whiteSpace=wrap;html=1;" parent="-4WbBz2A1vkrkdE__zxl-31" vertex="1">
                    <mxGeometry width="164" height="10" relative="1" as="geometry">
                        <mxPoint as="offset"/>
                    </mxGeometry>
                </mxCell>
                <mxCell id="-4WbBz2A1vkrkdE__zxl-33" value="Please tell me how I can help you?" style="html=1;strokeWidth=1;shadow=0;dashed=0;shape=mxgraph.ios7ui.callout;strokeColor=none;fillColor=#E7E6EC;align=left;verticalAlign=middle;fontSize=6;spacingLeft=17;fontColor=#000000;spacingTop=0;whiteSpace=wrap;resizeWidth=1;sketch=0;hachureGap=4;pointerEvents=0;fontFamily=Verdana;" parent="-4WbBz2A1vkrkdE__zxl-31" vertex="1">
                    <mxGeometry width="90" height="20" relative="1" as="geometry">
                        <mxPoint x="5" y="15" as="offset"/>
                    </mxGeometry>
                </mxCell>
                <mxCell id="-4WbBz2A1vkrkdE__zxl-34" value="Hi, I would like to know about the best travel deals to Europe in December." style="html=1;strokeWidth=1;shadow=0;dashed=0;shape=mxgraph.ios7ui.callout;strokeColor=none;fillColor=#FF8000;flipH=1;align=left;verticalAlign=top;fontSize=6;spacingLeft=2;fontColor=#ffffff;spacingTop=-2;whiteSpace=wrap;spacingRight=12;resizeWidth=1;sketch=0;hachureGap=4;pointerEvents=0;fontFamily=Verdana;" parent="-4WbBz2A1vkrkdE__zxl-31" vertex="1">
                    <mxGeometry x="0.35" width="100" height="35" relative="1" as="geometry">
                        <mxPoint y="40" as="offset"/>
                    </mxGeometry>
                </mxCell>
                <mxCell id="-4WbBz2A1vkrkdE__zxl-36" value="Sure. Looking up the details for you." style="html=1;strokeWidth=1;shadow=0;dashed=0;shape=mxgraph.ios7ui.callout;strokeColor=none;fillColor=#E7E6EC;align=left;verticalAlign=middle;fontSize=6;spacingLeft=17;fontColor=#000000;spacingTop=0;whiteSpace=wrap;resizeWidth=1;sketch=0;hachureGap=4;pointerEvents=0;fontFamily=Verdana;" parent="-4WbBz2A1vkrkdE__zxl-31" vertex="1">
                    <mxGeometry width="90" height="20" relative="1" as="geometry">
                        <mxPoint x="5" y="80" as="offset"/>
                    </mxGeometry>
                </mxCell>
                <mxCell id="-4WbBz2A1vkrkdE__zxl-37" value="" style="html=1;verticalLabelPosition=bottom;labelBackgroundColor=#ffffff;verticalAlign=top;shadow=0;dashed=0;strokeWidth=2;shape=mxgraph.ios7.misc.keyboard_(letters);sketch=0;" parent="-4WbBz2A1vkrkdE__zxl-31" vertex="1">
                    <mxGeometry x="-5.5" y="110" width="175" height="80" as="geometry"/>
                </mxCell>
                <mxCell id="-4WbBz2A1vkrkdE__zxl-26" value="&lt;p&gt;&lt;font style=&quot;font-size: 18px; color: rgb(255, 128, 0);&quot; data-font-src=&quot;https://fonts.googleapis.com/css?family=futura&quot; face=&quot;futura&quot;&gt;VoilaVoyage&lt;/font&gt;&lt;/p&gt;" style="text;strokeColor=none;fillColor=none;html=1;fontSize=24;fontStyle=1;verticalAlign=middle;align=center;" parent="1" vertex="1">
                    <mxGeometry x="541.79" y="280" width="116" height="40" as="geometry"/>
                </mxCell>
                <mxCell id="-4WbBz2A1vkrkdE__zxl-27" value="" style="shape=image;verticalLabelPosition=bottom;labelBackgroundColor=default;verticalAlign=top;aspect=fixed;imageAspect=0;image=data:image/png,iVBORw0KGgoAAAANSUhEUgAAARgAAAEMCAYAAAAfyakBAAAAAXNSR0IArs4c6QAAAARnQU1BAACxjwv8YQUAAAAJcEhZcwAAFiUAABYlAUlSJPAAAIOZSURBVHhe7V0FmFRlFz7bHSzdJd2tImKgKL+igGITigm2GKAiSgkoKVIKIt0g3d3dud3dHf/3nnvv7MzszO5swczsffeZZ++903e+773nO/EemzwBUqFChYpygK38X4UKFSrKHCrBqFChotygEowKFSrKDSrBqFChotygEowKFSrKDSrBqFChotygEowKFSrKDSrBqFChotygEowKFSrKDSrBqFChotygEowKFSrKDSrBqFChotygEowKFSrKDWo1tQoVZoDMqECK3DCNMiP8ybFqPfJ6sC85+NQkGzt7vj8lM4f/AylZOeTk4UPVataSj5gvVIJRoeI+IzcznXzH9ae8rAz5SOE4FRhPb6+9QmFhYeTj4yMfNU+oSyQVOsjLyaHcnGyDt5zsbPlRKsoSgbPeM5lcgJNBcdSiRQuzJxdAtWBU6ODuT8+LK2qavKcFMUxOBiXQxZqP05QpU+SDKkqL+GMbKGrLH3x+TcGso34067AfJSUlkbu7u3zUfKFaMCp0wOSCwa5/A8T/gIAAaVtFqQF/S9R/s/PPrwkAuRw8eNAiyAVQCUaFQby5/DwNWnWJPt4ZJOxcG/kokZubm7ylojRI879MATPflfdMA6wXJycnevTRR+Uj5g+VYFQYxOmgeFq25yTtOHeLar4xRkMyGOAqSoec1CQKWyrOaW6ufMQ0wHq5fPmyvGcZUAlGhUH06tWLGjVqxNvurXrwfyArK0veUlFShC35nnJSEuQ90wDrpUaNGprfxFKgEowKg2jcuLG8pQs4F1WUHDE7/6K0gCvynmkAuSy5FEtnz54lOzs7+ahlQCUYFQZha2t4aGSroeoSI/nyIYo9uELeMx1YGk2aNIlq1TL/xDp9qASjwiDs7aUMUn2oPpiSIfXWaQpb+UuxIkYArJd27drRBx98IB+xLKgEY8FIiouhjAzTE7SKAxutyJE2HB0d5a2yQVp8DOXk5KfBWyPSg29SyKJvi+3UBWC9fPzxx/Ke5UElGAtF3KFVFD55IE14/QnKzMyUj5YB5CtsrpHJYGzpVBKk3DxJwZNfobXvPUbJycnyUetCXnYmBc0ZLu8VD7BemjdvTu+88458xPKgEowFIvnaUYrePp+332zqTKOf71TmVkB5WUYKsGQIXTyKCa1jNUfa8umzVunfSTi1pdjLIgDk8sfRANq6dat8xDKhEoyFAeHN8GVj5T0J73WqTmMGdBfjuPgD2RgiIyPlLV2UBZGl+V6g0H9Gy3sSOgmS2TVmsLxnHUi9e46itsyR94oHLI2OHj1qcWFpfagEY0HIjo8kv4kDKS83hzNtZx3xk+4QxDK4hRtNeOtpab8MkJ6eLm/pwtjSyVQknt1JIX9/w98Bnx/fQ0GTvAja9bPlLge0kZuWRGH/jimx9eLs7Exdu3aVj1guVIKxEKQHXiO/ya9TXk42T8oL4SlUt++HtC2pqvwIooF1c2nGiFflvdLBOSlc3tKFg4ODvFV8oM4pavMs/g4gl3+vxNG0FVvIZtBMsnPz5snYMD2ANn3Zz6KXS/C7+E1+k3IzUuUjxQOsl+Dg4DL1d90vqARjAcgVyxJc9ZWrYbd63lzRPHLkSPpk1gqKe/QjTSp/H48omvXJ67xdGkx+tDLF7F4klmTxFPD7EPkolTzRS3x2vwkDmWRALut8M+jcuXP08MMP0wMtWpFLo3aax+07fYnvs0Swtssv/Sk3vWROa1gvDRo0oMqVK8tHLBsqwVgAbMWkvlTlQXmP6ONHGlJzb2miI5zc9dkBFN55sIZknnGLoEU/juDtEkNM9Nj9y8h3/EuUGRWkIbeSRHuyE6Pp9vdP8xUd5HLZvj6dOnWKGjZsKD9C8ssAuP+fSzHUvn173rck5GVnsbaLQbkLEwByWXA6jHbu3CkfsXyoBGMheHH4KLrZ8FkNiTS8sYGObc7PCu3R/y1KeOxjzf2PZF2ntdN/KrbPBJovJwPjpVtAnHST908FxpGLi4v8SNOQGR1MAb8J8hOfA+RxnmrTli1bqHbt2vIjiPwmvkI5qYl8/3/BeXT69Okyz7e5F4jaMpuyokPkveLjZEA8TZgwgZo2bSofsXyoglMWhl1L/mByYYtCkMmO5Gr08czl8r1EO/+ZTY1ubtTcf6NBb3r+vZHyvUVjxIgRtGLFCmrSpAlnkCKjFyQFy8XV1ZVGjx5N9erVkx9dODLCfSl47qdsucw+6k9HUrxpx44dVLWq5DfKTU+RpCJln8zWUBsmF0tQatNH3MFVFL1DSh0oCWC9bAkm8vX1lY9YB1SCsUBsmT+Vmvltl3YEiVyp9Tg9/8E3mvT+4/+toirHF2iWNdfrC5J5f6R4qOHs3PJARshtCln0DYfVQS7wuVy7do08PT35/pykWAqY/g7lpCXRrMO+tOZOGi8N2rZty/dbEhLP7aKINb/KeyVD00n7aO7cufT+++/LR6wDKsFYKNhSgSUDCOLYk1mX3pkwT7O00LF0BA7aNKG3x80p98gEhlP8kbUUvX0evzcsk8UXoykxMVF+BHwyMeT/62uaUPWSy7F0+PBhatOmjfwIy0Ga3yUKnv+5vFcywHrZEW5Pt27dko9YD1QfjIWi9+AR5Neiv7QjJnIvh0A6tW2NtC/w4HMD5S0Jlw7vos8/L3oiJEeFst8EbTSyYkI0t6SIYIqPCqesDMP5MQoy09M05KKgc+fO8pYktoQkO4VcFpwJYxElSyQXLO1Cl3wv75UM6BCAsPSCBcLitEKoFoyFY8o7fenFainSjrBk/Jr3o6fe+kgsUW5R0B8f8WFM5DnHA3l9r+8/ycvLpbzMdGHm76ao/2bpEINRCCsoqtvbHL2yd9B1xiLTd+zLPeit5q6a19qRWoNGTF9KOcmx5DfpVT6OZdH806GUkpJicRonCnwnvMxLvdJg9jF/Op9Xmw4dOiQfsS6oBGPhwM/3w4sP0uCWsgi0IBkbe0dO9uKJLMgFPhCknT/00EPSY2Sk3DxFYct+0jxWH4gcIefGIPA+tnaU9OSn1OHxPvJBCSCZeSPfpqecgqUDRj5TWlqaxco/oJYqZPF3Bs+bqcDSaM6xQBbxKm50zlKgEowVAD/h+Defolfq6f6UiuUSFxdHHh4e8lEJgTPfp4zwu5oJAjLB46HFCz8NHMKwLBBBwg3vMaJ7A36s8l+BnXslqvXZYnJ201W6XzNtDLWPPCLvSVDIJTw8nKpVqyYftSykB1yloHmflopcgGa/7qeIiAhNVM0aoRKMFQFlAsjkBTCR554MZucq6loUZCdEkt/kNzgvBVAmPJzDCCF36NCBvLy8+D5DgCbviRMnaN0Pb9Pwh+trJpmNgxOddmtLr30zifcVrJ/1C7UJPcDbynshS9cSE+kAFDCGLvqO/S+lAayXgwkedPHiRfnIfYb4HZMigynP3ok8K5cd8asEY0WApfHrkGcpzO82h31Rz6Lt30A9U/DCr3ipAh/IH8cCaP78+dwGA3kvxQGGze7du+nQHz/oLM9u29agnt/N07Q3AcGN7f8gO4dBMIsWLaIhQ/JLDywJCLkHTBtabMFuQ0BY+vr166z3cr+RcHIL+990SFP8lvxPLIPXhTrQq2P+oPr1xQWlmFAJxsoAR+6+ffvoiSee0Cn1x5U35K+v+UqFiX7Bpg6tWbOGqlevLj9CAjJqUSIAxy/7TATgP4FjN6dtH6rZsCAR7V0+n+pdWa2xZhAyHzZpgaYwMiYmhv755x8eoAMGDOBjloiA6cMoM8JP3is5YL0cSfY2i3qrpIv7KHzleHnPMECGJ0+eLFF1t0owFQBpfhcpfMU4yk6KZXL561wEBQUF6WTMxh1cSfFH11F2cpyGKApAXNWc67agm16tqceLb5KTa34Ttv2r/qI6F/Izig/ZNaW3f5nDvhxrQOSmmZRwYpO8V3KAXBadj6L9+/frhO/vB5KvHKKwFb9olsuGgM8790QwJSQklMgRrRKMlSM3LZn8przJ+iTwf2wOymUrR5n4WXHhLIqUcu0o7wNw+AKoPeparxJvF4gmief7NnuRnnj9fY2lsvinT6h7xlXeBjY5dKavfi5dhqs5oCwiRgpgDWzatIn69u0rH7k/SL56RFx0finSl9Ry6iEuEylptE8lGCsGflr/yW9QdnwEWy47InSzRSFGHTzvU7EUytJEkc4EJ7CEAlpkgITwGvDtIBLV2SmW3mknrB6tIYMM4QEjJ1KlShIRrZ0+ltpFHubH4DWbfTaXunTpwvdZIkDAKNYsrVMXgDVgDvVGKdePc2dJJDsWBnzew0ledP58vihYcaESjBUD6nERayfzdtvpxzgkqtQC8cT5fajk8BXEAocvnL1w3BprWQJAZmHfnJ9oQM18zV7tMgTkwAT8+qomAW1mkBfNWrqety0NyDr2HdevTCwXANbL9u3b6ZlnnpGP3HtAaJ21kE0Awujx8fGaMVMSqKUCVorsjDQNuYBAIAOgTS6BM97VkAvS9dHYC36BwsgFgKPv28XbaHWQGDryMqtn3m0aPfxt3kbUquanizlsDXTLC+BoVkmRJ6ynzPRULkGA8Na9RPTWOWVGLrAGkO/Su3dv+ci9Bxrum0ou+LxIWSgNuQCqBWOlyAi7S4Ez3+PtFlMOaiQo87Iy6M5Pz7FjD+SCdP1Lly6VSIPkt/f6Ud8qSZrl0LLYanyFBk4sHEeVfQ/wfT9fyKZ/tx/k40UBxGibm02pvhe5Qtmg7KQgNoRP7dy8yKFKHXKsVp8cq9Qlx6p1KdPZm2ztHcT9ggAdXcleW1dGPM/ByVmQaNGyn/HHN7K8Z1kAk/XP40EUGBhINWvWlI/eW+CiguWyqcBndnnoZfr119L50FSCsVJwhGDZWCaRBz8cR6+/Lslowu/CfXrEzw6THUV2w4YN4/tKgr2ThlO9hBu8PXx7AO26cIe3gdujevH7DNtwgw7eKFyICcSHOqUcSE1iSJbVsJStLAU2NpLlZeviQS71WpJH+17k0qitpAksI/nyQSm6UkafAUuN+10WcWf000X6XBSAXGYf8WffW2mhEoyZIFOs9x1dddP5SwNlQEEgfMq/G9m/guXGnR+EiS5+ciTaeTz6Go0fX3gORFHA8PH9+QUWj4Ia3hv/nhbzV5rUd37sw8SB428uPcPHtJEeE0qplw9Q4qmtlJUQWWi4tNwhf2ZYRjwRy2haoFp6e4wbLd1x/4oZ747ty7+PqQDBOHUbwLrPpYVKMGaAu2Oek3Rc9a62pgLLk5m3bNkBC0BewX/qIN5uPvkAp/fDAZty/RiF/vsjTx5YLyEhIWXSUB1N4NBpEp//8SU3ND6XyI3TOEsUeHl7DF24IOnu5mRlku8vL4oPWr7N3cwFNmJJ5tasm1jKoZJdWE9ObuRcrzk51m5Odo7lZ9WwVQg50jSxjDURIBfIR/j5SeLjpYVKMGYAZSlRUoBg3lp+jq0JIPmyWB4tH8vHh66+xAQDJJzeRpHrf+Nl0+ns6nT8+HE+XlpkJMVT4AQpQxfLoR3n73BS1rVt/5LD4cV8vNVvhzUtbm/vW0+05w/xnXm3YkPromInlm0OlWuzFYXsaRtIYYhtp+r1ybVpV7L38OF9G1cvsncqPOkNvqugOSMoMzJAPmIaQDBePd+gX34RS8QygEowZgCFYLCcCclxpW+//ZZL+HHFx9oda2EkO8FRC7Hsli1bUvStC/RJ/XwHqzaRJF3YS+GrJhQ4jqZtUJMDwQyZsZY6duzIx8sCt797kv8PWnmR1hy+QHXq1KG0+GgKnizpvwxedZmO3AlnS+ruwc2Ut2Om4Bd16JUagqBgEdmJ5TVbwWKsIIKXkxxX7NwdxXpBOkNZVbqrYWozAibfzZs3WXj7u+++o1WrVtHmzZtZhf/AgQN05MgRPjZmzBiatWwDVX0+vzVJjRo15C1daF8/UCqgoMxFnhC1Eeha10sTsdIOK4NMkG4OOHkY0ZhRUXyI3xc9mLJiwwSpxHMtWXZCVIkTA+GTK0sZDZVgzAiIcChVyKbA1slV3sJzi/bfcASlnACzXh+psRHyloCYCMoSCWHkXNV6MSvAGY3I0ZtvvikfKRuoBGNG+OfVthSycCQlXdzPVa66NxyTbgij4ha9I1/HFan8hgCrSIFz/Vb8H/VFUVGSbkxZQbliYlmmwE5LThMlCN7ekuWCKA3TYcl82irKASeD4ribpKktaUyFSjDmBHGVh6xC+MpxXEKve8Mx6YYcDdy09WB1mtXL1gwKFLWXSB7tJT8JsG7dOnmrDID3kN/nXGiSRj3Pw138lz8LLCwlDyQ7Xe58iKdJWyruM5AIGBoaKu+VHVSCMQOc0u6maMrNQMdF7U6I8dn5P2vnOvnqdAk20pIKxHNh51reLguk3s7PccEST+mrnBmd33JWG7nulbU+u/Q/OLHwbgUqyg9w7nbr1k1TFV+WUKNIZoDp06dzUhM6J+LqD4EmWCRwxGLCYmmBOhZso/gMKnF4HCJNAQEBbBkg4qRUNMf636SYeVJHgbdWXKANx69winrkjXOU8I/U5RGTuuFHM6l79+68XxpEbf2TeyFBDuJQkqem+jZm118Uu385R63mnQqhjIz8vJc+ffrQmTNndHxHuH9wu8o04uHS51+oMB3IiYJ/TCUYFSYBP+kdhL4FQCTer42l5557jve1c26WpTWhn6bP5e3SQHlNpMRrp5eHLf+Fki8f4PD7b8s20yOPPCLfYxwIx+Nq6p4cRt3qSz6bbnUl4uxqrMOBihIDFuTba6/okH9ZQiUYKwUKBdHSFLjT5T16tv8rvB1y5zql/v2xRDLCeojs9TV1f+Jpvq8kQKZodmI0Wynbw+3o9u3b8j2CeEY/xXkZHWefYmurOEDuDqw1yD/cuHGDJk6cSHv37uV9BYoYFqCQkQKFlACVmApH71V+5aZRoxKMlSL07g1KWTict0+HJNPrS07yNnJU1r3/OHWsJvlsbB2d6U6jZ7lTZHGASFDgjGGUGRnIVtKgFefpzp07Gh1gOKOTLh3gmic0vS8v/VmY9lhS4gbyQa4NOkWuXLlSk6iIIa7cgMKI6ePuDeWtioN3N96kA9dLLqlRGFSCsVKw8NP4AVIdirBUlqY0prEz5sn3Em3+qh+1cJD7RYv7T7p3oDdHmVbchlqn0KVjKDPcj/exNPr+++/p559/5n3Ic6LrIZTycN/du3epYUPzmLgK0eD8wM+FuqnIyEi2mEBW6dtmUhsPKfO5ogDLpGdm7tI458sSKsFYMZBJ6zeun1RJK0jkcss3qP+bQ+V7iXb9PIwapkkkgfvdmnYlj2c/Io/qdaRjegCxRG6exRq1gGK5fPjhh/THH3/wMeTD+I5/iUkGy6aLtnXp4EHTtGDMAUkJ8RQ5fVCxqo+NARP3zeWS5Wbuy7mhhzM4U7ysoRKMlePS+gXkcnolb19JdaF+M6TqZgWrf/uBOsQcl3wyMpAh7NasK9l7Sy1NMNmSLh9k0lAA8kDU6M8//6T3339fPkoUsW4qJZ7dwUsj3A9y6dGjh3yvZeD8ihnkfmmzvFc6wMHt07Ib/fbbbxwJxBLV39+frl27xtFAxaeUmprK3S5xCwsL43ogLPda+jgK60rKgO5aT7chXlkS06e7Q2jbGUnXpyyhEkwFwPYfBtED2ZLg0/UsL3p+yjphsOSHh8+ePUsnls2gp51DdYjGEGC1gFzC8txZYrNx48byPUTR2+ZR3OHVvI2lEWqoEI62NMDyC5jyBtf0lBawYk5X7cGpCKUFsrXR8wrC7XCaY0kHHxMibyAqHEv1v0Jz+hQ/zI9crBfnHSxWqYopUAnGCpGTlUV2ejkN2k3DUG1befhCqlRdVwsGrWMvrprFDmL9YQFiuRabRc8++yyHmz/55BP5HgkaTRgBXLXrdH5cJ1sYn8nW3l6H2MwZp3dtJO/9ZSOZ+druBM75uVfYs3we1b8sEb2pABH+LgwYXGzKEirBWBkSTm2hyI3TaVOUO321YKN8lOjujWtks/YHykmRa4XERA/t+Cb1fKlgG1dcDbG0gfMTWr0w7SEToV3XpCAj9A4n1KXcPMUkhGWRa6N2fKVVkHhmOy+d5pwIom9WHDJa+W1u2DvhQ6qXlN/mpaR4e901OnwrTN67N7hwYDu57Zwq75mGQasu0f5rQTq9zEsLlWCsCFnxEZKws/yTbohwpa///o+3ARQ4Hp3wDrVySdU8xrNTb7Lv/hpVrlmX900Fcl/Cl/9CaQFXeB/k8s7aKzRy5EgaN24cHwMyI/wpYMYwzfstvBBDY9Yd46xlc0dEaAglzh5c5LKxKMA6iOz8Jn3++efykXuDA799TrVjLpv8+bFMavftYmrdurV8pPRQCcZKwB0cJ71CuZm6RY92r/1Kjdp0kg9I1snYl3vQW83FBNf+6cVjnWo2psqv/8zLqzxbB1bkx5ImJyONo0MOttLyJmr7PBa1Up4Pnwza0cI3AEtHgbG+Qsdd29Ibo6aWvSZNOeDmzpVke3BhqUkGVszOC3fvKbFmZ2dR4MSBrBFjCkCEM27baaRXywIqwVgBoL169+cXNX2OQAojuuc7+uIfG0FdeouJroXRo0dT8pFVNOLh+vKR4kOJJFWpUoWXU9qAZCPEpjExDX2m3Rl16KPf/5H3zBdwnEZMlnJ6SgNM3pZfLeReQ/cSnHD51wiTCRL+s+N+0QaXwyWBWk1t4YDm6t2fnteQy8Kz4TRy+UE64tBCfgSR98E/OBytDSiXjd96geakt+Xn4WYKsBTCIESU6GRmVV526ZNL8rWj5PuLZLkoJLTyZjL9cSxQfgTRU84h3FfJ3IGi0qqflp4IEUZGZ4d7jVqNm9PebNM1Xj55pCFt27ZN3is9KrYFk5vL/gFomeb1G0ONmjaX77AMoLla0J8fswWDiYwmasijQPV1RloqBf4iWRAAJrlNx+cNhkuRZo+M1t9//50lOTvUdBdPy2P5SxCKgtNB8fTUU0/R1KlTWXNXqd7WRlZmBgX88oLmio/PhQprpO3DGlgyZjg97ST3SBJWzdoQe/runx3Svhlj55jB1CizdOn0kEX4bPEeTTnFvcTBaV9SrUipq0NhgKV1p2lflmUtC1RcghHk4vfrqyyCDdjY2ZPz4GlUp0lL3jd3IHoT8vc3HBXCJEZvaSRnYbkCZEYHU8DvQzRWBG6oByqOiY4cC9xwFTe1lB8p99/37ULD2uenna8Pd6ZvFm2V94iWTfiauiblh0O3JvjQZ3PWyHvmiQyUFfw6sFQZvpi8ds+PpFdffVU+cu+QlJhAEVNeMWmpV5ZRrwq5RMLk8x3XX0MuAJyYaYs+oR2Lyyb3oTyRHnRdh1ywLELWp0IucPSG/DVSh1wOHTpU7PU/Wo/4+PgUSycEjx0+bzNtipZU7YD+NTNo21/T5D2i176dRFdqPS7vEf3PK5b+/Cq/hMEc4eTsTGm9PpX3SgYsk+b+PFKjTXwv4eHpRbFPfyvvFY4s8fmQvFcWsPtJQN6uEEAD8OA/hlNuVjqb/0/OPU5d6/tQHS8p9u8Tc4N2+CVT205ded/ckOZ7gUKX/EC5qYlMHJsCc9hyUXIX8P3Cl42lLEGiuH/O8UBOS+/UKT+SVBTQGE2wk7S8Ere8vFxKi4+ieLGUcvMsOiXdy8uLHu77Kh2+GULVEiXfTuW423QqII6adHiQHb4tuj1Kp8SSyydWyjNpZJdA6/YcoU69xLLOTFGtXiPKjgvnpWlJUcPVjvYEpJSJ0FdxUbt+AzHm46iyfM6NAXPhYGgmPfzww/KRkqNCLZH0lw3QL0FvZky+G+vnkvfNndKkEhMg9pnR1O3R/KusOSDh9FaK2jSTrS18/p2RDnT69Gny9PTk+7OiQyhw1ntswSjkAp+MYtmYAjiMub+OAUCmc2lMVc74NRUHVv9Ntc8vk3bEeT3l0ZHe+G6ytC/w37zJ1Dxgl3TeBXam1aQR05fytjkiOjKC4qbn5xqVBB9t8+ce3vcjqxlpCps/e45auxduRf1214XmrtatWysJKtQSKXzlBB4YSsbp0qVL6bHHHmMfQ5fBIymm0WM8CfAY/yVjuEeRuSB2/zKKXP+7hlxW3UqhnTt3asgFYeHQf7/XkMuyawksR1AccgGYXDB5DN0ElPavpuKxgW/T1bqSuh5eo2vSOfpvfr4sxPPvf00BrV6SzrtAb5cwGvvKY5oiQHNDlWrVKfPB0rX2GNLam+bMmSPv3Vsg9+jZyeu5nW1huHDquEb6tDSoMAQTd2QNZYTcZHJBm9V58+axNKM2Hhz2PV1JkZYaHas60K2Fo3n7fiM9MY5idv0t70kZl5MmTdL0Dob4k//Ut1j8CeSy5k4a9522t7fn+0sChKK/PBBJc8KqsANcQUnM5hc/+o7COg+WeicJkmnuv5OW/JKf1drrjQ/ItXG+f6ixQ7JG/sEcUf/x/mLmlHzqwBezdWu+0/tew9nFhTbZtteQuiF83L0BqwiWFhWCYODMRaUvAMula9eu9O677/K+Pp6bup7sPaWrfnP7OJo+fKCYE9LV+34BnRCvZeQ7Tf99vQO1biqFOmGx3P3hWe7qB3JBvgmWTaWtJ/FPd6DNxy/TtMWrqOGoNZrBWFyLSMGjAwbRCbd2GgvxobTLFHjjsnyv+I2SpL5OuAAMEhcAWJXmCncPT3IZMr3QCVoU4m6cvq/j6suxk+horT58EYEwPLeN1bqhT1JZLOEqhA8mdPEoSrl5ksnlREYVOnlSko/ElT9292JubOYy+HeqXl3SP8lMT+VcDoSyMYjSBky4705fLBk2ibUzq62JnwzWgGP1BpSBCmnxOUEuSy7H0tWrV3XS9YsLRcB7XlYHzndRAH3dk/6xdMClAy1cuFA+WnysnDyKOsWf4vfAuXWsWo+y4yN5aQZyQS/toUOH0vz58+VnmC82fNKHWruVTCwbIeukHu/SBx98IB+5f8DYQnId4j3IiQJwIVm/fn2pG7FZvQUDXViFXBBxUcgFiNwwjWIPLKesuHDa/21/SkmRchwcnV0psvaDvI2JcOn3D8tNU9ZUYO3cf9Z2CnB/gCcmyJGjGTK5/HkiqEAtUHlAu2tASfDq1xPoVqM+0tVfnFtkIivkMnjlBV46WAK5AP1mbpO+RwmAZdK+1YvkvfsLjK3nn3+epRoghoUb5CXKosuj1RMM1PUBEMyVK1LlLxC7919WXlPQqaYLjX+1p7wnGLzny/IWcaOyXz55R967v+g1ai4FejaV96RM2bkngykwMLBMm5YXMGzl/bKoUfnfsC8oqI3U5QBQ/GJwWj/9dMk7HNwP+DuXvIfTC7UkkXJrhlUTjP9vgzQ1Oi+//DK5u7vL94g18KGVPGkwuBlie2gbbxo38mPebdaqLaX0/oq3gQH1bXWsn/uJx7+eTXccavP3AnGirQcaq5UljK2cyyq0+ujLQ2ljlJuGXFavXk29esnRJgtCt09ME0o3BJRiNGnSRN6zTlgtwaBvc1aM1GsXE7Ffv/zCuuB5n2nCuRCtxiRliEnVIOy4Romt/WPPsp8DgBVzbGfZ6LSWFrAiHv5yFrUdPIp27dp1T2tbSrtEUoAI18ezV1NgqwF04MABvgBYIjy9K3FHhpKisXtemWXNmiOslmDSgq7zf5DIW2+9Ra+8IpnkIJ20wKu8DWKBb2XKnuuU8dCbvJ7uJq4qGxfO5PuBKkOnatbZVW/tNJvBgGzZYcOGldtV/174/hHpGjVqFPXsmb80tUS8/NV48nUsnmCXAshlwAK1VlglwaC6OGzpGLZIQCIYxEBOdjYFTH9H4xj94YcfqH379tw4vnGvV8jWwYkf17tyCv3111+87eLhRXZucnq8eL2vvspfNlkz0FXREMpKJ8SagN7gzQaVLGcKy6SvBvUrM8vQ3GCVoyXlxkkmA6zv4Xdp3lySYcjwPU95OVI1KYinf//+vA24uLqSrauUFQsrZtfyBbzNE+rRIZJ1I5ZJsTfvbzTpXiE0VFpe6uN+pLdbAho0bkKZD70l7xUP73aoVqzyC0uCVRJM4oU9/P9UYBy3zlCQGR3ExAPrBSG4du3ayfdIqPGeWBrJEyjQ9w7/Bxr1eE5j3dTMibHaq402jCXqqQRjHLW6/08zfooDhKwXTvxe3rMuWKkFc5z/w4KBIr6CmJ3SsgeAsJI+XCpVJXsPScdkePcGtH37dt4GnOu34v/wTXz99de8bc3wysoPn+akWHcotaxQqXJVcho0rUQkM6CeDS1bJheFWhGsjmBYakDLwtAOA2qrrGmHrLXhXF9WVBdEMmVKfgjSxlaqx0EL0KNHj/K2NeOHdnYUf2w9pQdekyrQZZhrEaK5oF7zNuTnWPwENVgx6JJpbbA6gkkI8ZW3pCWSUvAHJTLomgAw8xW/jD6qvfwNX4Hgb9GJpGhdle5FhMUcEPXfHyzJyar08neuKN+9NHj6p7/J1rH4tWBZQdesbvltdQTj6iPVEwGwNpQJkeZ3UTNJQDDGWmbYOTjKW8ZhzX4ILCs1t6CE/JvYB2FD5U5F0Qiv1l7eMh0Q3IYusjXB6gjGyU2KBCmApiwQn55/ZSiMIKAIB2BCaQO1PwAmGQSvrRX/RlXm5MOP/rtN+53aUe7Tn9C8ABeuE/ovOI+buKsoGt2Hj89PbzARWCYFXpT8h9YCy6mmFh8TzciTLu2n1NtnKCclkUPOmPggDPc2PcnnsdfpzPIZ5H1jJz8FvpYP52+lFi1aUGZqEgXITcDQIvO4r+HG5tCyTb1zjp97272ZxtEbOPM9jVSirYsH1Xn3N7aKEk7+pyEfDCh8Bud6rchGLM3yBH/bOUrRJxUVD6d3biDvA7PlPdNwOiiRBvx1hHNrrAFmTzBw2gb+NohblSpLHFMBK6TJJ3M0wlKKFAFM/nbfLKI2bdrwcW3AoZkZFcSCSzNXb89/7uindJzHpmLemQj6cd0xjfKcioqF43PHUJWAI/KeaXhlZ9x9r94vK5j9Ein5/C62XJgYFN+A3g3WBv7rA45alKErcGnQlv8jkW7Kt5/wtjZSrh9j3V681pngBA25xB9ZW4DctN9f/6aN9tWc6KWXXpL3VFQ0PNDvQ3nLdHimRVqNs9fsCUa7tQh8A1Ov5tCNhs/Sr5cy6f2NN2j0kWhKafo4F81tr/kCban2HM0M8uJMXUz2xm65mtBqYpt8xfqnKyXR4cOH5T1hnGSmU/jK8Uwk8LMopJAnfui9K+bTrMO+bNVA/avj7FMsfn2+xmN0pe5TtM+pHe2waUFRnd+klEffo6ttBpFD5XxdFv3OhyoqDqpWr0FZ3QfJe6bh3U41zEoPujQw+yUSdFti9ixmsvhsZwC3KjUligNlLui6os7o22+lfjAgmpDZH1BGuBTKPuLYkoaOlfogRe9YyBIOUM4HkcFERZ0SMHv2bFbnR4HhiBEjTIqkcHuUeZ/x5551x95spB5U3HvExsZSzNSBBazgwjB41WU6ejfC4iOWZk8wcQdWUPTOhTxRSyvXCMTFRFPMtDdYnV/8ehRWvSO1fKAhxR1dxwMAy62oOt1oxYoV8jOKRm5uDuUK8rLXC3Hf/u5J/tzTbhCrhamouAgPuENJ8z4wmWQgqdl+1BJq1UrKILdUmL8Fs28pxexexBN1/LlUun5dkmGAFRKy8CvKTUsmG0dnqfVr3Rbk2flZyqvVgjwq5bcu1ceyiWhdeq7Ajw1yQbuPixcvGg1FQ2cGUhB43+itf1JORn4r0RkJzdjaAZBej+6RQL//InTU9FRUTBS3v/U6m3b07QTLzosxe4KJ2fOPWCYtYYL5dIe/RpQYXQLiDq/m7QIQlglEsZ3rNGedl4ZtOhWQGfj7h+HUI0esc+WvD3JBf+fLly9Ty5a6/akzwv0o6cJeij+yRgpJGzllzScf0Ph70EIkYPrbvOSaeCGdxbhVVGxALsRv7POssmgKoO7/1dIDZaKNe79gUYl2OutR9NgRAPHA8TpbkAPCzwxBANxrOuAK5a78lta825PC/W9L98l4+5c/aG+9l+i59cH0zZE47pIYFxenQy55giyQ6xI4812KO7hCWlaJ18Z7gpD0o1faJGbn5iVvqVAhwc5eWNl1mtH6y+GagMHs4wFi7PrrtAzB8gi3bnUrsZSoJcPsCcZGnrT6tUHaZHMhPIWm7rlOb/x7msaH1aUF56Poj+OB8r1EHas5UtL8D+mLoa/KRySgZQS89esPn+P/2rkquMrcHdOHgud/oSEVDIgWUw7SiK13KabeQ/T1ikP0aLfO8jOI6tbNVzXjvB0VKrQAIbTMqEDq36YGj+d6XZ+kGQfu0IyDd+n3fbdoxMId9MiISbQoohKN2OZL72+6SdHRlj2OzJ5gEhzzfSnZwsTUQLZgutWvxE3UHBwcmHQWL15Mk3dcokk7LtPqIK16I0ESH9aMNq0dpnjs3bF92WIBseBqM2TVRXryjQ+4tQnU3lBaDz9N3eF/8JIMj9Ou0I6H01gAIW9LjwSoKD2SLx/kMaVIX3z8SEPqXi1/XKAot2nTpjRw4EDas2cPW9OJiYncwdOSYfYEU6fzY/IWUbsabpSRITW6irP35okNMrh+oGCTbggmjV66i1xHLKFz0TIx4bHTP9TUJxnD3Z9fYGkHLIFQgzNq5iLW4h0/fnyBFO70AMm3AiIBySmAExjvBxjKGFZRcQD51rDlP2suWAr6eMbQpCF95L2CsAZ5UrP/Bg7OrhKRCHSo7kIRERG83fCRfPWw1pXtjZIGGpG9MHMHeXSQxLG71HKjgY934W1DCPn7G5Z2wEBAvyFElF544QWjCm9KeBv4/PP8fsuKsDhex5z7LKsoXyRfPSxuUqkALlho0aLdxWJArUya+fFr0r4VwiIo0r3VI/y/S71KbDoCdsJacG/ZnbeHP1y/0CgNmn17PvOhhpBeaexktNZD2yJ57bXXqHVrWYDKCFJvneb/iEC9+eabvA0opvDpoHjy8fHhbRUVC+gqGrZsLG+DXEAsx48fp7Gbz9Ipj058HCTzrHtkAf+gtcAiCMa1qWRxoIboxw/z064zGj0kbYgfacU3b4l/hsPHgKunN1V59j15j+jIEQMFaOL5aGMKYDDAn1MYkASIim4MnkcffVQ+itYoIfxaOP7YY/lLPBUVBynXj1PE2smacTDvVAgFBATQgw8+SN7e3vTE0M/pVFCi/GiiD2tEafpxWRMsgmDisiVVOiAyTExeGdXb9cBClbc/6FqL9vy3gbeNIbeWlBUJDz78KfrIig3j/1jWoBF+Yc5ZrKdjD0rdITGAsIxSEL5qgrxF9NBDMgmqqFCIWD+Vo0YYG4suRPEFTTvKiE6cD/28is5F5ufEZG35na5duybvWQcsgmBqd35cs7zBckj5EdBqJNA9X3M3YvUEunTpkrxXED6NWmhep5FbwWrVxHOSjgyg33FAGznJceQ7bgDlpifzAMJV6bPPPpPuFITD1d8CsILGjRvH2yoqDkIXjxJjRMqV2hpqw+TSpUu+3y9d9heiI+fLCw6SnYsH73eq4UybJ1tX3y2LIBgHB0fK7TmMt2F93NiTb0o2e2uUxorBEspt448UeENSpdOHjY0t2Tq5SjuCCPSRcu2YvEVGSwUggu07cSCTCztwjwVoygOApMsHKTsplgfXiy++WKgVpML6kJ0UQym3Jb8cLjBIlFMuVhBKu/NjHwr6+Tka+8VHfAyRouu18pfXA2pm0NQfv5H3LB8WQTBAHa2eM23CD9LKlWJ5IgAiqD9mC9nIfYty05IoY8nnwhrZRVHBsrdeCy4NpJCxIX9NTnp+XZF+xTSsFqypIYIN4SmQCyICCxYsoE6dJIcdpCXCVwqLRV42Pffcc3xcRcUA/Hd+k17l8YHfH4mcytiAiFnoP6N52QQ8EHmafH2lqv7/DfuCfJ3q8zZQ03efJphh6bAYgnFz9yCnfsJaAcmICZy7bRqlp6fzfY6OTuQxfBH9fTlec3/Eml8p/o93KHD2R5SRLEV08OOm3DrF24Zgq1UN/Ua7avwfGb3pQdfJd8LLlHhWWkLhyvTxNl9eqr399tt8DD6ZgN8G8XtjcGGNrdynomIg8dRWDbmsvCmWz7MkKZDcjFQKmDaUx4iCrnU96dKszygrS2ql0/unv8neS+rhhfv6dGpqFaJTFkMwQJ1Oj2kao3Wp7U4rJ+U3QINTduKWs3S+8kNSmYBs7WSE3KTA8f3pzg/PsHmKAQAgDK0PxxqN+T+WYZV9D9Kd0U+L5z1LQXNGMHHAakGpwCW7enyFgdavgsSzO1i0Co8BAa1fv16+R0VFABIro7ZKfY3w+2/atEnTuSJm50LN+EFWuIJWzin0eIt8x29cl/w0h+EP1eMcLEuHRREM1qv1Ri7jSmmge+Y1Cp73KW8rGPjlLzR511X660IM/9AKlKZrhcG9hVbERwwIVE5jUCgDY+jqS0ws+/fvlx8kAQMrcuN03oZYFQYGHL8qKg6SLu7j/7BeHnnkEU30EFZL/InNvI2LGqRYl9xI5X3ggwfr0K1bt3i745PPaawYXOTGfFQ8JTxzhNnLNRjCmV2byGv/TGkHloq4XanRk/p9nN/fF+ZlWFgY7d69mw5tXEZ3rl/lTGB8XRDG5ah0Sk3N/6GB5PhY2jjiaToVEMuPAZAohxqjtWvXcq6LdkYv/DL+UwdJuTPidUFCeF2UFVhDmrcK03H3p+d5KYSL2rerjvASGYAvEMt1EA8CAqhlwxiKO7iKonfM57H79tqrdPiWlCIRdOYApa/7hbdRXHvkToSmeaAlwiIJBtj4xwRqFbxX3hMQP5SDT01K6zGMWnTrKR/UBbRaoI8LAqhfvz7Laerju+++43Xx66+/TjVq1KBatWrJ92hBkFeQsJwygm9qrBwMoDinKpqrkYqKg5QbJ9iBC3T58yyPMYwtWC93x/yP/zf7dT/duXOHQ9NAclIihU3sLy2dghLIc+CP1LdvX1ZG9P3xWc24cuk/igYMGMDPsURYLMEAkKHcOH4EDWomh54BQTSujTpQrbd/1Ug9lBVQah/132xKvSvW0Tht4gZiwVVr2rRp9Omnuss1FRUDkZtmUsKJTTwOLtjUoYMHD/Lx6G1zKe7IWhaMX3wxmqujtaGoNQLPbwihGzdu8HbEtTOUuPRbHl/zomrQ1IWW2xTfou14hAB/WnOEoh9+T5ifsv6L+FFS756jOz/0Zi2XiHVTxY+8RmqKXwLAeRez628KXfIDBUx7m1Jvn2ULBkp1WBIlNn6Ur0wquVRcoN0NcEpYIgq5AAmIKsnX761bxbYe7Jo9LG8ReafnNwJ0qST5YYAje3bIW5YJi7ZgtIGQ8ZIlSyjj1Ab6qJtekhz8NPJ/JNvhR0cj/H9sH9Rk2iKBLlyslbPjwiVZTH3Ip0lZDp0NSaQffviBxowZw8dVVFwoDf2eXulLfn5+8lFJ9B1A5FFHy0gLd77vzUsoLJMqv/ELPfvss5SekkxBE/rxhQxjbdLOK+TqqmWlWxCsxhMJqUuI80xBBCmvC3dUxI/DzlqQA27iB8OPqejqTpkyRX62JNOQFR3M92seL26wVBRrBZq7G9IbUN/3vuQBo5KLCowpBfDrKcgIyffFFVaRX/8LuaBWjLUzZ87wprObu3QhlLFzZ34Ji6XBaghGATzuIJqpu6/Q/77/k3bbt6axQTVpaeoDtCihnibEDWhfVbiEQFg4ICR47386n0ljAqrT1tym3FTt5Y9H8eNR8Tp6tOTQU6FCKVPRBy+PBDCejGkJAQ7e1fk/wtJKZi9DsboFtK0iS4PVEYw2evfuTf/88w8tXbqUxs6YRxPmLKJ6ny7Q+fEUuD7QUd4iqtL6IVq24zAtX76c+yPh+V999ZV4WsHnqVBhCEhhUFBoVb74A2Bt69S/aVkwTzzxhLxlebBqgjEEpWZJH47VGshbRP/73//kLRUqdIFWwmi0pwD7CppWyfeTKOMMlklhbs6EY/kSIzpyrPJ7wAJq3KghbwN4rcz0NJ33NWdUOIIxBVbi91ZRQqBgNs3vEqXcPMlRyNujn2JHLm53vn+a7n7fm48Fznpfaq4nj5eYqPwe5HmtJYlWoKGH8WkWtX0e/4eVo5QW8OvJr7n09Q6UtGEyS4CELBxJd8T7Box9jj+H8plwg6A4QuWKFIS5QCUYGTZagt3BwaZ331NhXeDkuF/6UfD8z1nXJfHMdsmRq0x65SaOZYTeYTJS0L9u/lKoZutu8pawiKsbTpFAXpVCJFgieXhIujCZMSHicL6FgkQ+VGkj/UJ5vOZzyDfoSCMf56m2UiKfuUAlGBmOVaUIAEzawMD8nkoqKhbSg29oJjEmvXJDFFG5KcewfOEopQz4U4YOHSrvEXk92Jf/Y0z17pAvjKYgN1WQk3gvvBbw0ksv8f/E09v4P6C8h/IZlPfWvynoUMOFkz7NBVaTB2MqsuLCyX/yG7yt3eo1KyaU/GW5hbf2p9CJEyf4uIqKheTLhyhs+Vie1ChuhUg3okDwj1SpUoUfEx4ezu1z5s+fT3///TdlZmZS13qVqGtdLzqS4q0RlA+6dYXSF0kJmNDf7Tlpg8aRy5bSj304ZaLppH00atQojYzroD6P0c2rl7g4smrVqpxv9fDDD2va4mDKIpqJan40x3cSKyv7NaO5Fgqf+7j3g2bTyUIlGJlgoETmN/EVJpgnl91WrZgKivDVkyjp/G62CoKrtjdJdgMtc5DoGRsbS927d9dJivOf+hZfvBC53JNZlz6cKpUGBC/4gtJ8L/L7/HkiiBISEjTPQ2O/CxcuUMeOHXW6jRYGJIoGzf2Ec7aOeHShuXPnyvfcX1TMJZKBsKGN+FOAYkgVFRPZsvA7nK49e+YXzUbeOEc3ti+n0ItHKSkiiDJSddUPUbby1FNPFci4vd74eWlDXLh6OQZx+Qqcw3Aiw9qYczyQfX7az0PXAXSj0GllLC6E6QkxlBDiS6f/mUxH5/xAW7bkNxx0qilpGQGKEJs5oFgEA3Mu8NQeig++Kx+xTpjTD6Ti3iIvT7JoYdhrG/eJy78nu0N/UcrKHyl8+hAK/KUvR28g/o4C2OunDsmP1MUzL75Me3PkDF/xeml+F9k5jG1oB82bN4/F0gwBNXQomPQdP4Br64ImDaTI2e+S942dVC3oGEtyKsgIy5+TmmiUGaBYBBN/aDVlbJhIUXPe55MLGcCA34dyiAxebggvxR1eQ/FH1wumP0aZKbrVo+aMzJz8waQsm1RUQMikAp/K6dOSeDdg62ggG1c8NiclnuKPbSD7DWN5Dpzcvla+UwIsoSE/z6Fjzq253kgBHLaQBnnnnXfkIzLEa2IOIQwevXUub6NDgfK5tBEaKpZeMrK1EvsMyZDcLxSLYHJlwWL+suKWGRnIoTaEyBCnjz+ylhk3assfgul/oIBx/bjgy3f8SxR/fKNY2+5h5a+Um6co+s4VSokO00laUqHifkM7gU1bkMyhsqQLBJ8JtF0Gr7rM8gzaqomYAz6H/qTo7fMpKTZaPir1SR88Zgadq/YofXnVjYYezqBnhnxcoDcXtJ9xscYcQhhciSChdAXv9/DCS5rlPY5XrizJxwJ2bl78H45hcxI7K5aTN+nifkk1XwBf+pEmNXg7K0NaUqC1K4D2IcUFMh/dmnQmr25izYo0aXGSspy9yaNmPbFZdiYfO3mnvMkEqe3kTYuPoeDJkpO33YzjBdTuVFQMoGsEHKaYwGuS67C2LgDfCZY3OP5PpA8rJQIxMTHck7ydcxL1rSKFnRUcr9eXBn1omoxHxPrfNOFpvAeI7EJ4CvuBIAWiZJcH/TlCfL7r/JhlsdVo+/btfDx85XhKurSftWdy2/XRaaVzP1EsqrP3ksJ0ALRFRy7dR1N3X6UxG0/T09/MpNRH36N1KXXp9T2J9MrOOPp8X7iG5XGDiYgTYwhQ/E++dpRCFn1LIX9/TSELvxLrzWF0F8LbP/Zh6wjrzMwIP7Z8OF3adG4sFtrVcJO3VFQ0ONeW8lWQuwJ5SwU29vmJmJBQVQArAjIhX87fQJW/Wk3rQsXyRLYyHgrcTAum/crbhSFBEItCLiCWd9dfo+rtHuFQ+K5du3RKV7wf6sf/YaloO4Y1ImgCFmvBaEsDtp95QucHKAyoQkal6G+//UZ79uxhSUpo5raq6kJJCQnUpY6Uwdilrjf/x49rKlAd7dGhF/n0GkzZZE95Yt/Fw4vXvoagbcHA1FVaQ6TFRwsL5lU+jvXxyYBYPq6iYiEhxI8vbMAnu4Jp+9mbvH122TTyvCoJSH183oF27DAuBHVh1WxyuyQsHyxzxEX1icmbDUuvCnCX0Akv8+viIrzwbHih8wpOZfh9QET2XV6k33//ncXU/McP4DwYjN1F24+wfIk5oFgEE398E0VtlsS2T4ck0+v/nNCwdWmBJQnK0k+dOkXLli3jRLcONT0oOyebutaRwnVYgpm6/LLz8KHq/b4gxxoNyc6zChMRSMdYHkxaXBQFT3lNJRgVHMDAOBi06hId95WU5jCJfcf04ePzzoSz5V4YQhd/x75GYNzlPPpni9R1QBuYeqgtwmuCMOaeDOakPWOAlY8yBvzHxRHqeT169KCcpFjuNorX0b5omgOKRTCQjozdL+uDiskKDRUbOwduTsaH7B3ZlKze/0tybdK5TMgHHy8pKYlPPE4cUrEhwNOptqfG0oHHv1CrR3wOEIytsxs7pFlUSsCYD0YlmIoNLMkxiWF99Jy4QdO03k9YGmgLjOOPTdpotL0wgOAFiiIxnpDF+8bS/IiUgoxwPwqcIVlLIAbkwxizdAD4gIIXfMl+lrueLTQynOkBV1mEHkl2X+8P04ku3W8Ui2AurZtHLmdWy3uFwACx2Dm78wS3cXQmO1cv8nnsNXKq9QCRoyvZORqWUCgMUG6Piori1iSHDx/mpCOIJret5iKWXJLFUxTxGCMYXE2mH7hNtmaUT6Di3iF81QRKuiB1rHh5ewxn1QIn/xpPPnckS+Tfm2n08/r8XuaGELn+d0o4vZX9jhdrPaGjoAjApxg48z2+/69QzwL9tvShyGtifD744TjufAH4CqsmJy2JiafW/96jb7/9lo+bA4pFMMhw/eKLL+jo0aP05ptvcm3ErqVzKSEuVseaAIr0o+iREAjI3qcW2bm4kb13darSe5gUeiuBFYRU68uXL7OvB1521GWAeFArAijEo21OpsZFUsgU8YPJpwMNsByr1uXoll2XflS9hdRjWIX1IzHUnyJmSfkp3xyJo/WHpdqixPg4ipgs+UswLn27fUC9X5AKFA1BsfhBIJ9s9+NSAm0knt9NEasnMWE8+ulkTbGjIaT5XpCsF/FY9FeCXxNLfjQUvPPjs/yZUNO0aNEiGjJkiPys+49iEYwxgHhgRaCeAi8HfwqsC9RnxN06R1HhYZrJDZiypNGB2EfLWMgLwgrCLdKxKjV64iVy9/aRH1Q48HmOHTvG/xFWhCPt3Xff5UxKIC4miqJ/FwRjbP0qPoNz3eaCdOqRR7snpCWgCqsFCl+zokPobHg6vfjnXo3s5ZklU8jruuzgFWMip99P1LzLI9K+HpKjQijsd6k7Y9e55wo0tEeGLpLoQBqPfT6V+vfvL9+ji7SAKxS66Dt24oJENm/eTM8/L5UgIHqEiCteAzVNiDxZbBSpNIClcP78eb6BkMDAcOiGXThMmeKkaBNOkQQEKCQk/jvVbEIuDduQW9Ou5NKoPdmYsLTB1cTHR5ecUB0Lvd3XW3gyURb6OcT72jq5kUf7J8V7tyX3Nj3FoeJbWyrME3f2b6C8XbP5d16d3ZJGT5aCGxi3B6d+QvUSpOgS7g/vMoR69MvvK60NxWFsiGCU+0AOH8zbUiDyAz9Q1H9/UMKZbfw4RJm2hIjPdueOZqz5/vyitDwSr/HkV9PohRde4OPmgntGMIUBPxpas2JZo3wcHEOjKteMeLp74xo1cEzlLMuiJr3y387Vk1wbdyAHseyydXShiAwbqtb2EfKpadwxpyAkJIRWr17NP+TKlSupqZctR7Lw2T5+JF++UAfiPfE+Xl36cAQru9GDVLVOvsq8CssDMtBZW1f8tskv/Ewdukl9jMKCA2n/969Ql1puPPFxv1vzh8il94dUqbquk/bO6Ke5hq8wggFxTNxxWSevBSUCaMoGkgFAIH+di+ALoyKtCTEsKO7hPrwGkv4qVZJcFOYCsyAYUwHS+ffff3mpg2VYvFh+NXaWfgCTrR5xs3f3Ie+H+5GdeyXKqdqQKtVrKj/AOOCZh9ceVheiWjXCzzLhIXfH6PsKU9W1YXth5TxBSXbuVKPNQ2RnwX2GKxqibl2k+EVf8DYiQd3HraEGDSTtZoyB+V8O0s3eFWPLzsWDKvd+hzIr1SOnxDBBAFP4fkMEo0SrAO/uA6hSj5coMyKAki4fpMSzYhkmngf/DXRp3nrrLbauGzeWqqbTg25Q8NxPmLxAMA5d+3GembnBogjGEOBT+fjjj3nZhYgQ9nt6p2rKF0zy92BguHmTZ/te7GdJzHMkpyq1qVKN2oWWKfz333/sVAsKChLvmSbeM61wwhHA+1Tp8z6lOHqJ96hDlarVpLJucaui7KDotgC3qCo9/sPfOpYGxp7L7YP0bof8boyGgJ7VCD5oQ/HzGAKIBcSR4FKNVq1aRe3atZPvEeQSeI0lPZWIEiwbRFXd3MwvA93iCcYY8LXQiP6nn36iu3fvkmd6NLWU/czFsXZs7Z2o5htjKLtyffKsXE2+0zBAcj/++CNH2WrYpVMDhxTqUseryPey96xC7gNGkWedB8jJVS1TMCfERkdR7LQ32FIAoLviOmA0Vamtu/z9/vvvydnvBEUF+dGI7vkdKgCQxQebbvL40EbEml8p8dwueU96HIDlzumgeHryySe5VEABdHrTbp+lkMXfsXUDckHPa39//wL+RHOB1RKMIUDq8MUXX+T/AL56u1qe1LqKE6UmJlDnuoIMjGUKC7JBsp5zvVZU+anBlOFenVzcPAolBFyxXnvtNc6jaOZtR+2rufAg0R+AGuA97B2p+oCRlFOrBXlUqqIuqcwAvpfOUO7q0ZoETfxO5ys/RC9/PraA9Yl8rI8++oj9hy0q2fMYw82mZtMCMqwBvnfo7b69KE0s9++m2HCkCo0D+/TpQ7NmzZIfJSEnJYH8J78uKRqI11PIJSAgwOz8LtqoUARTFHAqoH1qF+VHnWq7s4/FqFMXUKwcRJMG/khVmrYrsvIbA++bb76hK3s3UufaHpQrlnUj8B5Gfgan2k2p5rDfOBmxLKvKVRQfo57vTENba12AxG/v9cF8qlqngdFl7tmzZ+n69eucN1YiiHERJ8ugKECm+ZXoDJNrAe8nVIIxApizsEAGDBjAPYNhdeBUGV1ewfqwcyBbZ1fOkbFt25u86jcnJxddCUVtwGmtLKvOb19DHWu6Gvbh8Gvbc5TKrWV3qtbvC9Vvcx8AH9+epX9Soxv5zdL4AuPgTM4NWlOtIRPFrhzJLC3EWIN0RGaEv7Ba0nkfS6i3lp+jXr160bZt2zQi4OYMlWBMBBKYUJaAqwYyg89tW8XJg0WFzbHkgcwF/CzVB00gByfjfYoRmYDYONrUNk29bdyCEq9r7+HDIfiqb4wlJ3cjyzoV5QIuyP3qtYJLXfwu7pXI1tWTLzburXtQdq1WlBobQZ4NW5NPjdryA0lYrtJyy1ZcOABUSEOoCtEhFORyfZ88NRWHL/wy8O917drVrGQxC4NKMKUAitNu3rzJ5RMuCcFMNDidheXKwElo5+LJIezrzo3oydfeM3rVQ8sMNPKPunycJS2MRahg3SD65VClLnn3+ahQq0lF2QDWzJEjR+i/ccOpfTUn4xcZGSiQ/NPPiZ+TFBtFkTOGaELUxqAQC7SX0LrkvffeK7QY0hyhEkwZAhYI1tsIW1+8eJGSj6ym7KzMQgkHcGnQlmIrN6O2A97nfUNAEhXK86Gk5nxjr+S7MeIsRg0XkgztegxSk/3uAfbu3UuXLl2igI1zuIoaVi2gTTrK8gYZ7XD03/3hGZ2yFCWCBELBBedcaBL9+uuv1KxZM3rmmWfE9cgyl8QqwZQzYE4fOHCApk6dSq81zxfWMnjFEwPLrWkXtkRuZntRl979jFojaO6F5lsHV/1FnWq5GX1NWxcP8mjbUyzTqpPnIy+RvYP5CEJbG0AekNhEJjic+aFXTtOn9SXhexDIkFUX2e8G3P3pea4tAqEgLD1w4EBq2rQp1axZk5577jmNRISlQyWYe4zbt2/zIESo3ObyTspMSy00bO3W/EFKqtmWHni8v9GQNdqs4DVBZvZX91B6arLh1xSvB83j9FptqF6XJ+SDKsoTsfuXU8yuv5hg3ll7hX15gP/UQZQVE8Lk8vas9TqJdNYElWDuM7D0QTJgwt3LVCk5yLhqnyAH74deZB9OuI0XNW7bheyMRBGQ1fnzzz9TjdjrFBXsb5RsfHq+RimV6lPtjo+p+TblhMSzOyli7eQCFkzg7A8pI+QWE8znS/ZqShCsDSrBmBkQJcByqkd1Wwq8fomGP1xPvkcPgiDcW/Wg3JZPkGutxgWK7BRAE+evv/6im8f3kW3wZfqgW+2COTf8Wo9QSqtnqXG7rmK3jEKtKljQO3L9b0wwg1de0AicQWgKglMgmOELt/PyyBqhEoyZY+LEiXRx72aqnhUl+VmMWDcIWVd/+WuKSsvjcKgxnZzFixdT8K5/KSokQLJsDJBN5afepsxGXalG/QfkgypKipg9/1Ds3iUFCAZNC9FXDATz0YJt7Mw1B+RmZ1FKTDi5VqlVJqFwlWAsCKitQuJf30YulBwXY9x3IwDnbqV3Z5N39ZpGM4CR1n7mn18pPjKchnevX4BsWF/5pW+4bMG7qtQDS0XxkHBiE0VummmAYASJRwawkxcE07x5cz5+L5GRnEC22ekczcoI96WYXYvEZ/LncbDO66kykd5UCcaCgUrei7vWUYfqLoX6bmq+OZacGnciO0EYxnSGIS269/evuArdGHFVevQV8npyMDmUQEO5ogKyCxFrpzDBQHYBS1ZA2wfz4fyt5UcwYnrnCKvElqRpnhZwlcKWjaXcdN3CS31MjX1Ao/ZYGqgEY+HAz4fsYpQcQDOkZYYvH9PJvZF9KkjIc6rVhOp+qFtIpwBhVujsjBo1imwubjOcSSxeCyULnp16U5Xnhotd1V9TGLQJ5u01lzVtSQJnvc9N8MuDYLITY1iHBrIOlJsjlj35WcGa/1rAZ1OgpDr8Ht+U/vzzT94uDYpFMFDQitwwjU1nW1cvHrCQp0SFMSISDlXyU6FV3B/g54Q41oYNG+jWqt/5mCGygb6xR4enqPJThgWiYcojUxkSpwemj+TEPkNkA61k57othJX0k3xQhTa0CUYnTD3lTcqKDSvVEglh7oST/3H/JZQWgFjyciQLqTAiwXsqQPkBkviQfzO1d0PqWFWKTC5z6sHRzdKiWASDeD7i+kYhD16oeoFs7D2rUrUXP9M05lZxbwGSQDXv6dOnyW/jHG63a4hsUD/jWL0BVXntJ4PyE7COEN3CgOvqGGVQ4wY1V8gerjHoF7XqWwvGlkh+v75O2fERJjl5IRORfOkAvxa6CGQnRlOWeG5hJILWstrbsDThtEVW8HfffceiWWh7W6VKFXJxceHHAf5T3xLEFUrLnR+lMWPGyEdLjmIRTNyBFRS9cyFvc0qzYD5ENvBFDWamKpAHMkNsO1SqQY5V6ohB6UQ2Yj3v2ekZcm3UXvdxKsocaN8LXwssG/zsBi0bn5pcDV75f8MN5sZA9vHQoUO0ceNG8vQ9XJBsxOs41WjEPa98+n5a4f012gSj7eRVCAY1So+MXUENGks9sTGX0oNvUNzhtZSbnsRqeix2VQiZKBbJ2ZBE1oZBL+vevXszcTzwwAOcYwO1uyKXs+I9lB5Lf+V14Tq40qJYBJN89TCFLZXMJjQtg1A3GoGj/gYC2WhbEnvzLDVyTOPH4KVNUo8DxJeHoJM9yKdafa4WRudIj7aPkUP1hmSr1XxcRekAXwsatkNeNPX0FooJCzJs2Yjlj1uzbhRZoz21frhg5i/8NShXiA24Sf57V9NHD+qlt4sLkGfH3uTc8y3yqlJdPlixYNSCkbtEAnbu3uTeuidXUmeE3jKJTC6Ep1CbNm2ob9++vLyB+l2jRo34PpMg3iP1zllKuXVamLrZPFclC0ny13x2yVnTObI0KBbBaDe/7zDrZAEJQAUYwOgzDdMcqfHYR3ap/6l9FBsTrVHoLw75KP+hveFUsxG3J8GV0rXlI2oHxlICpQZw6KWd20Hh/rcN+lpsbARZdP0fJdZ/kB5o302+Ix/wLaARe/yhVdSmsj3pRLTE82EZebR7knKaPUrV6hVjIlg44COJ3DidCeLjbb4a4e+7Y/5HuZmSbrQ+8FhliQP/SFieOxMJljNQvXvnnXd4eWMSxDzLCL0tyOQcq+EhcpVy86R8p4CR6f/FFVfWnC4tikUwStozMPdUKP229zpvFxdoyLZmzRomHdTkwALqWK8KOTo7Ua28REqKjzFt6QXIg9+5fivObEXLEOemXcnBWZUsKAkg67h06VKqnxZIQbeuGCYbYWkGejShqt1foDaPPCXfIQHDady4cZQdHUzpN0/QsI5VdQexeD4a16W3fpYatOogH7ROYDIHQfk/O4vJ4vNdgWw1AkobWG3LBEuY82HJ1KVLF65N6t69O0uumhKpg+ZMtt95fq+suAi2RnJSE/LPvZFprry/vs9m2bJlmta0pUGxCCZm92KK3fevtCO+NFp/uNRvI75IIiu5oc2qrb0jZXtUI4/qdUusuoaPhO516E2EKyP2nVMiqUpaGJ8o7BcY+NrQ+kFw5azU4xXK8KpFVZt1MOnHUiEBS97333+fGiTdotREcQU2QDaVHn2V7Dr0MVqqMG3aNMq6vI9qZYaRfp4OiKryU0MpqUZrqte8jXzUQiHGJISiMsLuUMLxzZTqd0Ga1LgJYPJ+dyiSpTyAL4a+StP/WU0eHh68vOnQoQN99tlnvF8U8nJyxPIqmjLD/XiZFbVphlE/jQJtIgMwD3xT7ahz587s8G3SpAmNHTuWHB3Lttq+eAQj99otEpjE4gZVL6caDaXlDISW3CtRSo4t2Qorw6d67RIREFo4LFy4kMvhkVPQppY3NfW2o5jQQOpU25MMJpspwGcSBIjPUvnJQZTu6EletRsZLRpUkY99+/bRL7/8Qo9VzaXXG+s5f+Xz6tGmJ6W1fJrqtYA2se5vC3N7y5K5VCk1jN5p51NgMqA7Zk6PIVSnSSuLKLzMzkij7Ag/8TVyKWb7AkoLvFrgO+lbJxP+XkNPPGF6FXtWWgolhgWQm50gr/hIrmmCjwTvyTAwdfGesEBOBSWQo5MTJblW1zh48Zvg/SFeda/0ZYpFMMiLeL//0xQfE0OdIYqt9VST/SmA+LLKfyxv0HTKq+tzlG3rQM7eVfhklARQWEeyWTXbVKprk8i5G0a1V7Qh3g9RLaj5Zzl7ce9rV0/vEn8OawfEtDZN/FSQelDBrF/8poJsKn04jyrXNKxpguJL/60LqZlrFhm6ILg+0JGcnhlBlWvVM5vfAJM6JzGGrfWwf39ka8UQMMEVQvFLsydvb2nsQeYSTQONgV8/IZq7B0Ssn8qp+0wgRqanQl7K0gbv55/uwO/39ddf09tvv833328Ui2D0cfXqVY6pQxQ7LS2NCQe3DrU8OBzXqZakzG/SJAcwmDBABemQMJ+d6zRjiQIkcuXYY/nlQLni04J97Rwci2RhaOj269ePZS3b1XSnjjXcxOfKNl40qA3xOZCxiiZprm0e56WfaukUxFNPPUXtKIzaV3fWPafy74hwddaj71DD1h3Fvi5ZQDRr5KD+1KaKAw1/uGAtFF4jt/9Yatyuy70XyhKfBU5R+DTClo6hNP9LBie7QigYi1djMlmI+9NPP+U+SYWNT1hAlJHCxZBJ5/eIeZJtlFD0yQQSmrBKkNdSrZrUmK19+/b8GHNDqQjGGBA1wg0kg/8IZ8JZBWnBznWkQagQjiF5QYPQGpwYuMgmdq7bkmoPmyIfLRz4mtDiwGdC1AS9a+Dj+eghSQ6hUAsMkwXJY+LmWKUu1Rg2lRxdi14rVxTgN4Zc6IhX+7KmjSFfDci61meLycW7YPQDfrYJEyZQkztbDP4GyBiHaHqV92YZrRIvK0BlDo5ZJJtpC28rUAgFULJgp0+fTsOGDeOe0UVZXPHHN1HMjvma/kb6UMhEeQ+QCl4ToeiRI0eyLi/eE9EkS0C5EExRQO0MhJbQyBsVm9CaVWo0MNG71PHkbaDIpZc4+Uh7Fwt39umAANx6vUOeNU3TosXgjoiIoJ07d9KIESM4T0F5T5wao85k8b4Y9LbO7uTZ/xuqVE9OlKrgwO+KSVAn6oLu+ZMnHs6ZnbsPVRk8kVw98i0eOC59x/Wj3PSCvX6USffHsQBatvdU8fI9igAiObF7hRVxYR9lJUSCLeV7JCiEgkkOQqlXrx4tWLCAWrRowQLchREKljnoFACywtKKCwy1ppvyvbQtE1glHTt25JbEcPiCWCylg4Ah3BeCKQrR0dFcTwNrAxMe/YnQrMwpLlAz8YuyOHBzrFyHbF3cxaZg/HotyPvJwWTvlJ8WrQ+8rtI/GKYuiAdtRLCe7VtP/MjifqMSCeL94MR2qFSdfAb+QG6VK2ZimQJYNciFwu+4ddKn9E5bve6DuArXasKWKJAZHcKtO5QJqH0lx8SuX78+54JMnjyZLYXSADV1Cae2sOATlkDawPtqT3g0m//nn3/4P5YjxgAfSvyRdZyMmh0fyen8yndRoP2dQExYUkFcDCFpLHlatmxp0WRiCGZJMIUBV0i084CjEU4zZBDz+l2gSF+P+FFhbiOqhYQ99CvKadSNfBq3Jkdn48SjAIV/sLbQKG1oe6nZuTHCQRYy/A/ISHZ7YgiH7SsqMMSgPXN8/lhKSYgzes6UCYj6HEzuTz75hNPeH3vssVJPvDS/ixwBTbsrLCuEdGVovyeIDOFaXMxQG/TQQw8xERgCfCgJB5ZTZlQQ1wUhma0oQsHr9+jRg2U24DMBaVk7LI5gjAHEg2UOfAHoehd5+ZgmY7jQnBlAHkQgBTiUI93qUNv+HxTp1MXyCu+Fm9utA3wVK8zCwVIO4VjcPDs/K99RsXDy5EkunAzc/CcNf6ieziTEBHz++efplVdeMTnBzBiUpU92QjQlXzlMuZlS+QqA98T7wZdxPS6bBg0aRN26dePEMmPvCd9M3MEVlJ0URynXj0vWlh60vwtwKTKNfTOwUJDWj/eoaLAagjEG1NwgfI0G9DHXTlK7qpJ5bYq1g+pgZAiHJmdT7W7PkE/NOvKdhgHFOTiO0flxYBMpk9go4QjYe1cjzw5Pcf2VW/teFaqlCMh5ypQptGPHDl4Sv/zyyzRkyJBSXdWR5JZ666ywKgIo8dwuHYtCIZXLUelsobRt25ZeeOEFo5GerPRUyrhzRrymr3itnYKoooq0UBAmxnLay8uLicXkdH4rhtUTjCEgXRuFmihRCLt8nGrlxLKlU2QkycaWXJt1JdcmXSjWvQ41atNJvrMg4IPA8m358uV09+5dqhZ2lrIzMwolHDs3b6rU8xVKqdGa6jRpKR9VYQzQQ0FdTcLJLYJUAg0SgGIZgVD69+/Py1tjSL19htIDr1PsgWUFfDOAQihYTsF/gob28NXBQhk6dKhRsqrIqJAEYwjI6YHDDfVR2aG3qLmHFE0ojBBQGlHthU94aRVj50W1GjcvVJ4A0TO0mb18+TI95BLHXR+NvT58RUijT6/ckKq37CwGr3U5/0oDkErsvqWSYpsWtAngZkIuPf300+xHgS/H0OTPEec/w/8y1+xE/TebIz36Vg8AkoIUAmqE0BANmirmkshm7lAJphDAAvn888+5JqebIIRCm6TJYNLp9znFOlahes3bFlrpjeRELBP2799PPatkU1xkmPT6+j+JsJ5cGrajyr0GU7KDF1WpbT4ZrvcCmPiZEX6UdHEfJZzaWoAEQCjA3RRbDh9/9dVXHHEyBJBKZvANitw4jVX99aFYPfjdYh18NFIISK9XUXyoBFMMwG+A4j9UHP+vto1kgcCBbOwUiqsm9FAqPTqQ4tOyuSDQwanwBClUMvtvW0TRoYHsBDUGn8dep9xWvahyzTrWKVchzinyR6K2zmGZEG0opOLi6kYJzlVYHhRhbGPISY5nEaX4o+s4PK3/eymvh37Q8AGNHz+el1MqSg+VYEoJlEqg+HJIh+osSVmU8xjLKZ8n3yLnDs+wPGVhSx84qFfOnEAtK9lR++ouZLC8QVgyiHxVem0suXp6WfRSKi8rQxBBMoUtHystf7SGpkIC8Keg3gZyAliqGAKS9qAGF7JwJGUIy8cQoQB4vWuxWeyURWQLSXQqyhYqwZQRcBpRigDnLnIcnqoiiTsbdBzLyxuUH7i1eJhqvP4DO5CNAa8J/02dOnVoSLsqhkkMTmjxei4N2lLNIRMsTgEQQmYpt05JZCAPSWW5Av8HtFGQhoB8GDhWjSFi3VRKOr+7gHyB8loASOrBBx+k3bt3s1RBRVpu3muoBFNOACEgKxh1TxBPrhx4nEmoAOEoZGNnT3auXoIgWlP1V783OujhD0Kuz5EjR+js3+MoIy3VYO0PpDIgxVjztR/IuZ75RaSQpwKlN8g25iTF8j6gWCpItOvZsyf9/fffVLt2bbI3IuEApTa06MhFKj7qewBxnhUrBaSCzFxYPQiJN2zYsNCMXBVlC5Vg7iGuXLnCMqPQVWmcKKkBGiIHwKFybVboq9z7nUKvsChlwG3DT+9x0zRDSYWwbOx9anJWsc+rY1iK4n4BoeWwFYIYtTJfQQYgAWiYIDkN5Akr0FjYF0lvYct/poygG5SjVd+jvA7+w0pBsh6c9HD8IhVfxb2HSjD3Cagwx0RCktnGBdOpZo4kE2rIukGBoHPtpkTt+1DNNg/yMUM4cOAAK6ad2rmBbIMuGWwvgtfE6zmJ1/N47lPyqFT+yWBJF/ZyBAii1toyjiACWBiwVqCmBjGkhx9+mO/TBjKkI9f/zm1NM4Jv8b58h+Y1gOwqDdknVr16dU7JV3H/oRKMmQA/AxyNIImoXYt435h1497qEda1dW/9KO8bA1To/P39KWDb3xSvhMD1AHU/pzrNKNC9MXV68vmyi0jl5lL42smCXPZoCAVQCAF+lS+//JIL/JDFC1+IIcCnAn1ZQ6+BqM/EiRPZ2kEoWfWlmB9UgjFD4CdB6BVLqqzz2ykhOsIo2aCCG+UGaY0eprrNWvMxQzh/8hhdnfUJGRPaQn+e2WLSTl26iR555BH5aPHA9TqHVvN/qOmznoqAQghYtiD7FQ7WDz74wOASKCs6hAklUyylUJnMxCJu2pZKmlcdThf48MMPjS6jVJgHVIKxAISEhNCsWbPo5pGdVNcmwWhkCj6WSj0GkmOrR8m1kq4jMz3oOgspwbJQoD3x0RIDyWnIAcESw1SARFKun+AIkLalgdcG4LC9k2zDdUZwdhsUtRbPQe0QllFw+uq/Bj7jjfgcJiWk+qv+lPJDJrpB+F+maJ9mZaK7UyyCwdo34toZ7swIvVQV9x7wscBfAWdxK4qgqJAAg9YN8m2qPPse/4c2CYSPtCcuJr5jvVYseTl69OhiWQIYB6goRnUx/CrK6wLKa4MQsGyBZCmsFn2k+V6grIQoSji+kdJD5GZjWp8PpHIxIpU/HyQU0HNJRdkhG8WcAZdZ4AuJiHGHVkkaNjK+veXNTfVKi2IRTPzR9RS15Q9pRwxiRCdsHJzZAenZ5Vk214HkbBtyr9VQR7FMRfkAPx+u6s5+Jygy0LfQUgZl4qJQD/4eFOkVFygqDPn7W257qkB5XVQqY3k1Y8YMjtzoA83ekfIfvnKCjnwCoLwGokhw0KLdSatWreR7VZQUXBoReostTQhhodQC1iyjkKn/5VU3bh1UWhSLYExuW6IAV1JBQJ6dnyGvrv8T+9JVMj2HyLlSVXJUm6OVKeC3wTKkrlMWPeCSyVEpABMXy6CmTZuyJgkU2ooD5KggbT96xwJhuRyTj+ZbK1DPR0gY2rT6yEpNppzYEEFK3xiUjMRnQxQJAk9YRkERX0XJABGsvJR4zohGThDanGQo3QkMAOcfwNi4EptDH/dqS61cU/nxSx0fYUu5tCgWwcCMYlNbAANLQZd6wnIRL1PAL1AYZCclwJXDT79Nnu17UTYJEkLvIheVfEoDyI3CZ4F+RM8++yxrvBYXOalIt/9KDNK7mkGqkMqtxDwWnkYzfUOWUG5aMlu7ied3GyQV9FZGwhsKPdGgXUXxkJudRXnCCszLTOcsaC6JAIxMZ20ywTYsRfjDoCu8fv16TkAEAn4fylbqcudH+WJVWhSLYJA1GfLXSN5u9ut+VidDZzjIHCD/ACntAJyQgEI4eItCtVa0oRAPlmDiD61gFfIhNWJwzwCLQ9/hCmJAeBlV5g0aGF6K4erpO/6l/CWQeL7yXADPh9Tpq6++Kn5iNaxcXGQnxVDQH8Pz/SUGpq9CJso5B6nAx4aaq1GjRrFkCGDo/AfMGMYdI+8LwXAkYs4I3m79+xGWG9B2DkKgGxXHAGpGQDjoFqC0C5k9ezbLE3Ss5SGRjlbI1CQCAunY2nFjNKTCe3bpQ5V6vMyOTBWlhPg9orfN5UhONuQg5YuFQg5YxsyfP58dtoZEt5MvH6TIzbMKCHfjufDNoDdVpUqVyN3dne9TUTRAIujJhF7TKIXgBEOt6aoQiZK9rGyDOEAm0I+Gfg3KJEwhczh8fcf15yXxvw7d6eeff5bvKTmKRTDIyAxfNYG3TwUnUt+ZO0qcCYq3hbIclPuxDUlLpNBDiR69kxTyKQ7xQILS1tGVxbyrvvwdObiqg7lICCIJXvglpQVcKUAqSvgaNTxYBukLb8NaCRZLqEyxzs8Vpjqg/dyqVavSpk2buKuhmq9SNBLP7uRASnZCJMtLaJMJoJAIzi8IA4mGcKqjpxRC97AqTeltrQBEkuZ7kWL2LOYlbWZ0kOY9R5yz5+LS0qJYBIMPErs3v/k9ivOgnI8Tkp0YQ/Yelcm+UnXugpjX9hmq1fYhflxxoVg86D8NWctTp06x5dPINYeJBx9ZfxlmEPiMbt7kVL0h2bq4kWfnPuTapLMgI3Wwxx9bTynXjnPHQu1CQwze4GwXWrx4MctMGsqJid33L6XcOEnpwfkhauW5GPSQUkChYnHyaSoUxDlL9b3AIXo4YyFNgeREQ4SiXVsFEoFAOTotIMJWmAaODsSFI/7ERkq9dVp6v6AbUhKkgamvkNif/s4caSwtikcwu/6i2P3L5T0TgAnu4kGuTbvwkgb73KXPqxqledflxvNuVQtvXqUPLMvQIRKVymgNi3T45DsXqGNNaZlUpJi3AD6Dc53mZO9Tg6Ncdm2fpsqNrT8kiuVL1H9/UNLlAzrWCgYxHLeoWEZTscGDB/N92sCVLv7EJim7Vu+5KFIEsWAJhUiQCj2IKYZERCwjcR4N9bVWJrZincAJDoJG8iPIGgLlhclUAPh9E05to6zYUPEb5XBLlfSQm5rfSx/674mlrIuLC1ubEK9Hu5jSolgEA/Fq5FzExcVRs6rudObYYZ7YykuYZFXoQ3wxTHK3lg9zER4QmmZDDzw1sFh5NCCe8PBwLiBEsy8sucIuHpG6CIjPV5TUJQDiQY0Pllo5zR+janULViZbItIDrlK8uFomXdqvuWphcGFgwbeCpSlIBbII2sCaHGkJiATlJMcVeC4GJKQkkfr/+OOP830qxGkS1neCIGN0IoCQeGGiVziPsE5QTwUVPfwGiph4YYDERfzJzRxFglB5WuBV6Q699wGU91KsIZBJWJ4714DVqFGDfTTQGC6PZWyxCMYQQDYIgcKXAqcuMkwvXbrErUIaOGdTp1pu4jtLb1FcAsKER5M06NHaiBNuY2NH0Zm2ZF+9AdVt0srkZvT4jGglAtKJVlqXiM9UpLUjfgjHavXJs8PTFCXet2q7R6hStZryneYPhJmjNs+gpIuCWGRggMFaCchwpDfeeIN++umnAo7XjHA/Sjy9lS0W7aufQiy3k4iFtBFlKI71ac1AF4Kki3spze8ytzkxRCiKtYcsZ/ilkIwIETEUfRY2uZEsl373HGVFB7PjF10UcrPSCyUTxSrBe0GsHGn/cPwiMxq3e4VSE4wpQA9qWBXojHjo0CGOLEE4KdX/CrXwzNMhIJOtH1g+Tq5cUexSvxUlkDPVat+D7IwIE+kDFg+kLuHfyYn0o6rpwmwVn6NIUW97R9bDdahSh+wbdyYXd/Nrgo88BkSDNP4yAZAKbmhqhromQz170oNvUszuRbxWV6CQCq6ySNLDxECmbkUHfI4od0B2LKw8Q5nJAM45lo/ocABrYdy4cfy/MOThQn3lkLBSYihmzxLKzUgpkkyAeOeqbAkhPwkXDfzO99u5fk8Ipihgsh87dowFr+FXQbjbMyOW6tsli/Oaa5JfhSFIx6PtY+TZ6RmxbUuJGdnkJIjAW1gdplxp4VSGqYh6n0e9U7mLgCnvDckDnycHUViGHTVo3bHQ1iXlCWRtxooByX4SGRh8iy5E0cCBA+mvv/6Sj+YDVk5GyC32r2lqggQweDE5kFAHU3ru3LkV2lpBYlumOD+ZsaEUtXFGAUIBlHNmb+9Aia7V2DpB3klh1elYTmWE3hIkksZROTjfU++eN0ooihUUZefNCYogE3RRMFf9G7MgmMIA8kG2qNKhsUklR6qVG8ssr6TCF0k+YmLYuXlRpUcGEjXsQLn2ziYVayKnB0srNE+r7ZhFDRykK0nRVo4DVX/5W8qq1oR8auj6NcoDaL8RtuwnTfMxZaAjqQ3+EeRD6F/JUDUbtWmGzmBWnheY6cS+AIQ/76U5bW5AESBCt6H/fC+VOehBe8KfD0vmyA56cCM7tjDg3GeE3qGI1RM1ETx94LUB/B7unl4UZePBaQLwlWF5ailkb/YEYwzw98Chi/D12bNnqYWPI7X2sRNzxcSsYfEDuTV/kBunZeWJ5yGy5OYuJmLhgktY3g0fPpxzQ15t4SV1EsD7GdFZUd6nUt/PKNfGjlw8oPxfNmYrHH3IYVH6+ygE4Ztqx2HmPn368HFtYNIETH+ngLIcngdZhTVr1lRsh60YV9nJ4rzO/5zrr7ShPemRao/EwU6dOrFuMPKFDEKc45yUBPEvh5eshtqmANqvDbLCEha5R/g9LDk50WIJxhig4IZm9N9//z0187LVJOwVZ5kFQqjcfyQ5unmadKVAwiCu9me2rOSoWqGEI4DQvf2bv1G9RiXrw4y8I/+pg/MFnWSxKESEVq1aRQMGDODjOhA/s9/kNwpUQWNA43nItC1NX2iLhjg3KIsIXTxK6kagBeUcAfBDIeKCIIZ+xE0H8pSKO7iSosXS0xihKNYPXhfAcgd1Qb179+Z9a4DVEYw2kKyHfBl8RQhjQwENTl1t/RRDItkMQSzIDoYERZ13f2MRblMArd2xn31AbVKuGiQ0+ERwg9OvuJmSKNUIWfSdpioZgxSvhZyJixcvcqTA0VGvgb64IsNigdi2MnmU52FgwwL87LPPCmTpVgQg/I7i3VxYGFrEon1+sMTcuHEjW53IkjVUJqEAEZ7AWR/kp/UD8vRSXhMAseB8o1oZynwgLWNdEywdVk0wxoCIFkLXWO6gBQi0R+pGX+T7CiyvtCwY9C6y86xMtk5ugnBqUfVXRpOdAYdu4pntFLH+N50rFwbXH8cCaM6cOfTcc88VfgXUA14LkR3kVQDKYIUgEwpODVUzQ3clbNlYXu8zxGfBc3BDMhUSFKGH6+npKd1fAQBCiTu4is+jdmQG5xPAucHk9/HxYSu4devWRtXz4DtR6oRQ1Qxy0e7FpP+a8Mts3bqVXxu/fUUh9ApJMIaA03Du3DkOn6Mh14GVC6hLHWnyGbRyZOJBkqBz/Vbk8/gbbO2giXqa30XOiwAUMkA+AuqsMMBMgvg8of+MotTbZwtYHghH/vnnnxyd0LdYkq8dFWv9JZQRJkksKM/B1RhXTCRxKaX5FQFwYuN8IB1f26GqTQBYIiISg6UJSNdYGFnJhM6MDJB0VgCt6aOcawCk8s4773BmM8L7RSXOWStUgikEqIPC0gPRJFSCP+wSy0RUmJXD0JrYUI+DPAGkI00BBnHkplmUcvWwDrEoTljU+RRYo4v3g/YKcl/QKF77/THQYTWhhqWiaNkmXTrAwljIYM6Cz0ke4so5gV8NjlQ469Em5fnnnze49AEhQWQrOzaMU/01BKX3egAIHKJZSD4EoVQkEi8MKsEUE3CG7tmzh0ln97J51MRVslQUKwcDDjes2SdPnsxZmiYhN5ciNvxeQDgbxBKa68YJWiAJbaBADpEJZNwqxWvKoMfy6ddff6V3333XaEsQawIa5KfcOC6WpzsKWCoKqbg1bs9Ej7yewgox4w6vptSbp7ggUfktALwWgNcDoSC1H72cXn31VdMt0woGlWBKCSTnYbkCnw7ydDDQatasyQlWpoaj449votg9iyXrQ0AhFs+mnTjxDwNYG7g6Q1s15ebJAldTlADAafvtt9/ycWtGRtgdSrqwjwlBnwi0SaBNmzbsTDW29Enzu8RyFagbSvO/LL2W3nkFQeVWa8wFgEigQy6KiqKhEsx9BMrmgxd8wRmcgEIs12KzmLRQK6QNTAToIrN2i94EwFIMerYoRrV2oCoZGa9p/uI8yFDOA5ILX3zxRU6ZR6qCMSDFH6HpqG3zjGoFI9cFWsO4VeSEw9JAJZj7AKTnozEZ0vMBDGhEmFI9a3OSm754NpyK6MWM//rEgqQ6aO5CyNtSsjuLCywF4U/h7OOtc3g5CeAcwMeEXBIIj8PpjQRDQ6JLmSmJlB1yk61EROX09VCU8wmHL6wU5BJ99NFH8r0qSgqVYO4hkBkKsSY0GQOUQR3rWJnmzZvH63ltQC4hauufOn4ZPB5WDtLS4d+xVv0VfHecr5i9S9i3ok8GOAchOa4c9UFymiEHNnr/5MSEUPjqCayNov8agGKpYBkFC/Cll17i4yrKBirB3AMg7yJ44ZfcFhVQJsjdFFsuWDt+XEwgLeDqGn9kHUXv/lvnaj1oxXnWWEVVujU6FVH4l50UzcLyyrlSoJwzJBXCl4KMZURr9JEWH0PZfucpcuM0Vm8zRCrKMhTp+DNnzuQokorygUow5QlBDn5T3tRJz8fg/vNEEGvT4OqrA/FTQMIyeMGXmomhTCxcZaG1U1Z1TOYERH0iN07XsdQAfHdl2YJsV9ScGe1mIF7Db8LLGke5AuU10NT/UkQqy1Wgqtxal5PmBpVgygnwr8QdXqNJuMMgxw0OyBUrVnDdiTYgqA5Vfv0yAEwu9IseOXKk1WV/wrntN/l1LgbUJlT4VfAf3/23337jULuxHB5k5sYdWqkjkq2cO5AIIknIHYL0ZEUI15sbVIIpY0AYHYpjSvsODHZYIGledbjXr6EmY9yLJsJfh1gwMdCUDAJPSO23GojvGL5yHEfQDCXBQZwJZArfEmqrDNXoQH0ffbHho9FORgTwGogkoc4LxZvGLB4V9wbFIhikrYctHyuuDLbkULUO2dg7sc6Kg09NVpWzr9uKnNxN19G1JiB0HLluquRMFFAmTJJbDb6CdujQgY8rwOSKXDuFUv0u8lJKeTwmB6QgEE2yKotFDLPQf3/gmiolEU6bTBEKhpPVUF0VK7xd3EcJZ7Zzwad2BEh5DVg7WHKiST7El/QtRBWmAb8N0gBsHuhWJjIRxSIY1HTE7Cm6rzG0dB2rNeD+RGiOb2OLDo2Vya15N8rzrk1OHl5k72gdAwCaLOFrJnHXS20LBESB8gK0b9UGpBBj9y3V9AxWHo9WIZA4hHq8NRELCgyTzu/hJDYF+M6w6pAUiO9sLFUfRaPxxzZozpUC7XP8+eefc3gaBaQVpYCwrABtoLgjayg7Lpz7WqUFXNUs0T+96MQFn6VFsQgm4fQ2bqgN4AfuWl+KZBSmfVIYuEujkys51W1OjlXqcMfGvIadqXKjVmbfuwhMj06IijC2MmmgtI88FmTgag94+Bmi/pvFdTLaxIIrLyaZteVcQKc2/shanexk5fs++eSTnFlrSLcGfhkkE6Jok9t7yMNTeT78Ksh5gVg5fDPWKnNQ1sB4TRdWdsr145SdHMdWimJJGsJz64O5LKa0KBbB4EMh4QtAb2rU2iB/4MSJE6y3cubMGfJIiaDs7CwuBlReurjdBBTYe1cnz/ZPko2jC9kKiwfVylleNcm7bhOOCtwP5KYlUQzqf46u431l4Mc5VeGrKTRntAFpRDxWuwk8Hj/3ZDAXxiGl3xquvLgCJp3bxbIFSN3XryaHtTF69Ghuc2KIFGDhID8IBZvapALg+ZDxhDX48ccfq3U/RQCJiSASSElkxYXx72KMTHCOFac66umUOToxoj4r9ZUWxSIY1jlZN5W320w7SunpUrtQQ8B98CVADxbbkLiMiYmRehRnxlBmRobmy0ABDoOqWAQkrmR2rp7c0sS1aWcc4KtbVEomObp7UbUWXcjJtWyrh1GnErrkByYZAAN/3qkQjvKg3F8bqJNBISKuxNrEAisHCXUbNmwoVptPcwU6EcQdWKEjNK4MWmTYZvrU59DwN998I9+bD0hKsOD47sXc1F2bWBRSQi2RYvGoMABxzuDsTgu4zIEC9L9SyF0fCmFjDNrZ2VOMQyVO2ETtHKxBnpf/TWUrcplTD7YSS4tiEQz65kIWAJgjrsC/77le4qUM1OZCQkJY4vL27dusxYKOAhCByou4Sw+4SHKQgMlyl4UAfiH31j0op1lPqtb6wWLpc8AKid4xn53cACQq5xwLpLpdHueeUPrhTxQjhv77o86EeWv5OZ4oqHCGjqslAwlxqXfOsCQk6qMU4Hti8Ca712SH66RJkzgSpANxTlCkGb56koaoAeW5kKTo3r07K/5BTkGFLrJSkykz6Br7StBiRl83WIFCJiBqXHhhAWK1gYsaLGdsF4D4bRRZ1ftCMHDwwtHLEB/atVF7qvz022Jbl2RSMnP4/ixbB3J28yBnV3dydHEtUZJYdHQ0691C6hJWUCNPewoJ9Ke2VfIJgjVwQUBFfBWc7MUXo1lT1ZTwJbeROLGZfS2AMgmcG7ShAwcO8DEFmHTpwdcpZP4XBXRckNKObF1U4Vo0xPmFMzt08Xea7wgo3zPavhK3n6lWrZp8Tz4g2YnJELp0jKa4E8Bz8bvEOPiwJQhrR4Uu4ItCO9jwFeOl9AcDUM4jXAch2S4sR4GLKITfsTQtKrEQkTr4aJBxDp/i+LC6XNdVWhSLYBD9AGuWCOILQmrSq9vzHE3KcfOhbLIjr8rVysShi3oUrO+fqpJJwx/WbUmCkz945QVOckMuiimA1RI4+wMNaWECLTgTxn4WTARtYAAE/D5Ex++Ax6OnEPwGIEhLBpYvsN4i1k3hwQco3xGRICjqo6c19Gu1gUGLiRE0Z4RBawVp/5CSROW4NQldlwZwisOHguhk2IpxOlngCnD+AJxDEAesPlgmP//8MysWmoKs9FSxvk2izHA/LiBlS0iLCvqsDeSVRWlRLIJJSU6i3u2biOVNNnXVshjYhyJQ0mgSyMfBuzpV6/c5uQjrAMgVL50njmOtWBwCgsA1J60J4IcAqyPN/ujRo9SxY0c+XhjgDAue+wn7FgBFsd++Tgtuk6INXMXR20aJDAFvrbjAamnoGvnWW2/xMUsF8k38fxtisBMBBK2g+GfIEgTRokCRAwJaw0t5Ls7Pd999VyYmuKUDJEw5WSztid5WhvwnTChiLmAcoq3O5ag0at68OW3evJn9J4UB4uOwrm3Ef9RmYbym3Dwl31sQCnktjanKPtTSolgEA6DrIvwkAJ6KG5rOozna2rVr6caNGyyk3a661BRf23dSaL8icQILQByztXcU/wXBiJtHu8epWt9PSJxl+QG6CJzxrqbROIgFN/SVgeViSjgTWrohf33NJKNMBsghsGO6kkSiCpAoF/DbYH6s8n54PISmsMa1dA1W+JBSb56Uvp8Azge+I4gFy1U4B/WjX9BYAcFr+iaLG56nRCnwH9nJ8LFUVI1aBQiYoFIe59eQdASA841zhvP8xRdfsIWO82ZKEmHC6a1iaT9PXKlzmLQ0XQ4A+b203wdAwiMsIsxb1H3pJ4eWBMUmmOIAPhOQD1p5AFB8w4mCDwTQJ5xCCQjQIyH0F7J1cae8zHSO7QMnA+L4hEFkG45jU3r9IDsUCvHZwizFycfzoc/i6+tL9evXlx8lAUsnVpPHVV08Vpl4ro3a0erVq6lq1aryIy0TIYu+5Z7L2ss9fD/kr+Ai0qtXrwK+NJjzQdyoLERn8OJ5iAShawOS6XAui/IFWC3EeQlZ/B1lht2VxqrWtDNEKMhGRn4Ulp9F9rIWJMV6QeG+XLmv8Y8ZeA9tsgdZQf0QETpYQuVRq1WuBFMUsrOz6dq1a1wlnJKSwg5d5NSgR3UTD5yffAvIlFwa/EC4QX1s06ZNJtXwBP05guti8GPgxMMKgVTl/PnzC5j/4VgOXdireSzeC6yP3kIma++aISCABfM8PfCqhliUc4lBCP8KwsXaYXUM4nAxqLGURO6LdFA3gRBFnUims4Y8n+ICpBu962/KigpiH512GB5QzhOAcwXfCXKoUKtmtEukDJSlxO75h301GeF+kgUE6L2+NplgLrRt25Z1nWGZoCTjXhR/3leCKQoQ1oaqP8LZIKPTp0/TypUreb9zHS8dslFOJNLzTQlvsqLc3iU8EAD4Th5/7T167733CijCI4kscOa7lBUbxj8iBgaICH2rEfWw1MQvZNuidEG/xQkGPMzxZ555poDjFv2vo7bMkVL/5aGjPA9ki/A0nI14bkWrXmat5NPbWDCclyRGJjzOEyQ9Ed1BxA1LxsIirFh6YqyioyeXpAB6rw0ohIX3gdYNUiKgH4S8q/uV8WzWBFMY4AuCEyo4OJgtIFxdIR2pv6TRB0xItKJQMkbxoyw8G85XaX0NXPyYSHdHywpAWX6Fkwc3xMfAsDSgPxAmQdL53Tr+FRAmiAXZ2ejn4+Wl67CH5YYbnws9YoEeMAYzChYrVJatOA/IBYKUZ/LlA3whUqA96bFMRI0Zlpc4PxinxhreIdqGaG1uRhrnC7Hlo0DrvAN4bVSfQ4oCrw1rE21YWrRoYTZLUYslmOICCmnROxeIK7aUcapMDrvazZkstJdDuZlpFLFqopSFK6A8FnVGmIAjRozg45YEFAzCrE6+mh8Jw/cCsYAw8Z3gH9O/kqI8BBaLtomvnI/rcdlsMeq3U7FmZEYGstUHYTClwFWBcl4wuW8nCav4rbd4yQOLurAJz10NfC/yRS8zWlfaE8Drai93QCYgEkh5/O9//5MfZZ6oEAQD0xVOMG3/Apy4WPdCLFsbmIDhqyZoksHwWNzwWISeC+tNbI7AhIAVlnBmmw5BgFhsajZlB58hXV+EMuPEEiot8KrmeTgPeB4mDXwyEydONJsrZXkBIV5YJyDY2H3LpGpjLSjnEoSCfktIpoSejbFxkiusxoyAK/y7wBrUtJ7RmobahIKQPjLAEazAUgfn3ZJg1QQD52Xwgs85mQjADzZs3VU2KaHRoh0qzUmOo4i1UzRLAGXg2NZqxj2F9cPU5g7o0iDrOunSfs3gVb6TS8O27Jju3Bk1XFoQj8OAh3wlO27l8wBiQXga5w1JcVjfWzNgwabdvcDnTrv4EsD5AHAekV+FkobBgwcX2rkTSye0SAHRc98lwMBr4jxjyaP0XkIUqSw0We4nrJNgMFFunebezsokwYBAh8S7d+/qEAsmEvIFlImoTChkR2LgQMDIkgBHNIoPkQehQPn+WArNmDGD/QEKkOiVEXKTUq4do9hDK6WBr3Ue/NOldHNU1lqztYIMWkR8Yg+uNNjFABYFijdxDmHBFVZTlhobQbZJ0ZQRGcBlJiAs5bwqUM4vUvtT3Guy5jACDKZm4loKrI5g4CQL/utrrtIF8CNCGgENyfQbcSF7Egr2yg+Px2LpBG0WXD0sCQhVhsNvdOWQfCR/EKPQDcsZ/aUQIkKBsz4wWBuEMgf4DtCy1lqRk5lBOQmRfN5AstrAeQApI5M8ys6LlyjIczJWAQ+Cygi+SSHyRU2bTAANodja8u+BTFy8nrVbg1ZFMKin8P9tEP+4ygDBREHFtrbXHtGT4HmfSuUAWo9FNASaNmhibjEQnx+D22/Sq5p8COX7YP0OgoBPQAPxePgR/KcO4ucpUCYAzgGqoC3RkW0qQKgQtYqDpo/W8FfOAaJpIBKcN4SSjQGvk5OaQEFzPjaY5wLg9bDswVIHuVXw01QkWA3BBM56X5PPgR8VVktsbGyBNSzC1P5T39I4fN9cfp7zEnbt2sXONEtaBiDCE77mV4lYxPdWJgjCoiAWJP9pLwcRog5e+JXm8YDyHJyDq1evMrmWpOrdEpARcpu/f25mqjB184s2le+P742IInxNhaXjJ5zYRNHbF1Buttx3Se9cAng9SFVgXNWuXdviggNlBYsnGFghIQu+YEea8gPDiQk9Ue1Er9y0ZCYh7RR/aLRgzYtQq37ehzkDXQuidy7UVCgr3xtXXviMIB6k/d2RvxK9fb7OVRaPxw0Df8uWLaxra41C2fi9w5b8yOFfZSmI8wXg+4MI4LhGwiT8IIaAsYPIYkaEPye7KecQUM49Xgcp/ehmoKT3W3uEzRRYLMHAcRb85yeSILQAfmT4T9DxT7/9Z+z+5eK2VDPAYLVgMu7Zs4fV+y0F6AEUf2IjZ3YCGNxYCiGagaRDZN06OjryfcgkDV82lnM1kFKuQCEWyE4MGzasYPM3KwCWymErfqGM0NtGyeChhx7iSBrS5/WtXER6orfP49fhZaTeFFFeB45fXKCwnETxp6VHfMoDFkkw0LeFdx6q6AAIA1GfK1euFChfD/1ntCbXAAMD7VeHDh3KV3pLsVpQ5R25aWYBGQqs7UGo+rkR0G6J2jKbcy0U4PEgo1dffZV++eUXk4pALQ2oUIa1lup7QUMKyrnCBQXnCZFBXFQMNXKD7EbCyc2SSp8eMQEKOYFM4KdCiFp7CaqiICyKYFBgF7lhmqbFKH74Iasusoo/rsbaJj4KzOBrUdbaICE0mcfAMKRmb47AFRQl/UrYFN8XJIElIJZBmDDa3xlJguhymB54XT6SP8E8mnTkGiFkgFoLMB4Sjm0Qy+QblHT5oI5fRQkrowc1CBUJhYaWgKhFixLLx+RL+6UqZD1iwjIHOUDIVu7SpQuH7CGSpcI0WAzBpNw4QaFLvtcMABAG1WjCSwPtJDgMkqj//uArkTIp4WuB4w4V1pYA5OZAnhRXZOU7YLAjwoO+yvqykqwZLEx6hN31JwgcvghR60SSLBzos5R8/ZgUktcavvjOIGDk7sDBjTC7oYLLzMgALgOBkFbCqa0FzhmcvSBkkAkUCa3RN3WvYPYEg35CcFCy1SKAQTB09SVO/NJXjMNSKGrzLE42UwZLWJ47O3FBMOYOfP7E09s09ULKhMmp2ogGDhxYgCSgz4ps3fjj+cSpPAcdJdGMDPKe1tA7CKULqIA3lASH74slEELA+J1RdKmP5KhQyrp+mMPTSpGnAuU1ouy8mVBATtYaSbvXMGuCSb17jkL/+V7jnIWkAqQrkeavXTUNR1zwgi80JQEglvmnQ9nfUBbCxeUNRMKiNs2Q8nIEFHJM967LEQ5DyxpYdFxfpRUZwXMibb2YiKyhkRuIAN+Tiy0R/ZOhEAK6YcKfgiWQMRF3hOZj9/3Lmd36xITzBT8WXgMFhGhdq6JsYZYEAxEdVo2DQpoABgNEuyEMrd/OEiQEmUsMHmXgQcUfanZmrS4nPm96yC2KP7KGki7ulw9KNS64QQpi3759utaHeA7EhkIXj9JEhpTvDGlPRDQsrbRBH/A7IVcJHTO1l0D4noDy+yIChAuIISDCmBF8i0XKDXWHRAJit27d2MIz1K9JRdnBvAhGfBQUlyHnQAEGxKILUZywhNCiAkwwLJtwdcPz8DgMPmRe4opmzoCPBSUK+lEe3EAo+A46gtji+yHkGjhnuI4jE98XIWr4CqCHbMkAEQTP/0LHUgEUUkD0BucG8gRoWqeP3PQUlqKMO7CcO0QaIiZkdWOpOXeu1IZGRfnDbAiGa2lWTjDYIbDlgz3pvV8XinWxHZe75yTFkP/kN3gQKRMN2iS44ptzUzOQYtAfH3GlszaU74mIha2YRA/2eZmeexdZuPaUcfuMINzxOhMG3xfaNPA5WMIS0CDE90EFe+TmmZLujkycCpRzogCdJVw9vOjLeevJs3JVca5sxdo4m/KSYylgxjsGn4/zBMc4nLSQYVVbo9x7mAXBwI9w96fnpTChIYiJh0b53F1APEaRI1SsFqXfkblnTvqOf4knVaEw9B1kIsX3xaTbvXs3a4NYsiOS+5yvEJamqcNP/7xgX3mu/F/7HEE5DmqHIBc1o/b+4f6OUDEwghd8SXfH9jVOLoB4HBx+sHLwOEhXIkwNckEhI5quWcIgMqm/EyaL1k35rkgQ7PXmh9wyxpCyv6UBMpP8HU2F3nlhi0X8V84PbkhH6D5gCEVFRXEfdAhdq+Ryf3HfLBg0vx/QsxNFhYeJcVK8j4ArFKQXECkpqvGUOWHBtF9p4fRf5T3TgDwWyHS+/vrrRbavsCScOnyAPn6z9OpsSIJDNjOya5GdrBKKeeG+EQy6BCDikZCQwM5bOPBQbIbKU6Rx42PhPlyJsI0aG/RZgn5GvXr1LHYgoUtCfHw8fwcUxaGlR3p6OkVGRvL3xfdCchjOB74rHmOtk+bOnTsUERHBxKB8z5ycHBZ0j4uLo7CwMBZ0x++O84TCTIwNbGP8YBkE1XwV5gvziiKpUKHCqmDZC3kVKlSYNVSCUaFCRblBJRgVKlSUG1SCUaFCRblBJRgVKlSUG1SCUaFCRblBJRgVKlSUG1SCUaFCRblBJRgVKlSUG1SCUaFCRblBJRgVKlSUG1SCUaFCRTmB6P/iGIG99f+s/AAAAABJRU5ErkJggg==;" parent="1" vertex="1">
                    <mxGeometry x="500" y="280" width="41.79" height="40" as="geometry"/>
                </mxCell>
                <mxCell id="-4WbBz2A1vkrkdE__zxl-28" value="" style="shape=rect;fillColor=#F6F6F6;strokeColor=none;" parent="1" vertex="1">
                    <mxGeometry x="498" y="320" width="164" height="20" as="geometry"/>
                </mxCell>
                <mxCell id="-4WbBz2A1vkrkdE__zxl-29" value="" style="html=1;strokeWidth=1;shadow=0;dashed=0;shape=mxgraph.ios7ui.marginRect;rx=3;ry=3;rectMargin=5;fillColor=#E4E4E4;strokeColor=none;" parent="-4WbBz2A1vkrkdE__zxl-28" vertex="1">
                    <mxGeometry width="164" height="20" as="geometry"/>
                </mxCell>
                <mxCell id="-4WbBz2A1vkrkdE__zxl-30" value="Search" style="shape=mxgraph.ios7.icons.looking_glass;strokeColor=#878789;fillColor=none;fontColor=#878789;labelPosition=right;verticalLabelPosition=middle;align=left;verticalAlign=middle;fontSize=6;fontStyle=0;spacingTop=2;sketch=0;html=1;" parent="-4WbBz2A1vkrkdE__zxl-28" vertex="1">
                    <mxGeometry x="0.5" y="0.5" width="6" height="6" relative="1" as="geometry">
                        <mxPoint x="-17" y="-3" as="offset"/>
                    </mxGeometry>
                </mxCell>
                <mxCell id="-4WbBz2A1vkrkdE__zxl-38" value="" style="group;fontSize=1;" parent="1" vertex="1" connectable="0">
                    <mxGeometry y="190" width="200" height="400" as="geometry"/>
                </mxCell>
                <mxCell id="-4WbBz2A1vkrkdE__zxl-39" value="" style="html=1;verticalLabelPosition=bottom;labelBackgroundColor=#ffffff;verticalAlign=top;shadow=0;dashed=0;strokeWidth=1;shape=mxgraph.ios7.misc.iphone;strokeColor=#c0c0c0;" parent="-4WbBz2A1vkrkdE__zxl-38" vertex="1">
                    <mxGeometry width="200" height="400" as="geometry"/>
                </mxCell>
                <mxCell id="-4WbBz2A1vkrkdE__zxl-40" value="" style="html=1;strokeWidth=1;shadow=0;dashed=0;shape=mxgraph.ios7ui.appBar;fillColor=#ffffff;gradientColor=none;sketch=0;hachureGap=4;pointerEvents=0;" parent="-4WbBz2A1vkrkdE__zxl-38" vertex="1">
                    <mxGeometry x="12.5" y="60" width="175" height="15" as="geometry"/>
                </mxCell>
                <mxCell id="-4WbBz2A1vkrkdE__zxl-41" value="CARRIER" style="shape=rect;sketch=0;align=left;fontSize=8;spacingLeft=24;fontSize=4;fontColor=#aaaaaa;strokeColor=none;fillColor=none;spacingTop=4;hachureGap=4;pointerEvents=0;html=1;" parent="-4WbBz2A1vkrkdE__zxl-40" vertex="1">
                    <mxGeometry y="0.5" width="50" height="13" relative="1" as="geometry">
                        <mxPoint y="-6.5" as="offset"/>
                    </mxGeometry>
                </mxCell>
                <mxCell id="-4WbBz2A1vkrkdE__zxl-42" value="11:55PM" style="shape=rect;sketch=0;fontSize=8;fontColor=#aaaaaa;strokeColor=none;fillColor=none;spacingTop=4;hachureGap=4;pointerEvents=0;html=1;" parent="-4WbBz2A1vkrkdE__zxl-40" vertex="1">
                    <mxGeometry x="0.5" y="0.5" width="50" height="13" relative="1" as="geometry">
                        <mxPoint x="-30" y="-6.5" as="offset"/>
                    </mxGeometry>
                </mxCell>
                <mxCell id="-4WbBz2A1vkrkdE__zxl-43" value="98%" style="shape=rect;align=right;fontSize=8;spacingRight=19;fontSize=6;fontColor=#aaaaaa;strokeColor=none;fillColor=none;spacingTop=4;sketch=0;hachureGap=4;pointerEvents=0;html=1;" parent="-4WbBz2A1vkrkdE__zxl-40" vertex="1">
                    <mxGeometry x="1" y="0.5" width="45" height="13" relative="1" as="geometry">
                        <mxPoint x="-45" y="-6.5" as="offset"/>
                    </mxGeometry>
                </mxCell>
                <mxCell id="-4WbBz2A1vkrkdE__zxl-44" value="" style="shape=image;verticalLabelPosition=bottom;labelBackgroundColor=default;verticalAlign=top;aspect=fixed;imageAspect=0;image=data:image/png,iVBORw0KGgoAAAANSUhEUgAAARgAAAEMCAYAAAAfyakBAAAAAXNSR0IArs4c6QAAAARnQU1BAACxjwv8YQUAAAAJcEhZcwAAFiUAABYlAUlSJPAAAIOZSURBVHhe7V0FmFRlFz7bHSzdJd2tImKgKL+igGITigm2GKAiSgkoKVIKIt0g3d3dud3dHf/3nnvv7MzszO5swczsffeZZ++903e+773nO/EemzwBUqFChYpygK38X4UKFSrKHCrBqFChotygEowKFSrKDSrBqFChotygEowKFSrKDSrBqFChotygEowKFSrKDSrBqFChotygEowKFSrKDSrBqFChotygEowKFSrKDSrBqFChotygEowKFSrKDWo1tQoVZoDMqECK3DCNMiP8ybFqPfJ6sC85+NQkGzt7vj8lM4f/AylZOeTk4UPVataSj5gvVIJRoeI+IzcznXzH9ae8rAz5SOE4FRhPb6+9QmFhYeTj4yMfNU+oSyQVOsjLyaHcnGyDt5zsbPlRKsoSgbPeM5lcgJNBcdSiRQuzJxdAtWBU6ODuT8+LK2qavKcFMUxOBiXQxZqP05QpU+SDKkqL+GMbKGrLH3x+TcGso34067AfJSUlkbu7u3zUfKFaMCp0wOSCwa5/A8T/gIAAaVtFqQF/S9R/s/PPrwkAuRw8eNAiyAVQCUaFQby5/DwNWnWJPt4ZJOxcG/kokZubm7ylojRI879MATPflfdMA6wXJycnevTRR+Uj5g+VYFQYxOmgeFq25yTtOHeLar4xRkMyGOAqSoec1CQKWyrOaW6ufMQ0wHq5fPmyvGcZUAlGhUH06tWLGjVqxNvurXrwfyArK0veUlFShC35nnJSEuQ90wDrpUaNGprfxFKgEowKg2jcuLG8pQs4F1WUHDE7/6K0gCvynmkAuSy5FEtnz54lOzs7+ahlQCUYFQZha2t4aGSroeoSI/nyIYo9uELeMx1YGk2aNIlq1TL/xDp9qASjwiDs7aUMUn2oPpiSIfXWaQpb+UuxIkYArJd27drRBx98IB+xLKgEY8FIiouhjAzTE7SKAxutyJE2HB0d5a2yQVp8DOXk5KfBWyPSg29SyKJvi+3UBWC9fPzxx/Ke5UElGAtF3KFVFD55IE14/QnKzMyUj5YB5CtsrpHJYGzpVBKk3DxJwZNfobXvPUbJycnyUetCXnYmBc0ZLu8VD7BemjdvTu+88458xPKgEowFIvnaUYrePp+332zqTKOf71TmVkB5WUYKsGQIXTyKCa1jNUfa8umzVunfSTi1pdjLIgDk8sfRANq6dat8xDKhEoyFAeHN8GVj5T0J73WqTmMGdBfjuPgD2RgiIyPlLV2UBZGl+V6g0H9Gy3sSOgmS2TVmsLxnHUi9e46itsyR94oHLI2OHj1qcWFpfagEY0HIjo8kv4kDKS83hzNtZx3xk+4QxDK4hRtNeOtpab8MkJ6eLm/pwtjSyVQknt1JIX9/w98Bnx/fQ0GTvAja9bPlLge0kZuWRGH/jimx9eLs7Exdu3aVj1guVIKxEKQHXiO/ya9TXk42T8oL4SlUt++HtC2pqvwIooF1c2nGiFflvdLBOSlc3tKFg4ODvFV8oM4pavMs/g4gl3+vxNG0FVvIZtBMsnPz5snYMD2ANn3Zz6KXS/C7+E1+k3IzUuUjxQOsl+Dg4DL1d90vqARjAcgVyxJc9ZWrYbd63lzRPHLkSPpk1gqKe/QjTSp/H48omvXJ67xdGkx+tDLF7F4klmTxFPD7EPkolTzRS3x2vwkDmWRALut8M+jcuXP08MMP0wMtWpFLo3aax+07fYnvs0Swtssv/Sk3vWROa1gvDRo0oMqVK8tHLBsqwVgAbMWkvlTlQXmP6ONHGlJzb2miI5zc9dkBFN55sIZknnGLoEU/juDtEkNM9Nj9y8h3/EuUGRWkIbeSRHuyE6Pp9vdP8xUd5HLZvj6dOnWKGjZsKD9C8ssAuP+fSzHUvn173rck5GVnsbaLQbkLEwByWXA6jHbu3CkfsXyoBGMheHH4KLrZ8FkNiTS8sYGObc7PCu3R/y1KeOxjzf2PZF2ntdN/KrbPBJovJwPjpVtAnHST908FxpGLi4v8SNOQGR1MAb8J8hOfA+RxnmrTli1bqHbt2vIjiPwmvkI5qYl8/3/BeXT69Okyz7e5F4jaMpuyokPkveLjZEA8TZgwgZo2bSofsXyoglMWhl1L/mByYYtCkMmO5Gr08czl8r1EO/+ZTY1ubtTcf6NBb3r+vZHyvUVjxIgRtGLFCmrSpAlnkCKjFyQFy8XV1ZVGjx5N9erVkx9dODLCfSl47qdsucw+6k9HUrxpx44dVLWq5DfKTU+RpCJln8zWUBsmF0tQatNH3MFVFL1DSh0oCWC9bAkm8vX1lY9YB1SCsUBsmT+Vmvltl3YEiVyp9Tg9/8E3mvT+4/+toirHF2iWNdfrC5J5f6R4qOHs3PJARshtCln0DYfVQS7wuVy7do08PT35/pykWAqY/g7lpCXRrMO+tOZOGi8N2rZty/dbEhLP7aKINb/KeyVD00n7aO7cufT+++/LR6wDKsFYKNhSgSUDCOLYk1mX3pkwT7O00LF0BA7aNKG3x80p98gEhlP8kbUUvX0evzcsk8UXoykxMVF+BHwyMeT/62uaUPWSy7F0+PBhatOmjfwIy0Ga3yUKnv+5vFcywHrZEW5Pt27dko9YD1QfjIWi9+AR5Neiv7QjJnIvh0A6tW2NtC/w4HMD5S0Jlw7vos8/L3oiJEeFst8EbTSyYkI0t6SIYIqPCqesDMP5MQoy09M05KKgc+fO8pYktoQkO4VcFpwJYxElSyQXLO1Cl3wv75UM6BCAsPSCBcLitEKoFoyFY8o7fenFainSjrBk/Jr3o6fe+kgsUW5R0B8f8WFM5DnHA3l9r+8/ycvLpbzMdGHm76ao/2bpEINRCCsoqtvbHL2yd9B1xiLTd+zLPeit5q6a19qRWoNGTF9KOcmx5DfpVT6OZdH806GUkpJicRonCnwnvMxLvdJg9jF/Op9Xmw4dOiQfsS6oBGPhwM/3w4sP0uCWsgi0IBkbe0dO9uKJLMgFPhCknT/00EPSY2Sk3DxFYct+0jxWH4gcIefGIPA+tnaU9OSn1OHxPvJBCSCZeSPfpqecgqUDRj5TWlqaxco/oJYqZPF3Bs+bqcDSaM6xQBbxKm50zlKgEowVAD/h+Defolfq6f6UiuUSFxdHHh4e8lEJgTPfp4zwu5oJAjLB46HFCz8NHMKwLBBBwg3vMaJ7A36s8l+BnXslqvXZYnJ201W6XzNtDLWPPCLvSVDIJTw8nKpVqyYftSykB1yloHmflopcgGa/7qeIiAhNVM0aoRKMFQFlAsjkBTCR554MZucq6loUZCdEkt/kNzgvBVAmPJzDCCF36NCBvLy8+D5DgCbviRMnaN0Pb9Pwh+trJpmNgxOddmtLr30zifcVrJ/1C7UJPcDbynshS9cSE+kAFDCGLvqO/S+lAayXgwkedPHiRfnIfYb4HZMigynP3ok8K5cd8asEY0WApfHrkGcpzO82h31Rz6Lt30A9U/DCr3ipAh/IH8cCaP78+dwGA3kvxQGGze7du+nQHz/oLM9u29agnt/N07Q3AcGN7f8gO4dBMIsWLaIhQ/JLDywJCLkHTBtabMFuQ0BY+vr166z3cr+RcHIL+990SFP8lvxPLIPXhTrQq2P+oPr1xQWlmFAJxsoAR+6+ffvoiSee0Cn1x5U35K+v+UqFiX7Bpg6tWbOGqlevLj9CAjJqUSIAxy/7TATgP4FjN6dtH6rZsCAR7V0+n+pdWa2xZhAyHzZpgaYwMiYmhv755x8eoAMGDOBjloiA6cMoM8JP3is5YL0cSfY2i3qrpIv7KHzleHnPMECGJ0+eLFF1t0owFQBpfhcpfMU4yk6KZXL561wEBQUF6WTMxh1cSfFH11F2cpyGKApAXNWc67agm16tqceLb5KTa34Ttv2r/qI6F/Izig/ZNaW3f5nDvhxrQOSmmZRwYpO8V3KAXBadj6L9+/frhO/vB5KvHKKwFb9olsuGgM8790QwJSQklMgRrRKMlSM3LZn8przJ+iTwf2wOymUrR5n4WXHhLIqUcu0o7wNw+AKoPeparxJvF4gmief7NnuRnnj9fY2lsvinT6h7xlXeBjY5dKavfi5dhqs5oCwiRgpgDWzatIn69u0rH7k/SL56RFx0finSl9Ry6iEuEylptE8lGCsGflr/yW9QdnwEWy47InSzRSFGHTzvU7EUytJEkc4EJ7CEAlpkgITwGvDtIBLV2SmW3mknrB6tIYMM4QEjJ1KlShIRrZ0+ltpFHubH4DWbfTaXunTpwvdZIkDAKNYsrVMXgDVgDvVGKdePc2dJJDsWBnzew0ledP58vihYcaESjBUD6nERayfzdtvpxzgkqtQC8cT5fajk8BXEAocvnL1w3BprWQJAZmHfnJ9oQM18zV7tMgTkwAT8+qomAW1mkBfNWrqety0NyDr2HdevTCwXANbL9u3b6ZlnnpGP3HtAaJ21kE0Awujx8fGaMVMSqKUCVorsjDQNuYBAIAOgTS6BM97VkAvS9dHYC36BwsgFgKPv28XbaHWQGDryMqtn3m0aPfxt3kbUquanizlsDXTLC+BoVkmRJ6ynzPRULkGA8Na9RPTWOWVGLrAGkO/Su3dv+ci9Bxrum0ou+LxIWSgNuQCqBWOlyAi7S4Ez3+PtFlMOaiQo87Iy6M5Pz7FjD+SCdP1Lly6VSIPkt/f6Ud8qSZrl0LLYanyFBk4sHEeVfQ/wfT9fyKZ/tx/k40UBxGibm02pvhe5Qtmg7KQgNoRP7dy8yKFKHXKsVp8cq9Qlx6p1KdPZm2ztHcT9ggAdXcleW1dGPM/ByVmQaNGyn/HHN7K8Z1kAk/XP40EUGBhINWvWlI/eW+CiguWyqcBndnnoZfr119L50FSCsVJwhGDZWCaRBz8cR6+/Lslowu/CfXrEzw6THUV2w4YN4/tKgr2ThlO9hBu8PXx7AO26cIe3gdujevH7DNtwgw7eKFyICcSHOqUcSE1iSJbVsJStLAU2NpLlZeviQS71WpJH+17k0qitpAksI/nyQSm6UkafAUuN+10WcWf000X6XBSAXGYf8WffW2mhEoyZIFOs9x1dddP5SwNlQEEgfMq/G9m/guXGnR+EiS5+ciTaeTz6Go0fX3gORFHA8PH9+QUWj4Ia3hv/nhbzV5rUd37sw8SB428uPcPHtJEeE0qplw9Q4qmtlJUQWWi4tNwhf2ZYRjwRy2haoFp6e4wbLd1x/4oZ747ty7+PqQDBOHUbwLrPpYVKMGaAu2Oek3Rc9a62pgLLk5m3bNkBC0BewX/qIN5uPvkAp/fDAZty/RiF/vsjTx5YLyEhIWXSUB1N4NBpEp//8SU3ND6XyI3TOEsUeHl7DF24IOnu5mRlku8vL4oPWr7N3cwFNmJJ5tasm1jKoZJdWE9ObuRcrzk51m5Odo7lZ9WwVQg50jSxjDURIBfIR/j5SeLjpYVKMGYAZSlRUoBg3lp+jq0JIPmyWB4tH8vHh66+xAQDJJzeRpHrf+Nl0+ns6nT8+HE+XlpkJMVT4AQpQxfLoR3n73BS1rVt/5LD4cV8vNVvhzUtbm/vW0+05w/xnXm3YkPromInlm0OlWuzFYXsaRtIYYhtp+r1ybVpV7L38OF9G1cvsncqPOkNvqugOSMoMzJAPmIaQDBePd+gX34RS8QygEowZgCFYLCcCclxpW+//ZZL+HHFx9oda2EkO8FRC7Hsli1bUvStC/RJ/XwHqzaRJF3YS+GrJhQ4jqZtUJMDwQyZsZY6duzIx8sCt797kv8PWnmR1hy+QHXq1KG0+GgKnizpvwxedZmO3AlnS+ruwc2Ut2Om4Bd16JUagqBgEdmJ5TVbwWKsIIKXkxxX7NwdxXpBOkNZVbqrYWozAibfzZs3WXj7u+++o1WrVtHmzZtZhf/AgQN05MgRPjZmzBiatWwDVX0+vzVJjRo15C1daF8/UCqgoMxFnhC1Eeha10sTsdIOK4NMkG4OOHkY0ZhRUXyI3xc9mLJiwwSpxHMtWXZCVIkTA+GTK0sZDZVgzAiIcChVyKbA1slV3sJzi/bfcASlnACzXh+psRHyloCYCMoSCWHkXNV6MSvAGY3I0ZtvvikfKRuoBGNG+OfVthSycCQlXdzPVa66NxyTbgij4ha9I1/HFan8hgCrSIFz/Vb8H/VFUVGSbkxZQbliYlmmwE5LThMlCN7ekuWCKA3TYcl82irKASeD4ribpKktaUyFSjDmBHGVh6xC+MpxXEKve8Mx6YYcDdy09WB1mtXL1gwKFLWXSB7tJT8JsG7dOnmrDID3kN/nXGiSRj3Pw138lz8LLCwlDyQ7Xe58iKdJWyruM5AIGBoaKu+VHVSCMQOc0u6maMrNQMdF7U6I8dn5P2vnOvnqdAk20pIKxHNh51reLguk3s7PccEST+mrnBmd33JWG7nulbU+u/Q/OLHwbgUqyg9w7nbr1k1TFV+WUKNIZoDp06dzUhM6J+LqD4EmWCRwxGLCYmmBOhZso/gMKnF4HCJNAQEBbBkg4qRUNMf636SYeVJHgbdWXKANx69winrkjXOU8I/U5RGTuuFHM6l79+68XxpEbf2TeyFBDuJQkqem+jZm118Uu385R63mnQqhjIz8vJc+ffrQmTNndHxHuH9wu8o04uHS51+oMB3IiYJ/TCUYFSYBP+kdhL4FQCTer42l5557jve1c26WpTWhn6bP5e3SQHlNpMRrp5eHLf+Fki8f4PD7b8s20yOPPCLfYxwIx+Nq6p4cRt3qSz6bbnUl4uxqrMOBihIDFuTba6/okH9ZQiUYKwUKBdHSFLjT5T16tv8rvB1y5zql/v2xRDLCeojs9TV1f+Jpvq8kQKZodmI0Wynbw+3o9u3b8j2CeEY/xXkZHWefYmurOEDuDqw1yD/cuHGDJk6cSHv37uV9BYoYFqCQkQKFlACVmApH71V+5aZRoxKMlSL07g1KWTict0+HJNPrS07yNnJU1r3/OHWsJvlsbB2d6U6jZ7lTZHGASFDgjGGUGRnIVtKgFefpzp07Gh1gOKOTLh3gmic0vS8v/VmY9lhS4gbyQa4NOkWuXLlSk6iIIa7cgMKI6ePuDeWtioN3N96kA9dLLqlRGFSCsVKw8NP4AVIdirBUlqY0prEz5sn3Em3+qh+1cJD7RYv7T7p3oDdHmVbchlqn0KVjKDPcj/exNPr+++/p559/5n3Ic6LrIZTycN/du3epYUPzmLgK0eD8wM+FuqnIyEi2mEBW6dtmUhsPKfO5ogDLpGdm7tI458sSKsFYMZBJ6zeun1RJK0jkcss3qP+bQ+V7iXb9PIwapkkkgfvdmnYlj2c/Io/qdaRjegCxRG6exRq1gGK5fPjhh/THH3/wMeTD+I5/iUkGy6aLtnXp4EHTtGDMAUkJ8RQ5fVCxqo+NARP3zeWS5Wbuy7mhhzM4U7ysoRKMlePS+gXkcnolb19JdaF+M6TqZgWrf/uBOsQcl3wyMpAh7NasK9l7Sy1NMNmSLh9k0lAA8kDU6M8//6T3339fPkoUsW4qJZ7dwUsj3A9y6dGjh3yvZeD8ihnkfmmzvFc6wMHt07Ib/fbbbxwJxBLV39+frl27xtFAxaeUmprK3S5xCwsL43ogLPda+jgK60rKgO5aT7chXlkS06e7Q2jbGUnXpyyhEkwFwPYfBtED2ZLg0/UsL3p+yjphsOSHh8+ePUsnls2gp51DdYjGEGC1gFzC8txZYrNx48byPUTR2+ZR3OHVvI2lEWqoEI62NMDyC5jyBtf0lBawYk5X7cGpCKUFsrXR8wrC7XCaY0kHHxMibyAqHEv1v0Jz+hQ/zI9crBfnHSxWqYopUAnGCpGTlUV2ejkN2k3DUG1befhCqlRdVwsGrWMvrprFDmL9YQFiuRabRc8++yyHmz/55BP5HgkaTRgBXLXrdH5cJ1sYn8nW3l6H2MwZp3dtJO/9ZSOZ+druBM75uVfYs3we1b8sEb2pABH+LgwYXGzKEirBWBkSTm2hyI3TaVOUO321YKN8lOjujWtks/YHykmRa4XERA/t+Cb1fKlgG1dcDbG0gfMTWr0w7SEToV3XpCAj9A4n1KXcPMUkhGWRa6N2fKVVkHhmOy+d5pwIom9WHDJa+W1u2DvhQ6qXlN/mpaR4e901OnwrTN67N7hwYDu57Zwq75mGQasu0f5rQTq9zEsLlWCsCFnxEZKws/yTbohwpa///o+3ARQ4Hp3wDrVySdU8xrNTb7Lv/hpVrlmX900Fcl/Cl/9CaQFXeB/k8s7aKzRy5EgaN24cHwMyI/wpYMYwzfstvBBDY9Yd46xlc0dEaAglzh5c5LKxKMA6iOz8Jn3++efykXuDA799TrVjLpv8+bFMavftYmrdurV8pPRQCcZKwB0cJ71CuZm6RY92r/1Kjdp0kg9I1snYl3vQW83FBNf+6cVjnWo2psqv/8zLqzxbB1bkx5ImJyONo0MOttLyJmr7PBa1Up4Pnwza0cI3AEtHgbG+Qsdd29Ibo6aWvSZNOeDmzpVke3BhqUkGVszOC3fvKbFmZ2dR4MSBrBFjCkCEM27baaRXywIqwVgBoL169+cXNX2OQAojuuc7+uIfG0FdeouJroXRo0dT8pFVNOLh+vKR4kOJJFWpUoWXU9qAZCPEpjExDX2m3Rl16KPf/5H3zBdwnEZMlnJ6SgNM3pZfLeReQ/cSnHD51wiTCRL+s+N+0QaXwyWBWk1t4YDm6t2fnteQy8Kz4TRy+UE64tBCfgSR98E/OBytDSiXjd96geakt+Xn4WYKsBTCIESU6GRmVV526ZNL8rWj5PuLZLkoJLTyZjL9cSxQfgTRU84h3FfJ3IGi0qqflp4IEUZGZ4d7jVqNm9PebNM1Xj55pCFt27ZN3is9KrYFk5vL/gFomeb1G0ONmjaX77AMoLla0J8fswWDiYwmasijQPV1RloqBf4iWRAAJrlNx+cNhkuRZo+M1t9//50lOTvUdBdPy2P5SxCKgtNB8fTUU0/R1KlTWXNXqd7WRlZmBgX88oLmio/PhQprpO3DGlgyZjg97ST3SBJWzdoQe/runx3Svhlj55jB1CizdOn0kEX4bPEeTTnFvcTBaV9SrUipq0NhgKV1p2lflmUtC1RcghHk4vfrqyyCDdjY2ZPz4GlUp0lL3jd3IHoT8vc3HBXCJEZvaSRnYbkCZEYHU8DvQzRWBG6oByqOiY4cC9xwFTe1lB8p99/37ULD2uenna8Pd6ZvFm2V94iWTfiauiblh0O3JvjQZ3PWyHvmiQyUFfw6sFQZvpi8ds+PpFdffVU+cu+QlJhAEVNeMWmpV5ZRrwq5RMLk8x3XX0MuAJyYaYs+oR2Lyyb3oTyRHnRdh1ywLELWp0IucPSG/DVSh1wOHTpU7PU/Wo/4+PgUSycEjx0+bzNtipZU7YD+NTNo21/T5D2i176dRFdqPS7vEf3PK5b+/Cq/hMEc4eTsTGm9PpX3SgYsk+b+PFKjTXwv4eHpRbFPfyvvFY4s8fmQvFcWsPtJQN6uEEAD8OA/hlNuVjqb/0/OPU5d6/tQHS8p9u8Tc4N2+CVT205ded/ckOZ7gUKX/EC5qYlMHJsCc9hyUXIX8P3Cl42lLEGiuH/O8UBOS+/UKT+SVBTQGE2wk7S8Ere8vFxKi4+ieLGUcvMsOiXdy8uLHu77Kh2+GULVEiXfTuW423QqII6adHiQHb4tuj1Kp8SSyydWyjNpZJdA6/YcoU69xLLOTFGtXiPKjgvnpWlJUcPVjvYEpJSJ0FdxUbt+AzHm46iyfM6NAXPhYGgmPfzww/KRkqNCLZH0lw3QL0FvZky+G+vnkvfNndKkEhMg9pnR1O3R/KusOSDh9FaK2jSTrS18/p2RDnT69Gny9PTk+7OiQyhw1ntswSjkAp+MYtmYAjiMub+OAUCmc2lMVc74NRUHVv9Ntc8vk3bEeT3l0ZHe+G6ytC/w37zJ1Dxgl3TeBXam1aQR05fytjkiOjKC4qbn5xqVBB9t8+ce3vcjqxlpCps/e45auxduRf1214XmrtatWysJKtQSKXzlBB4YSsbp0qVL6bHHHmMfQ5fBIymm0WM8CfAY/yVjuEeRuSB2/zKKXP+7hlxW3UqhnTt3asgFYeHQf7/XkMuyawksR1AccgGYXDB5DN0ElPavpuKxgW/T1bqSuh5eo2vSOfpvfr4sxPPvf00BrV6SzrtAb5cwGvvKY5oiQHNDlWrVKfPB0rX2GNLam+bMmSPv3Vsg9+jZyeu5nW1huHDquEb6tDSoMAQTd2QNZYTcZHJBm9V58+axNKM2Hhz2PV1JkZYaHas60K2Fo3n7fiM9MY5idv0t70kZl5MmTdL0Dob4k//Ut1j8CeSy5k4a9522t7fn+0sChKK/PBBJc8KqsANcQUnM5hc/+o7COg+WeicJkmnuv5OW/JKf1drrjQ/ItXG+f6ixQ7JG/sEcUf/x/mLmlHzqwBezdWu+0/tew9nFhTbZtteQuiF83L0BqwiWFhWCYODMRaUvAMula9eu9O677/K+Pp6bup7sPaWrfnP7OJo+fKCYE9LV+34BnRCvZeQ7Tf99vQO1biqFOmGx3P3hWe7qB3JBvgmWTaWtJ/FPd6DNxy/TtMWrqOGoNZrBWFyLSMGjAwbRCbd2GgvxobTLFHjjsnyv+I2SpL5OuAAMEhcAWJXmCncPT3IZMr3QCVoU4m6cvq/j6suxk+horT58EYEwPLeN1bqhT1JZLOEqhA8mdPEoSrl5ksnlREYVOnlSko/ElT9292JubOYy+HeqXl3SP8lMT+VcDoSyMYjSBky4705fLBk2ibUzq62JnwzWgGP1BpSBCmnxOUEuSy7H0tWrV3XS9YsLRcB7XlYHzndRAH3dk/6xdMClAy1cuFA+WnysnDyKOsWf4vfAuXWsWo+y4yN5aQZyQS/toUOH0vz58+VnmC82fNKHWruVTCwbIeukHu/SBx98IB+5f8DYQnId4j3IiQJwIVm/fn2pG7FZvQUDXViFXBBxUcgFiNwwjWIPLKesuHDa/21/SkmRchwcnV0psvaDvI2JcOn3D8tNU9ZUYO3cf9Z2CnB/gCcmyJGjGTK5/HkiqEAtUHlAu2tASfDq1xPoVqM+0tVfnFtkIivkMnjlBV46WAK5AP1mbpO+RwmAZdK+1YvkvfsLjK3nn3+epRoghoUb5CXKosuj1RMM1PUBEMyVK1LlLxC7919WXlPQqaYLjX+1p7wnGLzny/IWcaOyXz55R967v+g1ai4FejaV96RM2bkngykwMLBMm5YXMGzl/bKoUfnfsC8oqI3U5QBQ/GJwWj/9dMk7HNwP+DuXvIfTC7UkkXJrhlUTjP9vgzQ1Oi+//DK5u7vL94g18KGVPGkwuBlie2gbbxo38mPebdaqLaX0/oq3gQH1bXWsn/uJx7+eTXccavP3AnGirQcaq5UljK2cyyq0+ujLQ2ljlJuGXFavXk29esnRJgtCt09ME0o3BJRiNGnSRN6zTlgtwaBvc1aM1GsXE7Ffv/zCuuB5n2nCuRCtxiRliEnVIOy4Romt/WPPsp8DgBVzbGfZ6LSWFrAiHv5yFrUdPIp27dp1T2tbSrtEUoAI18ezV1NgqwF04MABvgBYIjy9K3FHhpKisXtemWXNmiOslmDSgq7zf5DIW2+9Ra+8IpnkIJ20wKu8DWKBb2XKnuuU8dCbvJ7uJq4qGxfO5PuBKkOnatbZVW/tNJvBgGzZYcOGldtV/174/hHpGjVqFPXsmb80tUS8/NV48nUsnmCXAshlwAK1VlglwaC6OGzpGLZIQCIYxEBOdjYFTH9H4xj94YcfqH379tw4vnGvV8jWwYkf17tyCv3111+87eLhRXZucnq8eL2vvspfNlkz0FXREMpKJ8SagN7gzQaVLGcKy6SvBvUrM8vQ3GCVoyXlxkkmA6zv4Xdp3lySYcjwPU95OVI1KYinf//+vA24uLqSrauUFQsrZtfyBbzNE+rRIZJ1I5ZJsTfvbzTpXiE0VFpe6uN+pLdbAho0bkKZD70l7xUP73aoVqzyC0uCVRJM4oU9/P9UYBy3zlCQGR3ExAPrBSG4du3ayfdIqPGeWBrJEyjQ9w7/Bxr1eE5j3dTMibHaq402jCXqqQRjHLW6/08zfooDhKwXTvxe3rMuWKkFc5z/w4KBIr6CmJ3SsgeAsJI+XCpVJXsPScdkePcGtH37dt4GnOu34v/wTXz99de8bc3wysoPn+akWHcotaxQqXJVcho0rUQkM6CeDS1bJheFWhGsjmBYakDLwtAOA2qrrGmHrLXhXF9WVBdEMmVKfgjSxlaqx0EL0KNHj/K2NeOHdnYUf2w9pQdekyrQZZhrEaK5oF7zNuTnWPwENVgx6JJpbbA6gkkI8ZW3pCWSUvAHJTLomgAw8xW/jD6qvfwNX4Hgb9GJpGhdle5FhMUcEPXfHyzJyar08neuKN+9NHj6p7/J1rH4tWBZQdesbvltdQTj6iPVEwGwNpQJkeZ3UTNJQDDGWmbYOTjKW8ZhzX4ILCs1t6CE/JvYB2FD5U5F0Qiv1l7eMh0Q3IYusjXB6gjGyU2KBCmApiwQn55/ZSiMIKAIB2BCaQO1PwAmGQSvrRX/RlXm5MOP/rtN+53aUe7Tn9C8ABeuE/ovOI+buKsoGt2Hj89PbzARWCYFXpT8h9YCy6mmFh8TzciTLu2n1NtnKCclkUPOmPggDPc2PcnnsdfpzPIZ5H1jJz8FvpYP52+lFi1aUGZqEgXITcDQIvO4r+HG5tCyTb1zjp97272ZxtEbOPM9jVSirYsH1Xn3N7aKEk7+pyEfDCh8Bud6rchGLM3yBH/bOUrRJxUVD6d3biDvA7PlPdNwOiiRBvx1hHNrrAFmTzBw2gb+NohblSpLHFMBK6TJJ3M0wlKKFAFM/nbfLKI2bdrwcW3AoZkZFcSCSzNXb89/7uindJzHpmLemQj6cd0xjfKcioqF43PHUJWAI/KeaXhlZ9x9r94vK5j9Ein5/C62XJgYFN+A3g3WBv7rA45alKErcGnQlv8jkW7Kt5/wtjZSrh9j3V681pngBA25xB9ZW4DctN9f/6aN9tWc6KWXXpL3VFQ0PNDvQ3nLdHimRVqNs9fsCUa7tQh8A1Ov5tCNhs/Sr5cy6f2NN2j0kWhKafo4F81tr/kCban2HM0M8uJMXUz2xm65mtBqYpt8xfqnKyXR4cOH5T1hnGSmU/jK8Uwk8LMopJAnfui9K+bTrMO+bNVA/avj7FMsfn2+xmN0pe5TtM+pHe2waUFRnd+klEffo6ttBpFD5XxdFv3OhyoqDqpWr0FZ3QfJe6bh3U41zEoPujQw+yUSdFti9ixmsvhsZwC3KjUligNlLui6os7o22+lfjAgmpDZH1BGuBTKPuLYkoaOlfogRe9YyBIOUM4HkcFERZ0SMHv2bFbnR4HhiBEjTIqkcHuUeZ/x5551x95spB5U3HvExsZSzNSBBazgwjB41WU6ejfC4iOWZk8wcQdWUPTOhTxRSyvXCMTFRFPMtDdYnV/8ehRWvSO1fKAhxR1dxwMAy62oOt1oxYoV8jOKRm5uDuUK8rLXC3Hf/u5J/tzTbhCrhamouAgPuENJ8z4wmWQgqdl+1BJq1UrKILdUmL8Fs28pxexexBN1/LlUun5dkmGAFRKy8CvKTUsmG0dnqfVr3Rbk2flZyqvVgjwq5bcu1ceyiWhdeq7Ajw1yQbuPixcvGg1FQ2cGUhB43+itf1JORn4r0RkJzdjaAZBej+6RQL//InTU9FRUTBS3v/U6m3b07QTLzosxe4KJ2fOPWCYtYYL5dIe/RpQYXQLiDq/m7QIQlglEsZ3rNGedl4ZtOhWQGfj7h+HUI0esc+WvD3JBf+fLly9Ty5a6/akzwv0o6cJeij+yRgpJGzllzScf0Ph70EIkYPrbvOSaeCGdxbhVVGxALsRv7POssmgKoO7/1dIDZaKNe79gUYl2OutR9NgRAPHA8TpbkAPCzwxBANxrOuAK5a78lta825PC/W9L98l4+5c/aG+9l+i59cH0zZE47pIYFxenQy55giyQ6xI4812KO7hCWlaJ18Z7gpD0o1faJGbn5iVvqVAhwc5eWNl1mtH6y+GagMHs4wFi7PrrtAzB8gi3bnUrsZSoJcPsCcZGnrT6tUHaZHMhPIWm7rlOb/x7msaH1aUF56Poj+OB8r1EHas5UtL8D+mLoa/KRySgZQS89esPn+P/2rkquMrcHdOHgud/oSEVDIgWUw7SiK13KabeQ/T1ikP0aLfO8jOI6tbNVzXjvB0VKrQAIbTMqEDq36YGj+d6XZ+kGQfu0IyDd+n3fbdoxMId9MiISbQoohKN2OZL72+6SdHRlj2OzJ5gEhzzfSnZwsTUQLZgutWvxE3UHBwcmHQWL15Mk3dcokk7LtPqIK16I0ESH9aMNq0dpnjs3bF92WIBseBqM2TVRXryjQ+4tQnU3lBaDz9N3eF/8JIMj9Ou0I6H01gAIW9LjwSoKD2SLx/kMaVIX3z8SEPqXi1/XKAot2nTpjRw4EDas2cPW9OJiYncwdOSYfYEU6fzY/IWUbsabpSRITW6irP35okNMrh+oGCTbggmjV66i1xHLKFz0TIx4bHTP9TUJxnD3Z9fYGkHLIFQgzNq5iLW4h0/fnyBFO70AMm3AiIBySmAExjvBxjKGFZRcQD51rDlP2suWAr6eMbQpCF95L2CsAZ5UrP/Bg7OrhKRCHSo7kIRERG83fCRfPWw1pXtjZIGGpG9MHMHeXSQxLG71HKjgY934W1DCPn7G5Z2wEBAvyFElF544QWjCm9KeBv4/PP8fsuKsDhex5z7LKsoXyRfPSxuUqkALlho0aLdxWJArUya+fFr0r4VwiIo0r3VI/y/S71KbDoCdsJacG/ZnbeHP1y/0CgNmn17PvOhhpBeaexktNZD2yJ57bXXqHVrWYDKCFJvneb/iEC9+eabvA0opvDpoHjy8fHhbRUVC+gqGrZsLG+DXEAsx48fp7Gbz9Ipj058HCTzrHtkAf+gtcAiCMa1qWRxoIboxw/z064zGj0kbYgfacU3b4l/hsPHgKunN1V59j15j+jIEQMFaOL5aGMKYDDAn1MYkASIim4MnkcffVQ+itYoIfxaOP7YY/lLPBUVBynXj1PE2smacTDvVAgFBATQgw8+SN7e3vTE0M/pVFCi/GiiD2tEafpxWRMsgmDisiVVOiAyTExeGdXb9cBClbc/6FqL9vy3gbeNIbeWlBUJDz78KfrIig3j/1jWoBF+Yc5ZrKdjD0rdITGAsIxSEL5qgrxF9NBDMgmqqFCIWD+Vo0YYG4suRPEFTTvKiE6cD/28is5F5ufEZG35na5duybvWQcsgmBqd35cs7zBckj5EdBqJNA9X3M3YvUEunTpkrxXED6NWmhep5FbwWrVxHOSjgyg33FAGznJceQ7bgDlpifzAMJV6bPPPpPuFITD1d8CsILGjRvH2yoqDkIXjxJjRMqV2hpqw+TSpUu+3y9d9heiI+fLCw6SnYsH73eq4UybJ1tX3y2LIBgHB0fK7TmMt2F93NiTb0o2e2uUxorBEspt448UeENSpdOHjY0t2Tq5SjuCCPSRcu2YvEVGSwUggu07cSCTCztwjwVoygOApMsHKTsplgfXiy++WKgVpML6kJ0UQym3Jb8cLjBIlFMuVhBKu/NjHwr6+Tka+8VHfAyRouu18pfXA2pm0NQfv5H3LB8WQTBAHa2eM23CD9LKlWJ5IgAiqD9mC9nIfYty05IoY8nnwhrZRVHBsrdeCy4NpJCxIX9NTnp+XZF+xTSsFqypIYIN4SmQCyICCxYsoE6dJIcdpCXCVwqLRV42Pffcc3xcRcUA/Hd+k17l8YHfH4mcytiAiFnoP6N52QQ8EHmafH2lqv7/DfuCfJ3q8zZQ03efJphh6bAYgnFz9yCnfsJaAcmICZy7bRqlp6fzfY6OTuQxfBH9fTlec3/Eml8p/o93KHD2R5SRLEV08OOm3DrF24Zgq1UN/Ua7avwfGb3pQdfJd8LLlHhWWkLhyvTxNl9eqr399tt8DD6ZgN8G8XtjcGGNrdynomIg8dRWDbmsvCmWz7MkKZDcjFQKmDaUx4iCrnU96dKszygrS2ql0/unv8neS+rhhfv6dGpqFaJTFkMwQJ1Oj2kao3Wp7U4rJ+U3QINTduKWs3S+8kNSmYBs7WSE3KTA8f3pzg/PsHmKAQAgDK0PxxqN+T+WYZV9D9Kd0U+L5z1LQXNGMHHAakGpwCW7enyFgdavgsSzO1i0Co8BAa1fv16+R0VFABIro7ZKfY3w+2/atEnTuSJm50LN+EFWuIJWzin0eIt8x29cl/w0h+EP1eMcLEuHRREM1qv1Ri7jSmmge+Y1Cp73KW8rGPjlLzR511X660IM/9AKlKZrhcG9hVbERwwIVE5jUCgDY+jqS0ws+/fvlx8kAQMrcuN03oZYFQYGHL8qKg6SLu7j/7BeHnnkEU30EFZL/InNvI2LGqRYl9xI5X3ggwfr0K1bt3i745PPaawYXOTGfFQ8JTxzhNnLNRjCmV2byGv/TGkHloq4XanRk/p9nN/fF+ZlWFgY7d69mw5tXEZ3rl/lTGB8XRDG5ah0Sk3N/6GB5PhY2jjiaToVEMuPAZAohxqjtWvXcq6LdkYv/DL+UwdJuTPidUFCeF2UFVhDmrcK03H3p+d5KYSL2rerjvASGYAvEMt1EA8CAqhlwxiKO7iKonfM57H79tqrdPiWlCIRdOYApa/7hbdRXHvkToSmeaAlwiIJBtj4xwRqFbxX3hMQP5SDT01K6zGMWnTrKR/UBbRaoI8LAqhfvz7Laerju+++43Xx66+/TjVq1KBatWrJ92hBkFeQsJwygm9qrBwMoDinKpqrkYqKg5QbJ9iBC3T58yyPMYwtWC93x/yP/zf7dT/duXOHQ9NAclIihU3sLy2dghLIc+CP1LdvX1ZG9P3xWc24cuk/igYMGMDPsURYLMEAkKHcOH4EDWomh54BQTSujTpQrbd/1Ug9lBVQah/132xKvSvW0Tht4gZiwVVr2rRp9Omnuss1FRUDkZtmUsKJTTwOLtjUoYMHD/Lx6G1zKe7IWhaMX3wxmqujtaGoNQLPbwihGzdu8HbEtTOUuPRbHl/zomrQ1IWW2xTfou14hAB/WnOEoh9+T5ifsv6L+FFS756jOz/0Zi2XiHVTxY+8RmqKXwLAeRez628KXfIDBUx7m1Jvn2ULBkp1WBIlNn6Ur0wquVRcoN0NcEpYIgq5AAmIKsnX761bxbYe7Jo9LG8ReafnNwJ0qST5YYAje3bIW5YJi7ZgtIGQ8ZIlSyjj1Ab6qJtekhz8NPJ/JNvhR0cj/H9sH9Rk2iKBLlyslbPjwiVZTH3Ip0lZDp0NSaQffviBxowZw8dVVFwoDf2eXulLfn5+8lFJ9B1A5FFHy0gLd77vzUsoLJMqv/ELPfvss5SekkxBE/rxhQxjbdLOK+TqqmWlWxCsxhMJqUuI80xBBCmvC3dUxI/DzlqQA27iB8OPqejqTpkyRX62JNOQFR3M92seL26wVBRrBZq7G9IbUN/3vuQBo5KLCowpBfDrKcgIyffFFVaRX/8LuaBWjLUzZ87wprObu3QhlLFzZ34Ji6XBaghGATzuIJqpu6/Q/77/k3bbt6axQTVpaeoDtCihnibEDWhfVbiEQFg4ICR47386n0ljAqrT1tym3FTt5Y9H8eNR8Tp6tOTQU6FCKVPRBy+PBDCejGkJAQ7e1fk/wtJKZi9DsboFtK0iS4PVEYw2evfuTf/88w8tXbqUxs6YRxPmLKJ6ny7Q+fEUuD7QUd4iqtL6IVq24zAtX76c+yPh+V999ZV4WsHnqVBhCEhhUFBoVb74A2Bt69S/aVkwTzzxhLxlebBqgjEEpWZJH47VGshbRP/73//kLRUqdIFWwmi0pwD7CppWyfeTKOMMlklhbs6EY/kSIzpyrPJ7wAJq3KghbwN4rcz0NJ33NWdUOIIxBVbi91ZRQqBgNs3vEqXcPMlRyNujn2JHLm53vn+a7n7fm48Fznpfaq4nj5eYqPwe5HmtJYlWoKGH8WkWtX0e/4eVo5QW8OvJr7n09Q6UtGEyS4CELBxJd8T7Box9jj+H8plwg6A4QuWKFIS5QCUYGTZagt3BwaZ331NhXeDkuF/6UfD8z1nXJfHMdsmRq0x65SaOZYTeYTJS0L9u/lKoZutu8pawiKsbTpFAXpVCJFgieXhIujCZMSHicL6FgkQ+VGkj/UJ5vOZzyDfoSCMf56m2UiKfuUAlGBmOVaUIAEzawMD8nkoqKhbSg29oJjEmvXJDFFG5KcewfOEopQz4U4YOHSrvEXk92Jf/Y0z17pAvjKYgN1WQk3gvvBbw0ksv8f/E09v4P6C8h/IZlPfWvynoUMOFkz7NBVaTB2MqsuLCyX/yG7yt3eo1KyaU/GW5hbf2p9CJEyf4uIqKheTLhyhs+Vie1ChuhUg3okDwj1SpUoUfEx4ezu1z5s+fT3///TdlZmZS13qVqGtdLzqS4q0RlA+6dYXSF0kJmNDf7Tlpg8aRy5bSj304ZaLppH00atQojYzroD6P0c2rl7g4smrVqpxv9fDDD2va4mDKIpqJan40x3cSKyv7NaO5Fgqf+7j3g2bTyUIlGJlgoETmN/EVJpgnl91WrZgKivDVkyjp/G62CoKrtjdJdgMtc5DoGRsbS927d9dJivOf+hZfvBC53JNZlz6cKpUGBC/4gtJ8L/L7/HkiiBISEjTPQ2O/CxcuUMeOHXW6jRYGJIoGzf2Ec7aOeHShuXPnyvfcX1TMJZKBsKGN+FOAYkgVFRPZsvA7nK49e+YXzUbeOEc3ti+n0ItHKSkiiDJSddUPUbby1FNPFci4vd74eWlDXLh6OQZx+Qqcw3Aiw9qYczyQfX7az0PXAXSj0GllLC6E6QkxlBDiS6f/mUxH5/xAW7bkNxx0qilpGQGKEJs5oFgEA3Mu8NQeig++Kx+xTpjTD6Ti3iIvT7JoYdhrG/eJy78nu0N/UcrKHyl8+hAK/KUvR28g/o4C2OunDsmP1MUzL75Me3PkDF/xeml+F9k5jG1oB82bN4/F0gwBNXQomPQdP4Br64ImDaTI2e+S942dVC3oGEtyKsgIy5+TmmiUGaBYBBN/aDVlbJhIUXPe55MLGcCA34dyiAxebggvxR1eQ/FH1wumP0aZKbrVo+aMzJz8waQsm1RUQMikAp/K6dOSeDdg62ggG1c8NiclnuKPbSD7DWN5Dpzcvla+UwIsoSE/z6Fjzq253kgBHLaQBnnnnXfkIzLEa2IOIQwevXUub6NDgfK5tBEaKpZeMrK1EvsMyZDcLxSLYHJlwWL+suKWGRnIoTaEyBCnjz+ylhk3assfgul/oIBx/bjgy3f8SxR/fKNY2+5h5a+Um6co+s4VSokO00laUqHifkM7gU1bkMyhsqQLBJ8JtF0Gr7rM8gzaqomYAz6H/qTo7fMpKTZaPir1SR88Zgadq/YofXnVjYYezqBnhnxcoDcXtJ9xscYcQhhciSChdAXv9/DCS5rlPY5XrizJxwJ2bl78H45hcxI7K5aTN+nifkk1XwBf+pEmNXg7K0NaUqC1K4D2IcUFMh/dmnQmr25izYo0aXGSspy9yaNmPbFZdiYfO3mnvMkEqe3kTYuPoeDJkpO33YzjBdTuVFQMoGsEHKaYwGuS67C2LgDfCZY3OP5PpA8rJQIxMTHck7ydcxL1rSKFnRUcr9eXBn1omoxHxPrfNOFpvAeI7EJ4CvuBIAWiZJcH/TlCfL7r/JhlsdVo+/btfDx85XhKurSftWdy2/XRaaVzP1EsqrP3ksJ0ALRFRy7dR1N3X6UxG0/T09/MpNRH36N1KXXp9T2J9MrOOPp8X7iG5XGDiYgTYwhQ/E++dpRCFn1LIX9/TSELvxLrzWF0F8LbP/Zh6wjrzMwIP7Z8OF3adG4sFtrVcJO3VFQ0ONeW8lWQuwJ5SwU29vmJmJBQVQArAjIhX87fQJW/Wk3rQsXyRLYyHgrcTAum/crbhSFBEItCLiCWd9dfo+rtHuFQ+K5du3RKV7wf6sf/YaloO4Y1ImgCFmvBaEsDtp95QucHKAyoQkal6G+//UZ79uxhSUpo5raq6kJJCQnUpY6Uwdilrjf/x49rKlAd7dGhF/n0GkzZZE95Yt/Fw4vXvoagbcHA1FVaQ6TFRwsL5lU+jvXxyYBYPq6iYiEhxI8vbMAnu4Jp+9mbvH122TTyvCoJSH183oF27DAuBHVh1WxyuyQsHyxzxEX1icmbDUuvCnCX0Akv8+viIrzwbHih8wpOZfh9QET2XV6k33//ncXU/McP4DwYjN1F24+wfIk5oFgEE398E0VtlsS2T4ck0+v/nNCwdWmBJQnK0k+dOkXLli3jRLcONT0oOyebutaRwnVYgpm6/LLz8KHq/b4gxxoNyc6zChMRSMdYHkxaXBQFT3lNJRgVHMDAOBi06hId95WU5jCJfcf04ePzzoSz5V4YQhd/x75GYNzlPPpni9R1QBuYeqgtwmuCMOaeDOakPWOAlY8yBvzHxRHqeT169KCcpFjuNorX0b5omgOKRTCQjozdL+uDiskKDRUbOwduTsaH7B3ZlKze/0tybdK5TMgHHy8pKYlPPE4cUrEhwNOptqfG0oHHv1CrR3wOEIytsxs7pFlUSsCYD0YlmIoNLMkxiWF99Jy4QdO03k9YGmgLjOOPTdpotL0wgOAFiiIxnpDF+8bS/IiUgoxwPwqcIVlLIAbkwxizdAD4gIIXfMl+lrueLTQynOkBV1mEHkl2X+8P04ku3W8Ui2AurZtHLmdWy3uFwACx2Dm78wS3cXQmO1cv8nnsNXKq9QCRoyvZORqWUCgMUG6Piori1iSHDx/mpCOIJret5iKWXJLFUxTxGCMYXE2mH7hNtmaUT6Di3iF81QRKuiB1rHh5ewxn1QIn/xpPPnckS+Tfm2n08/r8XuaGELn+d0o4vZX9jhdrPaGjoAjApxg48z2+/69QzwL9tvShyGtifD744TjufAH4CqsmJy2JiafW/96jb7/9lo+bA4pFMMhw/eKLL+jo0aP05ptvcm3ErqVzKSEuVseaAIr0o+iREAjI3qcW2bm4kb13darSe5gUeiuBFYRU68uXL7OvB1521GWAeFArAijEo21OpsZFUsgU8YPJpwMNsByr1uXoll2XflS9hdRjWIX1IzHUnyJmSfkp3xyJo/WHpdqixPg4ipgs+UswLn27fUC9X5AKFA1BsfhBIJ9s9+NSAm0knt9NEasnMWE8+ulkTbGjIaT5XpCsF/FY9FeCXxNLfjQUvPPjs/yZUNO0aNEiGjJkiPys+49iEYwxgHhgRaCeAi8HfwqsC9RnxN06R1HhYZrJDZiypNGB2EfLWMgLwgrCLdKxKjV64iVy9/aRH1Q48HmOHTvG/xFWhCPt3Xff5UxKIC4miqJ/FwRjbP0qPoNz3eaCdOqRR7snpCWgCqsFCl+zokPobHg6vfjnXo3s5ZklU8jruuzgFWMip99P1LzLI9K+HpKjQijsd6k7Y9e55wo0tEeGLpLoQBqPfT6V+vfvL9+ji7SAKxS66Dt24oJENm/eTM8/L5UgIHqEiCteAzVNiDxZbBSpNIClcP78eb6BkMDAcOiGXThMmeKkaBNOkQQEKCQk/jvVbEIuDduQW9Ou5NKoPdmYsLTB1cTHR5ecUB0Lvd3XW3gyURb6OcT72jq5kUf7J8V7tyX3Nj3FoeJbWyrME3f2b6C8XbP5d16d3ZJGT5aCGxi3B6d+QvUSpOgS7g/vMoR69MvvK60NxWFsiGCU+0AOH8zbUiDyAz9Q1H9/UMKZbfw4RJm2hIjPdueOZqz5/vyitDwSr/HkV9PohRde4OPmgntGMIUBPxpas2JZo3wcHEOjKteMeLp74xo1cEzlLMuiJr3y387Vk1wbdyAHseyydXShiAwbqtb2EfKpadwxpyAkJIRWr17NP+TKlSupqZctR7Lw2T5+JF++UAfiPfE+Xl36cAQru9GDVLVOvsq8CssDMtBZW1f8tskv/Ewdukl9jMKCA2n/969Ql1puPPFxv1vzh8il94dUqbquk/bO6Ke5hq8wggFxTNxxWSevBSUCaMoGkgFAIH+di+ALoyKtCTEsKO7hPrwGkv4qVZJcFOYCsyAYUwHS+ffff3mpg2VYvFh+NXaWfgCTrR5xs3f3Ie+H+5GdeyXKqdqQKtVrKj/AOOCZh9ceVheiWjXCzzLhIXfH6PsKU9W1YXth5TxBSXbuVKPNQ2RnwX2GKxqibl2k+EVf8DYiQd3HraEGDSTtZoyB+V8O0s3eFWPLzsWDKvd+hzIr1SOnxDBBAFP4fkMEo0SrAO/uA6hSj5coMyKAki4fpMSzYhkmngf/DXRp3nrrLbauGzeWqqbTg25Q8NxPmLxAMA5d+3GembnBogjGEOBT+fjjj3nZhYgQ9nt6p2rKF0zy92BguHmTZ/te7GdJzHMkpyq1qVKN2oWWKfz333/sVAsKChLvmSbeM61wwhHA+1Tp8z6lOHqJ96hDlarVpLJucaui7KDotgC3qCo9/sPfOpYGxp7L7YP0bof8boyGgJ7VCD5oQ/HzGAKIBcSR4FKNVq1aRe3atZPvEeQSeI0lPZWIEiwbRFXd3MwvA93iCcYY8LXQiP6nn36iu3fvkmd6NLWU/czFsXZs7Z2o5htjKLtyffKsXE2+0zBAcj/++CNH2WrYpVMDhxTqUseryPey96xC7gNGkWedB8jJVS1TMCfERkdR7LQ32FIAoLviOmA0Vamtu/z9/vvvydnvBEUF+dGI7vkdKgCQxQebbvL40EbEml8p8dwueU96HIDlzumgeHryySe5VEABdHrTbp+lkMXfsXUDckHPa39//wL+RHOB1RKMIUDq8MUXX+T/AL56u1qe1LqKE6UmJlDnuoIMjGUKC7JBsp5zvVZU+anBlOFenVzcPAolBFyxXnvtNc6jaOZtR+2rufAg0R+AGuA97B2p+oCRlFOrBXlUqqIuqcwAvpfOUO7q0ZoETfxO5ys/RC9/PraA9Yl8rI8++oj9hy0q2fMYw82mZtMCMqwBvnfo7b69KE0s9++m2HCkCo0D+/TpQ7NmzZIfJSEnJYH8J78uKRqI11PIJSAgwOz8LtqoUARTFHAqoH1qF+VHnWq7s4/FqFMXUKwcRJMG/khVmrYrsvIbA++bb76hK3s3UufaHpQrlnUj8B5Gfgan2k2p5rDfOBmxLKvKVRQfo57vTENba12AxG/v9cF8qlqngdFl7tmzZ+n69eucN1YiiHERJ8ugKECm+ZXoDJNrAe8nVIIxApizsEAGDBjAPYNhdeBUGV1ewfqwcyBbZ1fOkbFt25u86jcnJxddCUVtwGmtLKvOb19DHWu6Gvbh8Gvbc5TKrWV3qtbvC9Vvcx8AH9+epX9Soxv5zdL4AuPgTM4NWlOtIRPFrhzJLC3EWIN0RGaEv7Ba0nkfS6i3lp+jXr160bZt2zQi4OYMlWBMBBKYUJaAqwYyg89tW8XJg0WFzbHkgcwF/CzVB00gByfjfYoRmYDYONrUNk29bdyCEq9r7+HDIfiqb4wlJ3cjyzoV5QIuyP3qtYJLXfwu7pXI1tWTLzburXtQdq1WlBobQZ4NW5NPjdryA0lYrtJyy1ZcOABUSEOoCtEhFORyfZ88NRWHL/wy8O917drVrGQxC4NKMKUAitNu3rzJ5RMuCcFMNDidheXKwElo5+LJIezrzo3oydfeM3rVQ8sMNPKPunycJS2MRahg3SD65VClLnn3+ahQq0lF2QDWzJEjR+i/ccOpfTUn4xcZGSiQ/NPPiZ+TFBtFkTOGaELUxqAQC7SX0LrkvffeK7QY0hyhEkwZAhYI1tsIW1+8eJGSj6ym7KzMQgkHcGnQlmIrN6O2A97nfUNAEhXK86Gk5nxjr+S7MeIsRg0XkgztegxSk/3uAfbu3UuXLl2igI1zuIoaVi2gTTrK8gYZ7XD03/3hGZ2yFCWCBELBBedcaBL9+uuv1KxZM3rmmWfE9cgyl8QqwZQzYE4fOHCApk6dSq81zxfWMnjFEwPLrWkXtkRuZntRl979jFojaO6F5lsHV/1FnWq5GX1NWxcP8mjbUyzTqpPnIy+RvYP5CEJbG0AekNhEJjic+aFXTtOn9SXhexDIkFUX2e8G3P3pea4tAqEgLD1w4EBq2rQp1axZk5577jmNRISlQyWYe4zbt2/zIESo3ObyTspMSy00bO3W/EFKqtmWHni8v9GQNdqs4DVBZvZX91B6arLh1xSvB83j9FptqF6XJ+SDKsoTsfuXU8yuv5hg3ll7hX15gP/UQZQVE8Lk8vas9TqJdNYElWDuM7D0QTJgwt3LVCk5yLhqnyAH74deZB9OuI0XNW7bheyMRBGQ1fnzzz9TjdjrFBXsb5RsfHq+RimV6lPtjo+p+TblhMSzOyli7eQCFkzg7A8pI+QWE8znS/ZqShCsDSrBmBkQJcByqkd1Wwq8fomGP1xPvkcPgiDcW/Wg3JZPkGutxgWK7BRAE+evv/6im8f3kW3wZfqgW+2COTf8Wo9QSqtnqXG7rmK3jEKtKljQO3L9b0wwg1de0AicQWgKglMgmOELt/PyyBqhEoyZY+LEiXRx72aqnhUl+VmMWDcIWVd/+WuKSsvjcKgxnZzFixdT8K5/KSokQLJsDJBN5afepsxGXalG/QfkgypKipg9/1Ds3iUFCAZNC9FXDATz0YJt7Mw1B+RmZ1FKTDi5VqlVJqFwlWAsCKitQuJf30YulBwXY9x3IwDnbqV3Z5N39ZpGM4CR1n7mn18pPjKchnevX4BsWF/5pW+4bMG7qtQDS0XxkHBiE0VummmAYASJRwawkxcE07x5cz5+L5GRnEC22ekczcoI96WYXYvEZ/LncbDO66kykd5UCcaCgUrei7vWUYfqLoX6bmq+OZacGnciO0EYxnSGIS269/evuArdGHFVevQV8npyMDmUQEO5ogKyCxFrpzDBQHYBS1ZA2wfz4fyt5UcwYnrnCKvElqRpnhZwlcKWjaXcdN3CS31MjX1Ao/ZYGqgEY+HAz4fsYpQcQDOkZYYvH9PJvZF9KkjIc6rVhOp+qFtIpwBhVujsjBo1imwubjOcSSxeCyULnp16U5Xnhotd1V9TGLQJ5u01lzVtSQJnvc9N8MuDYLITY1iHBrIOlJsjlj35WcGa/1rAZ1OgpDr8Ht+U/vzzT94uDYpFMFDQitwwjU1nW1cvHrCQp0SFMSISDlXyU6FV3B/g54Q41oYNG+jWqt/5mCGygb6xR4enqPJThgWiYcojUxkSpwemj+TEPkNkA61k57othJX0k3xQhTa0CUYnTD3lTcqKDSvVEglh7oST/3H/JZQWgFjyciQLqTAiwXsqQPkBkviQfzO1d0PqWFWKTC5z6sHRzdKiWASDeD7i+kYhD16oeoFs7D2rUrUXP9M05lZxbwGSQDXv6dOnyW/jHG63a4hsUD/jWL0BVXntJ4PyE7COEN3CgOvqGGVQ4wY1V8gerjHoF7XqWwvGlkh+v75O2fERJjl5IRORfOkAvxa6CGQnRlOWeG5hJILWstrbsDThtEVW8HfffceiWWh7W6VKFXJxceHHAf5T3xLEFUrLnR+lMWPGyEdLjmIRTNyBFRS9cyFvc0qzYD5ENvBFDWamKpAHMkNsO1SqQY5V6ohB6UQ2Yj3v2ekZcm3UXvdxKsocaN8LXwssG/zsBi0bn5pcDV75f8MN5sZA9vHQoUO0ceNG8vQ9XJBsxOs41WjEPa98+n5a4f012gSj7eRVCAY1So+MXUENGks9sTGX0oNvUNzhtZSbnsRqeix2VQiZKBbJ2ZBE1oZBL+vevXszcTzwwAOcYwO1uyKXs+I9lB5Lf+V14Tq40qJYBJN89TCFLZXMJjQtg1A3GoGj/gYC2WhbEnvzLDVyTOPH4KVNUo8DxJeHoJM9yKdafa4WRudIj7aPkUP1hmSr1XxcRekAXwsatkNeNPX0FooJCzJs2Yjlj1uzbhRZoz21frhg5i/8NShXiA24Sf57V9NHD+qlt4sLkGfH3uTc8y3yqlJdPlixYNSCkbtEAnbu3uTeuidXUmeE3jKJTC6Ep1CbNm2ob9++vLyB+l2jRo34PpMg3iP1zllKuXVamLrZPFclC0ny13x2yVnTObI0KBbBaDe/7zDrZAEJQAUYwOgzDdMcqfHYR3ap/6l9FBsTrVHoLw75KP+hveFUsxG3J8GV0rXlI2oHxlICpQZw6KWd20Hh/rcN+lpsbARZdP0fJdZ/kB5o302+Ix/wLaARe/yhVdSmsj3pRLTE82EZebR7knKaPUrV6hVjIlg44COJ3DidCeLjbb4a4e+7Y/5HuZmSbrQ+8FhliQP/SFieOxMJljNQvXvnnXd4eWMSxDzLCL0tyOQcq+EhcpVy86R8p4CR6f/FFVfWnC4tikUwStozMPdUKP229zpvFxdoyLZmzRomHdTkwALqWK8KOTo7Ua28REqKjzFt6QXIg9+5fivObEXLEOemXcnBWZUsKAkg67h06VKqnxZIQbeuGCYbYWkGejShqt1foDaPPCXfIQHDady4cZQdHUzpN0/QsI5VdQexeD4a16W3fpYatOogH7ROYDIHQfk/O4vJ4vNdgWw1AkobWG3LBEuY82HJ1KVLF65N6t69O0uumhKpg+ZMtt95fq+suAi2RnJSE/LPvZFprry/vs9m2bJlmta0pUGxCCZm92KK3fevtCO+NFp/uNRvI75IIiu5oc2qrb0jZXtUI4/qdUusuoaPhO516E2EKyP2nVMiqUpaGJ8o7BcY+NrQ+kFw5azU4xXK8KpFVZt1MOnHUiEBS97333+fGiTdotREcQU2QDaVHn2V7Dr0MVqqMG3aNMq6vI9qZYaRfp4OiKryU0MpqUZrqte8jXzUQiHGJISiMsLuUMLxzZTqd0Ga1LgJYPJ+dyiSpTyAL4a+StP/WU0eHh68vOnQoQN99tlnvF8U8nJyxPIqmjLD/XiZFbVphlE/jQJtIgMwD3xT7ahz587s8G3SpAmNHTuWHB3Lttq+eAQj99otEpjE4gZVL6caDaXlDISW3CtRSo4t2Qorw6d67RIREFo4LFy4kMvhkVPQppY3NfW2o5jQQOpU25MMJpspwGcSBIjPUvnJQZTu6EletRsZLRpUkY99+/bRL7/8Qo9VzaXXG+s5f+Xz6tGmJ6W1fJrqtYA2se5vC3N7y5K5VCk1jN5p51NgMqA7Zk6PIVSnSSuLKLzMzkij7Ag/8TVyKWb7AkoLvFrgO+lbJxP+XkNPPGF6FXtWWgolhgWQm50gr/hIrmmCjwTvyTAwdfGesEBOBSWQo5MTJblW1zh48Zvg/SFeda/0ZYpFMMiLeL//0xQfE0OdIYqt9VST/SmA+LLKfyxv0HTKq+tzlG3rQM7eVfhklARQWEeyWTXbVKprk8i5G0a1V7Qh3g9RLaj5Zzl7ce9rV0/vEn8OawfEtDZN/FSQelDBrF/8poJsKn04jyrXNKxpguJL/60LqZlrFhm6ILg+0JGcnhlBlWvVM5vfAJM6JzGGrfWwf39ka8UQMMEVQvFLsydvb2nsQeYSTQONgV8/IZq7B0Ssn8qp+0wgRqanQl7K0gbv55/uwO/39ddf09tvv833328Ui2D0cfXqVY6pQxQ7LS2NCQe3DrU8OBzXqZakzG/SJAcwmDBABemQMJ+d6zRjiQIkcuXYY/nlQLni04J97Rwci2RhaOj269ePZS3b1XSnjjXcxOfKNl40qA3xOZCxiiZprm0e56WfaukUxFNPPUXtKIzaV3fWPafy74hwddaj71DD1h3Fvi5ZQDRr5KD+1KaKAw1/uGAtFF4jt/9Yatyuy70XyhKfBU5R+DTClo6hNP9LBie7QigYi1djMlmI+9NPP+U+SYWNT1hAlJHCxZBJ5/eIeZJtlFD0yQQSmrBKkNdSrZrUmK19+/b8GHNDqQjGGBA1wg0kg/8IZ8JZBWnBznWkQagQjiF5QYPQGpwYuMgmdq7bkmoPmyIfLRz4mtDiwGdC1AS9a+Dj+eghSQ6hUAsMkwXJY+LmWKUu1Rg2lRxdi14rVxTgN4Zc6IhX+7KmjSFfDci61meLycW7YPQDfrYJEyZQkztbDP4GyBiHaHqV92YZrRIvK0BlDo5ZJJtpC28rUAgFULJgp0+fTsOGDeOe0UVZXPHHN1HMjvma/kb6UMhEeQ+QCl4ToeiRI0eyLi/eE9EkS0C5EExRQO0MhJbQyBsVm9CaVWo0MNG71PHkbaDIpZc4+Uh7Fwt39umAANx6vUOeNU3TosXgjoiIoJ07d9KIESM4T0F5T5wao85k8b4Y9LbO7uTZ/xuqVE9OlKrgwO+KSVAn6oLu+ZMnHs6ZnbsPVRk8kVw98i0eOC59x/Wj3PSCvX6USffHsQBatvdU8fI9igAiObF7hRVxYR9lJUSCLeV7JCiEgkkOQqlXrx4tWLCAWrRowQLchREKljnoFACywtKKCwy1ppvyvbQtE1glHTt25JbEcPiCWCylg4Ah3BeCKQrR0dFcTwNrAxMe/YnQrMwpLlAz8YuyOHBzrFyHbF3cxaZg/HotyPvJwWTvlJ8WrQ+8rtI/GKYuiAdtRLCe7VtP/MjifqMSCeL94MR2qFSdfAb+QG6VK2ZimQJYNciFwu+4ddKn9E5bve6DuArXasKWKJAZHcKtO5QJqH0lx8SuX78+54JMnjyZLYXSADV1Cae2sOATlkDawPtqT3g0m//nn3/4P5YjxgAfSvyRdZyMmh0fyen8yndRoP2dQExYUkFcDCFpLHlatmxp0WRiCGZJMIUBV0i084CjEU4zZBDz+l2gSF+P+FFhbiOqhYQ99CvKadSNfBq3Jkdn48SjAIV/sLbQKG1oe6nZuTHCQRYy/A/ISHZ7YgiH7SsqMMSgPXN8/lhKSYgzes6UCYj6HEzuTz75hNPeH3vssVJPvDS/ixwBTbsrLCuEdGVovyeIDOFaXMxQG/TQQw8xERgCfCgJB5ZTZlQQ1wUhma0oQsHr9+jRg2U24DMBaVk7LI5gjAHEg2UOfAHoehd5+ZgmY7jQnBlAHkQgBTiUI93qUNv+HxTp1MXyCu+Fm9utA3wVK8zCwVIO4VjcPDs/K99RsXDy5EkunAzc/CcNf6ieziTEBHz++efplVdeMTnBzBiUpU92QjQlXzlMuZlS+QqA98T7wZdxPS6bBg0aRN26dePEMmPvCd9M3MEVlJ0URynXj0vWlh60vwtwKTKNfTOwUJDWj/eoaLAagjEG1NwgfI0G9DHXTlK7qpJ5bYq1g+pgZAiHJmdT7W7PkE/NOvKdhgHFOTiO0flxYBMpk9go4QjYe1cjzw5Pcf2VW/teFaqlCMh5ypQptGPHDl4Sv/zyyzRkyJBSXdWR5JZ666ywKgIo8dwuHYtCIZXLUelsobRt25ZeeOEFo5GerPRUyrhzRrymr3itnYKoooq0UBAmxnLay8uLicXkdH4rhtUTjCEgXRuFmihRCLt8nGrlxLKlU2QkycaWXJt1JdcmXSjWvQ41atNJvrMg4IPA8m358uV09+5dqhZ2lrIzMwolHDs3b6rU8xVKqdGa6jRpKR9VYQzQQ0FdTcLJLYJUAg0SgGIZgVD69+/Py1tjSL19htIDr1PsgWUFfDOAQihYTsF/gob28NXBQhk6dKhRsqrIqJAEYwjI6YHDDfVR2aG3qLmHFE0ojBBQGlHthU94aRVj50W1GjcvVJ4A0TO0mb18+TI95BLHXR+NvT58RUijT6/ckKq37CwGr3U5/0oDkErsvqWSYpsWtAngZkIuPf300+xHgS/H0OTPEec/w/8y1+xE/TebIz36Vg8AkoIUAmqE0BANmirmkshm7lAJphDAAvn888+5JqebIIRCm6TJYNLp9znFOlahes3bFlrpjeRELBP2799PPatkU1xkmPT6+j+JsJ5cGrajyr0GU7KDF1WpbT4ZrvcCmPiZEX6UdHEfJZzaWoAEQCjA3RRbDh9/9dVXHHEyBJBKZvANitw4jVX99aFYPfjdYh18NFIISK9XUXyoBFMMwG+A4j9UHP+vto1kgcCBbOwUiqsm9FAqPTqQ4tOyuSDQwanwBClUMvtvW0TRoYHsBDUGn8dep9xWvahyzTrWKVchzinyR6K2zmGZEG0opOLi6kYJzlVYHhRhbGPISY5nEaX4o+s4PK3/eymvh37Q8AGNHz+el1MqSg+VYEoJlEqg+HJIh+osSVmU8xjLKZ8n3yLnDs+wPGVhSx84qFfOnEAtK9lR++ouZLC8QVgyiHxVem0suXp6WfRSKi8rQxBBMoUtHystf7SGpkIC8Keg3gZyAliqGAKS9qAGF7JwJGUIy8cQoQB4vWuxWeyURWQLSXQqyhYqwZQRcBpRigDnLnIcnqoiiTsbdBzLyxuUH7i1eJhqvP4DO5CNAa8J/02dOnVoSLsqhkkMTmjxei4N2lLNIRMsTgEQQmYpt05JZCAPSWW5Av8HtFGQhoB8GDhWjSFi3VRKOr+7gHyB8loASOrBBx+k3bt3s1RBRVpu3muoBFNOACEgKxh1TxBPrhx4nEmoAOEoZGNnT3auXoIgWlP1V783OujhD0Kuz5EjR+js3+MoIy3VYO0PpDIgxVjztR/IuZ75RaSQpwKlN8g25iTF8j6gWCpItOvZsyf9/fffVLt2bbI3IuEApTa06MhFKj7qewBxnhUrBaSCzFxYPQiJN2zYsNCMXBVlC5Vg7iGuXLnCMqPQVWmcKKkBGiIHwKFybVboq9z7nUKvsChlwG3DT+9x0zRDSYWwbOx9anJWsc+rY1iK4n4BoeWwFYIYtTJfQQYgAWiYIDkN5Akr0FjYF0lvYct/poygG5SjVd+jvA7+w0pBsh6c9HD8IhVfxb2HSjD3Cagwx0RCktnGBdOpZo4kE2rIukGBoHPtpkTt+1DNNg/yMUM4cOAAK6ad2rmBbIMuGWwvgtfE6zmJ1/N47lPyqFT+yWBJF/ZyBAii1toyjiACWBiwVqCmBjGkhx9+mO/TBjKkI9f/zm1NM4Jv8b58h+Y1gOwqDdknVr16dU7JV3H/oRKMmQA/AxyNIImoXYt435h1497qEda1dW/9KO8bA1To/P39KWDb3xSvhMD1AHU/pzrNKNC9MXV68vmyi0jl5lL42smCXPZoCAVQCAF+lS+//JIL/JDFC1+IIcCnAn1ZQ6+BqM/EiRPZ2kEoWfWlmB9UgjFD4CdB6BVLqqzz2ykhOsIo2aCCG+UGaY0eprrNWvMxQzh/8hhdnfUJGRPaQn+e2WLSTl26iR555BH5aPHA9TqHVvN/qOmznoqAQghYtiD7FQ7WDz74wOASKCs6hAklUyylUJnMxCJu2pZKmlcdThf48MMPjS6jVJgHVIKxAISEhNCsWbPo5pGdVNcmwWhkCj6WSj0GkmOrR8m1kq4jMz3oOgspwbJQoD3x0RIDyWnIAcESw1SARFKun+AIkLalgdcG4LC9k2zDdUZwdhsUtRbPQe0QllFw+uq/Bj7jjfgcJiWk+qv+lPJDJrpB+F+maJ9mZaK7UyyCwdo34toZ7swIvVQV9x7wscBfAWdxK4qgqJAAg9YN8m2qPPse/4c2CYSPtCcuJr5jvVYseTl69OhiWQIYB6goRnUx/CrK6wLKa4MQsGyBZCmsFn2k+V6grIQoSji+kdJD5GZjWp8PpHIxIpU/HyQU0HNJRdkhG8WcAZdZ4AuJiHGHVkkaNjK+veXNTfVKi2IRTPzR9RS15Q9pRwxiRCdsHJzZAenZ5Vk214HkbBtyr9VQR7FMRfkAPx+u6s5+Jygy0LfQUgZl4qJQD/4eFOkVFygqDPn7W257qkB5XVQqY3k1Y8YMjtzoA83ekfIfvnKCjnwCoLwGokhw0KLdSatWreR7VZQUXBoReostTQhhodQC1iyjkKn/5VU3bh1UWhSLYExuW6IAV1JBQJ6dnyGvrv8T+9JVMj2HyLlSVXJUm6OVKeC3wTKkrlMWPeCSyVEpABMXy6CmTZuyJgkU2ooD5KggbT96xwJhuRyTj+ZbK1DPR0gY2rT6yEpNppzYEEFK3xiUjMRnQxQJAk9YRkERX0XJABGsvJR4zohGThDanGQo3QkMAOcfwNi4EptDH/dqS61cU/nxSx0fYUu5tCgWwcCMYlNbAANLQZd6wnIRL1PAL1AYZCclwJXDT79Nnu17UTYJEkLvIheVfEoDyI3CZ4F+RM8++yxrvBYXOalIt/9KDNK7mkGqkMqtxDwWnkYzfUOWUG5aMlu7ied3GyQV9FZGwhsKPdGgXUXxkJudRXnCCszLTOcsaC6JAIxMZ20ywTYsRfjDoCu8fv16TkAEAn4fylbqcudH+WJVWhSLYJA1GfLXSN5u9ut+VidDZzjIHCD/ACntAJyQgEI4eItCtVa0oRAPlmDiD61gFfIhNWJwzwCLQ9/hCmJAeBlV5g0aGF6K4erpO/6l/CWQeL7yXADPh9Tpq6++Kn5iNaxcXGQnxVDQH8Pz/SUGpq9CJso5B6nAx4aaq1GjRrFkCGDo/AfMGMYdI+8LwXAkYs4I3m79+xGWG9B2DkKgGxXHAGpGQDjoFqC0C5k9ezbLE3Ss5SGRjlbI1CQCAunY2nFjNKTCe3bpQ5V6vMyOTBWlhPg9orfN5UhONuQg5YuFQg5YxsyfP58dtoZEt5MvH6TIzbMKCHfjufDNoDdVpUqVyN3dne9TUTRAIujJhF7TKIXgBEOt6aoQiZK9rGyDOEAm0I+Gfg3KJEwhczh8fcf15yXxvw7d6eeff5bvKTmKRTDIyAxfNYG3TwUnUt+ZO0qcCYq3hbIclPuxDUlLpNBDiR69kxTyKQ7xQILS1tGVxbyrvvwdObiqg7lICCIJXvglpQVcKUAqSvgaNTxYBukLb8NaCRZLqEyxzs8Vpjqg/dyqVavSpk2buKuhmq9SNBLP7uRASnZCJMtLaJMJoJAIzi8IA4mGcKqjpxRC97AqTeltrQBEkuZ7kWL2LOYlbWZ0kOY9R5yz5+LS0qJYBIMPErs3v/k9ivOgnI8Tkp0YQ/Yelcm+UnXugpjX9hmq1fYhflxxoVg86D8NWctTp06x5dPINYeJBx9ZfxlmEPiMbt7kVL0h2bq4kWfnPuTapLMgI3Wwxx9bTynXjnPHQu1CQwze4GwXWrx4MctMGsqJid33L6XcOEnpwfkhauW5GPSQUkChYnHyaSoUxDlL9b3AIXo4YyFNgeREQ4SiXVsFEoFAOTotIMJWmAaODsSFI/7ERkq9dVp6v6AbUhKkgamvkNif/s4caSwtikcwu/6i2P3L5T0TgAnu4kGuTbvwkgb73KXPqxqledflxvNuVQtvXqUPLMvQIRKVymgNi3T45DsXqGNNaZlUpJi3AD6Dc53mZO9Tg6Ncdm2fpsqNrT8kiuVL1H9/UNLlAzrWCgYxHLeoWEZTscGDB/N92sCVLv7EJim7Vu+5KFIEsWAJhUiQCj2IKYZERCwjcR4N9bVWJrZincAJDoJG8iPIGgLlhclUAPh9E05to6zYUPEb5XBLlfSQm5rfSx/674mlrIuLC1ubEK9Hu5jSolgEA/Fq5FzExcVRs6rudObYYZ7YykuYZFXoQ3wxTHK3lg9zER4QmmZDDzw1sFh5NCCe8PBwLiBEsy8sucIuHpG6CIjPV5TUJQDiQY0Pllo5zR+janULViZbItIDrlK8uFomXdqvuWphcGFgwbeCpSlIBbII2sCaHGkJiATlJMcVeC4GJKQkkfr/+OOP830qxGkS1neCIGN0IoCQeGGiVziPsE5QTwUVPfwGiph4YYDERfzJzRxFglB5WuBV6Q699wGU91KsIZBJWJ4714DVqFGDfTTQGC6PZWyxCMYQQDYIgcKXAqcuMkwvXbrErUIaOGdTp1pu4jtLb1FcAsKER5M06NHaiBNuY2NH0Zm2ZF+9AdVt0srkZvT4jGglAtKJVlqXiM9UpLUjfgjHavXJs8PTFCXet2q7R6hStZryneYPhJmjNs+gpIuCWGRggMFaCchwpDfeeIN++umnAo7XjHA/Sjy9lS0W7aufQiy3k4iFtBFlKI71ac1AF4Kki3spze8ytzkxRCiKtYcsZ/ilkIwIETEUfRY2uZEsl373HGVFB7PjF10UcrPSCyUTxSrBe0GsHGn/cPwiMxq3e4VSE4wpQA9qWBXojHjo0CGOLEE4KdX/CrXwzNMhIJOtH1g+Tq5cUexSvxUlkDPVat+D7IwIE+kDFg+kLuHfyYn0o6rpwmwVn6NIUW97R9bDdahSh+wbdyYXd/Nrgo88BkSDNP4yAZAKbmhqhromQz170oNvUszuRbxWV6CQCq6ySNLDxECmbkUHfI4od0B2LKw8Q5nJAM45lo/ocABrYdy4cfy/MOThQn3lkLBSYihmzxLKzUgpkkyAeOeqbAkhPwkXDfzO99u5fk8Ipihgsh87dowFr+FXQbjbMyOW6tsli/Oaa5JfhSFIx6PtY+TZ6RmxbUuJGdnkJIjAW1gdplxp4VSGqYh6n0e9U7mLgCnvDckDnycHUViGHTVo3bHQ1iXlCWRtxooByX4SGRh8iy5E0cCBA+mvv/6Sj+YDVk5GyC32r2lqggQweDE5kFAHU3ru3LkV2lpBYlumOD+ZsaEUtXFGAUIBlHNmb+9Aia7V2DpB3klh1elYTmWE3hIkksZROTjfU++eN0ooihUUZefNCYogE3RRMFf9G7MgmMIA8kG2qNKhsUklR6qVG8ssr6TCF0k+YmLYuXlRpUcGEjXsQLn2ziYVayKnB0srNE+r7ZhFDRykK0nRVo4DVX/5W8qq1oR8auj6NcoDaL8RtuwnTfMxZaAjqQ3+EeRD6F/JUDUbtWmGzmBWnheY6cS+AIQ/76U5bW5AESBCt6H/fC+VOehBe8KfD0vmyA56cCM7tjDg3GeE3qGI1RM1ETx94LUB/B7unl4UZePBaQLwlWF5ailkb/YEYwzw98Chi/D12bNnqYWPI7X2sRNzxcSsYfEDuTV/kBunZeWJ5yGy5OYuJmLhgktY3g0fPpxzQ15t4SV1EsD7GdFZUd6nUt/PKNfGjlw8oPxfNmYrHH3IYVH6+ygE4Ztqx2HmPn368HFtYNIETH+ngLIcngdZhTVr1lRsh60YV9nJ4rzO/5zrr7ShPemRao/EwU6dOrFuMPKFDEKc45yUBPEvh5eshtqmANqvDbLCEha5R/g9LDk50WIJxhig4IZm9N9//z0187LVJOwVZ5kFQqjcfyQ5unmadKVAwiCu9me2rOSoWqGEI4DQvf2bv1G9RiXrw4y8I/+pg/MFnWSxKESEVq1aRQMGDODjOhA/s9/kNwpUQWNA43nItC1NX2iLhjg3KIsIXTxK6kagBeUcAfBDIeKCIIZ+xE0H8pSKO7iSosXS0xihKNYPXhfAcgd1Qb179+Z9a4DVEYw2kKyHfBl8RQhjQwENTl1t/RRDItkMQSzIDoYERZ13f2MRblMArd2xn31AbVKuGiQ0+ERwg9OvuJmSKNUIWfSdpioZgxSvhZyJixcvcqTA0VGvgb64IsNigdi2MnmU52FgwwL87LPPCmTpVgQg/I7i3VxYGFrEon1+sMTcuHEjW53IkjVUJqEAEZ7AWR/kp/UD8vRSXhMAseB8o1oZynwgLWNdEywdVk0wxoCIFkLXWO6gBQi0R+pGX+T7CiyvtCwY9C6y86xMtk5ugnBqUfVXRpOdAYdu4pntFLH+N50rFwbXH8cCaM6cOfTcc88VfgXUA14LkR3kVQDKYIUgEwpODVUzQ3clbNlYXu8zxGfBc3BDMhUSFKGH6+npKd1fAQBCiTu4is+jdmQG5xPAucHk9/HxYSu4devWRtXz4DtR6oRQ1Qxy0e7FpP+a8Mts3bqVXxu/fUUh9ApJMIaA03Du3DkOn6Mh14GVC6hLHWnyGbRyZOJBkqBz/Vbk8/gbbO2giXqa30XOiwAUMkA+AuqsMMBMgvg8of+MotTbZwtYHghH/vnnnxyd0LdYkq8dFWv9JZQRJkksKM/B1RhXTCRxKaX5FQFwYuN8IB1f26GqTQBYIiISg6UJSNdYGFnJhM6MDJB0VgCt6aOcawCk8s4773BmM8L7RSXOWStUgikEqIPC0gPRJFSCP+wSy0RUmJXD0JrYUI+DPAGkI00BBnHkplmUcvWwDrEoTljU+RRYo4v3g/YKcl/QKF77/THQYTWhhqWiaNkmXTrAwljIYM6Cz0ke4so5gV8NjlQ469Em5fnnnze49AEhQWQrOzaMU/01BKX3egAIHKJZSD4EoVQkEi8MKsEUE3CG7tmzh0ln97J51MRVslQUKwcDDjes2SdPnsxZmiYhN5ciNvxeQDgbxBKa68YJWiAJbaBADpEJZNwqxWvKoMfy6ddff6V3333XaEsQawIa5KfcOC6WpzsKWCoKqbg1bs9Ej7yewgox4w6vptSbp7ggUfktALwWgNcDoSC1H72cXn31VdMt0woGlWBKCSTnYbkCnw7ydDDQatasyQlWpoaj449votg9iyXrQ0AhFs+mnTjxDwNYG7g6Q1s15ebJAldTlADAafvtt9/ycWtGRtgdSrqwjwlBnwi0SaBNmzbsTDW29Enzu8RyFagbSvO/LL2W3nkFQeVWa8wFgEigQy6KiqKhEsx9BMrmgxd8wRmcgEIs12KzmLRQK6QNTAToIrN2i94EwFIMerYoRrV2oCoZGa9p/uI8yFDOA5ILX3zxRU6ZR6qCMSDFH6HpqG3zjGoFI9cFWsO4VeSEw9JAJZj7AKTnozEZ0vMBDGhEmFI9a3OSm754NpyK6MWM//rEgqQ6aO5CyNtSsjuLCywF4U/h7OOtc3g5CeAcwMeEXBIIj8PpjQRDQ6JLmSmJlB1yk61EROX09VCU8wmHL6wU5BJ99NFH8r0qSgqVYO4hkBkKsSY0GQOUQR3rWJnmzZvH63ltQC4hauufOn4ZPB5WDtLS4d+xVv0VfHecr5i9S9i3ok8GOAchOa4c9UFymiEHNnr/5MSEUPjqCayNov8agGKpYBkFC/Cll17i4yrKBirB3AMg7yJ44ZfcFhVQJsjdFFsuWDt+XEwgLeDqGn9kHUXv/lvnaj1oxXnWWEVVujU6FVH4l50UzcLyyrlSoJwzJBXCl4KMZURr9JEWH0PZfucpcuM0Vm8zRCrKMhTp+DNnzuQokorygUow5QlBDn5T3tRJz8fg/vNEEGvT4OqrA/FTQMIyeMGXmomhTCxcZaG1U1Z1TOYERH0iN07XsdQAfHdl2YJsV9ScGe1mIF7Db8LLGke5AuU10NT/UkQqy1Wgqtxal5PmBpVgygnwr8QdXqNJuMMgxw0OyBUrVnDdiTYgqA5Vfv0yAEwu9IseOXKk1WV/wrntN/l1LgbUJlT4VfAf3/23337jULuxHB5k5sYdWqkjkq2cO5AIIknIHYL0ZEUI15sbVIIpY0AYHYpjSvsODHZYIGledbjXr6EmY9yLJsJfh1gwMdCUDAJPSO23GojvGL5yHEfQDCXBQZwJZArfEmqrDNXoQH0ffbHho9FORgTwGogkoc4LxZvGLB4V9wbFIhikrYctHyuuDLbkULUO2dg7sc6Kg09NVpWzr9uKnNxN19G1JiB0HLluquRMFFAmTJJbDb6CdujQgY8rwOSKXDuFUv0u8lJKeTwmB6QgEE2yKotFDLPQf3/gmiolEU6bTBEKhpPVUF0VK7xd3EcJZ7Zzwad2BEh5DVg7WHKiST7El/QtRBWmAb8N0gBsHuhWJjIRxSIY1HTE7Cm6rzG0dB2rNeD+RGiOb2OLDo2Vya15N8rzrk1OHl5k72gdAwCaLOFrJnHXS20LBESB8gK0b9UGpBBj9y3V9AxWHo9WIZA4hHq8NRELCgyTzu/hJDYF+M6w6pAUiO9sLFUfRaPxxzZozpUC7XP8+eefc3gaBaQVpYCwrABtoLgjayg7Lpz7WqUFXNUs0T+96MQFn6VFsQgm4fQ2bqgN4AfuWl+KZBSmfVIYuEujkys51W1OjlXqcMfGvIadqXKjVmbfuwhMj06IijC2MmmgtI88FmTgag94+Bmi/pvFdTLaxIIrLyaZteVcQKc2/shanexk5fs++eSTnFlrSLcGfhkkE6Jok9t7yMNTeT78Ksh5gVg5fDPWKnNQ1sB4TRdWdsr145SdHMdWimJJGsJz64O5LKa0KBbB4EMh4QtAb2rU2iB/4MSJE6y3cubMGfJIiaDs7CwuBlReurjdBBTYe1cnz/ZPko2jC9kKiwfVylleNcm7bhOOCtwP5KYlUQzqf46u431l4Mc5VeGrKTRntAFpRDxWuwk8Hj/3ZDAXxiGl3xquvLgCJp3bxbIFSN3XryaHtTF69Ghuc2KIFGDhID8IBZvapALg+ZDxhDX48ccfq3U/RQCJiSASSElkxYXx72KMTHCOFac66umUOToxoj4r9ZUWxSIY1jlZN5W320w7SunpUrtQQ8B98CVADxbbkLiMiYmRehRnxlBmRobmy0ABDoOqWAQkrmR2rp7c0sS1aWcc4KtbVEomObp7UbUWXcjJtWyrh1GnErrkByYZAAN/3qkQjvKg3F8bqJNBISKuxNrEAisHCXUbNmwoVptPcwU6EcQdWKEjNK4MWmTYZvrU59DwN998I9+bD0hKsOD47sXc1F2bWBRSQi2RYvGoMABxzuDsTgu4zIEC9L9SyF0fCmFjDNrZ2VOMQyVO2ETtHKxBnpf/TWUrcplTD7YSS4tiEQz65kIWAJgjrsC/77le4qUM1OZCQkJY4vL27dusxYKOAhCByou4Sw+4SHKQgMlyl4UAfiH31j0op1lPqtb6wWLpc8AKid4xn53cACQq5xwLpLpdHueeUPrhTxQjhv77o86EeWv5OZ4oqHCGjqslAwlxqXfOsCQk6qMU4Hti8Ca712SH66RJkzgSpANxTlCkGb56koaoAeW5kKTo3r07K/5BTkGFLrJSkykz6Br7StBiRl83WIFCJiBqXHhhAWK1gYsaLGdsF4D4bRRZ1ftCMHDwwtHLEB/atVF7qvz022Jbl2RSMnP4/ixbB3J28yBnV3dydHEtUZJYdHQ0691C6hJWUCNPewoJ9Ke2VfIJgjVwQUBFfBWc7MUXo1lT1ZTwJbeROLGZfS2AMgmcG7ShAwcO8DEFmHTpwdcpZP4XBXRckNKObF1U4Vo0xPmFMzt08Xea7wgo3zPavhK3n6lWrZp8Tz4g2YnJELp0jKa4E8Bz8bvEOPiwJQhrR4Uu4ItCO9jwFeOl9AcDUM4jXAch2S4sR4GLKITfsTQtKrEQkTr4aJBxDp/i+LC6XNdVWhSLYBD9AGuWCOILQmrSq9vzHE3KcfOhbLIjr8rVysShi3oUrO+fqpJJwx/WbUmCkz945QVOckMuiimA1RI4+wMNaWECLTgTxn4WTARtYAAE/D5Ex++Ax6OnEPwGIEhLBpYvsN4i1k3hwQco3xGRICjqo6c19Gu1gUGLiRE0Z4RBawVp/5CSROW4NQldlwZwisOHguhk2IpxOlngCnD+AJxDEAesPlgmP//8MysWmoKs9FSxvk2izHA/LiBlS0iLCvqsDeSVRWlRLIJJSU6i3u2biOVNNnXVshjYhyJQ0mgSyMfBuzpV6/c5uQjrAMgVL50njmOtWBwCgsA1J60J4IcAqyPN/ujRo9SxY0c+XhjgDAue+wn7FgBFsd++Tgtuk6INXMXR20aJDAFvrbjAamnoGvnWW2/xMUsF8k38fxtisBMBBK2g+GfIEgTRokCRAwJaw0t5Ls7Pd999VyYmuKUDJEw5WSztid5WhvwnTChiLmAcoq3O5ag0at68OW3evJn9J4UB4uOwrm3Ef9RmYbym3Dwl31sQCnktjanKPtTSolgEA6DrIvwkAJ6KG5rOozna2rVr6caNGyyk3a661BRf23dSaL8icQILQByztXcU/wXBiJtHu8epWt9PSJxl+QG6CJzxrqbROIgFN/SVgeViSjgTWrohf33NJKNMBsghsGO6kkSiCpAoF/DbYH6s8n54PISmsMa1dA1W+JBSb56Uvp8Azge+I4gFy1U4B/WjX9BYAcFr+iaLG56nRCnwH9nJ8LFUVI1aBQiYoFIe59eQdASA841zhvP8xRdfsIWO82ZKEmHC6a1iaT9PXKlzmLQ0XQ4A+b203wdAwiMsIsxb1H3pJ4eWBMUmmOIAPhOQD1p5AFB8w4mCDwTQJ5xCCQjQIyH0F7J1cae8zHSO7QMnA+L4hEFkG45jU3r9IDsUCvHZwizFycfzoc/i6+tL9evXlx8lAUsnVpPHVV08Vpl4ro3a0erVq6lq1aryIy0TIYu+5Z7L2ss9fD/kr+Ai0qtXrwK+NJjzQdyoLERn8OJ5iAShawOS6XAui/IFWC3EeQlZ/B1lht2VxqrWtDNEKMhGRn4Ulp9F9rIWJMV6QeG+XLmv8Y8ZeA9tsgdZQf0QETpYQuVRq1WuBFMUsrOz6dq1a1wlnJKSwg5d5NSgR3UTD5yffAvIlFwa/EC4QX1s06ZNJtXwBP05guti8GPgxMMKgVTl/PnzC5j/4VgOXdireSzeC6yP3kIma++aISCABfM8PfCqhliUc4lBCP8KwsXaYXUM4nAxqLGURO6LdFA3gRBFnUims4Y8n+ICpBu962/KigpiH512GB5QzhOAcwXfCXKoUKtmtEukDJSlxO75h301GeF+kgUE6L2+NplgLrRt25Z1nWGZoCTjXhR/3leCKQoQ1oaqP8LZIKPTp0/TypUreb9zHS8dslFOJNLzTQlvsqLc3iU8EAD4Th5/7T167733CijCI4kscOa7lBUbxj8iBgaICH2rEfWw1MQvZNuidEG/xQkGPMzxZ555poDjFv2vo7bMkVL/5aGjPA9ki/A0nI14bkWrXmat5NPbWDCclyRGJjzOEyQ9Ed1BxA1LxsIirFh6YqyioyeXpAB6rw0ohIX3gdYNUiKgH4S8q/uV8WzWBFMY4AuCEyo4OJgtIFxdIR2pv6TRB0xItKJQMkbxoyw8G85XaX0NXPyYSHdHywpAWX6Fkwc3xMfAsDSgPxAmQdL53Tr+FRAmiAXZ2ejn4+Wl67CH5YYbnws9YoEeMAYzChYrVJatOA/IBYKUZ/LlA3whUqA96bFMRI0Zlpc4PxinxhreIdqGaG1uRhrnC7Hlo0DrvAN4bVSfQ4oCrw1rE21YWrRoYTZLUYslmOICCmnROxeIK7aUcapMDrvazZkstJdDuZlpFLFqopSFK6A8FnVGmIAjRozg45YEFAzCrE6+mh8Jw/cCsYAw8Z3gH9O/kqI8BBaLtomvnI/rcdlsMeq3U7FmZEYGstUHYTClwFWBcl4wuW8nCav4rbd4yQOLurAJz10NfC/yRS8zWlfaE8Drai93QCYgEkh5/O9//5MfZZ6oEAQD0xVOMG3/Apy4WPdCLFsbmIDhqyZoksHwWNzwWISeC+tNbI7AhIAVlnBmmw5BgFhsajZlB58hXV+EMuPEEiot8KrmeTgPeB4mDXwyEydONJsrZXkBIV5YJyDY2H3LpGpjLSjnEoSCfktIpoSejbFxkiusxoyAK/y7wBrUtJ7RmobahIKQPjLAEazAUgfn3ZJg1QQD52Xwgs85mQjADzZs3VU2KaHRoh0qzUmOo4i1UzRLAGXg2NZqxj2F9cPU5g7o0iDrOunSfs3gVb6TS8O27Jju3Bk1XFoQj8OAh3wlO27l8wBiQXga5w1JcVjfWzNgwabdvcDnTrv4EsD5AHAekV+FkobBgwcX2rkTSye0SAHRc98lwMBr4jxjyaP0XkIUqSw0We4nrJNgMFFunebezsokwYBAh8S7d+/qEAsmEvIFlImoTChkR2LgQMDIkgBHNIoPkQehQPn+WArNmDGD/QEKkOiVEXKTUq4do9hDK6WBr3Ue/NOldHNU1lqztYIMWkR8Yg+uNNjFABYFijdxDmHBFVZTlhobQbZJ0ZQRGcBlJiAs5bwqUM4vUvtT3Guy5jACDKZm4loKrI5g4CQL/utrrtIF8CNCGgENyfQbcSF7Egr2yg+Px2LpBG0WXD0sCQhVhsNvdOWQfCR/EKPQDcsZ/aUQIkKBsz4wWBuEMgf4DtCy1lqRk5lBOQmRfN5AstrAeQApI5M8ys6LlyjIczJWAQ+Cygi+SSHyRU2bTAANodja8u+BTFy8nrVbg1ZFMKin8P9tEP+4ygDBREHFtrbXHtGT4HmfSuUAWo9FNASaNmhibjEQnx+D22/Sq5p8COX7YP0OgoBPQAPxePgR/KcO4ucpUCYAzgGqoC3RkW0qQKgQtYqDpo/W8FfOAaJpIBKcN4SSjQGvk5OaQEFzPjaY5wLg9bDswVIHuVXw01QkWA3BBM56X5PPgR8VVktsbGyBNSzC1P5T39I4fN9cfp7zEnbt2sXONEtaBiDCE77mV4lYxPdWJgjCoiAWJP9pLwcRog5e+JXm8YDyHJyDq1evMrmWpOrdEpARcpu/f25mqjB184s2le+P742IInxNhaXjJ5zYRNHbF1Buttx3Se9cAng9SFVgXNWuXdviggNlBYsnGFghIQu+YEea8gPDiQk9Ue1Er9y0ZCYh7RR/aLRgzYtQq37ehzkDXQuidy7UVCgr3xtXXviMIB6k/d2RvxK9fb7OVRaPxw0Df8uWLaxra41C2fi9w5b8yOFfZSmI8wXg+4MI4LhGwiT8IIaAsYPIYkaEPye7KecQUM49Xgcp/ehmoKT3W3uEzRRYLMHAcRb85yeSILQAfmT4T9DxT7/9Z+z+5eK2VDPAYLVgMu7Zs4fV+y0F6AEUf2IjZ3YCGNxYCiGagaRDZN06OjryfcgkDV82lnM1kFKuQCEWyE4MGzasYPM3KwCWymErfqGM0NtGyeChhx7iSBrS5/WtXER6orfP49fhZaTeFFFeB45fXKCwnETxp6VHfMoDFkkw0LeFdx6q6AAIA1GfK1euFChfD/1ntCbXAAMD7VeHDh3KV3pLsVpQ5R25aWYBGQqs7UGo+rkR0G6J2jKbcy0U4PEgo1dffZV++eUXk4pALQ2oUIa1lup7QUMKyrnCBQXnCZFBXFQMNXKD7EbCyc2SSp8eMQEKOYFM4KdCiFp7CaqiICyKYFBgF7lhmqbFKH74Iasusoo/rsbaJj4KzOBrUdbaICE0mcfAMKRmb47AFRQl/UrYFN8XJIElIJZBmDDa3xlJguhymB54XT6SP8E8mnTkGiFkgFoLMB4Sjm0Qy+QblHT5oI5fRQkrowc1CBUJhYaWgKhFixLLx+RL+6UqZD1iwjIHOUDIVu7SpQuH7CGSpcI0WAzBpNw4QaFLvtcMABAG1WjCSwPtJDgMkqj//uArkTIp4WuB4w4V1pYA5OZAnhRXZOU7YLAjwoO+yvqykqwZLEx6hN31JwgcvghR60SSLBzos5R8/ZgUktcavvjOIGDk7sDBjTC7oYLLzMgALgOBkFbCqa0FzhmcvSBkkAkUCa3RN3WvYPYEg35CcFCy1SKAQTB09SVO/NJXjMNSKGrzLE42UwZLWJ47O3FBMOYOfP7E09s09ULKhMmp2ogGDhxYgCSgz4ps3fjj+cSpPAcdJdGMDPKe1tA7CKULqIA3lASH74slEELA+J1RdKmP5KhQyrp+mMPTSpGnAuU1ouy8mVBATtYaSbvXMGuCSb17jkL/+V7jnIWkAqQrkeavXTUNR1zwgi80JQEglvmnQ9nfUBbCxeUNRMKiNs2Q8nIEFHJM967LEQ5DyxpYdFxfpRUZwXMibb2YiKyhkRuIAN+Tiy0R/ZOhEAK6YcKfgiWQMRF3hOZj9/3Lmd36xITzBT8WXgMFhGhdq6JsYZYEAxEdVo2DQpoABgNEuyEMrd/OEiQEmUsMHmXgQcUfanZmrS4nPm96yC2KP7KGki7ulw9KNS64QQpi3759utaHeA7EhkIXj9JEhpTvDGlPRDQsrbRBH/A7IVcJHTO1l0D4noDy+yIChAuIISDCmBF8i0XKDXWHRAJit27d2MIz1K9JRdnBvAhGfBQUlyHnQAEGxKILUZywhNCiAkwwLJtwdcPz8DgMPmRe4opmzoCPBSUK+lEe3EAo+A46gtji+yHkGjhnuI4jE98XIWr4CqCHbMkAEQTP/0LHUgEUUkD0BucG8gRoWqeP3PQUlqKMO7CcO0QaIiZkdWOpOXeu1IZGRfnDbAiGa2lWTjDYIbDlgz3pvV8XinWxHZe75yTFkP/kN3gQKRMN2iS44ptzUzOQYtAfH3GlszaU74mIha2YRA/2eZmeexdZuPaUcfuMINzxOhMG3xfaNPA5WMIS0CDE90EFe+TmmZLujkycCpRzogCdJVw9vOjLeevJs3JVca5sxdo4m/KSYylgxjsGn4/zBMc4nLSQYVVbo9x7mAXBwI9w96fnpTChIYiJh0b53F1APEaRI1SsFqXfkblnTvqOf4knVaEw9B1kIsX3xaTbvXs3a4NYsiOS+5yvEJamqcNP/7xgX3mu/F/7HEE5DmqHIBc1o/b+4f6OUDEwghd8SXfH9jVOLoB4HBx+sHLwOEhXIkwNckEhI5quWcIgMqm/EyaL1k35rkgQ7PXmh9wyxpCyv6UBMpP8HU2F3nlhi0X8V84PbkhH6D5gCEVFRXEfdAhdq+Ryf3HfLBg0vx/QsxNFhYeJcVK8j4ArFKQXECkpqvGUOWHBtF9p4fRf5T3TgDwWyHS+/vrrRbavsCScOnyAPn6z9OpsSIJDNjOya5GdrBKKeeG+EQy6BCDikZCQwM5bOPBQbIbKU6Rx42PhPlyJsI0aG/RZgn5GvXr1LHYgoUtCfHw8fwcUxaGlR3p6OkVGRvL3xfdCchjOB74rHmOtk+bOnTsUERHBxKB8z5ycHBZ0j4uLo7CwMBZ0x++O84TCTIwNbGP8YBkE1XwV5gvziiKpUKHCqmDZC3kVKlSYNVSCUaFCRblBJRgVKlSUG1SCUaFCRblBJRgVKlSUG1SCUaFCRblBJRgVKlSUG1SCUaFCRblBJRgVKlSUG1SCUaFCRblBJRgVKlSUG1SCUaFCRTmB6P/iGIG99f+s/AAAAABJRU5ErkJggg==;" parent="-4WbBz2A1vkrkdE__zxl-38" vertex="1">
                    <mxGeometry x="23" y="90" width="41.79" height="40" as="geometry"/>
                </mxCell>
            </root>
        </mxGraphModel>
    </diagram>
</mxfile>